{"glyphs":{"0":{"ha":636,"x_min":44,"x_max":678,"o":"m 197 -17 q 112 9 146 -17 q 61 76 78 35 q 44 165 44 118 q 65 286 44 218 q 123 426 86 354 q 208 567 160 499 q 313 690 257 635 q 429 776 369 744 q 547 808 489 808 q 649 763 621 808 q 678 653 678 718 q 660 527 678 597 q 609 381 642 457 q 532 235 576 306 q 434 107 488 164 q 321 17 381 50 q 197 -17 261 -17 m 214 11 q 310 48 261 11 q 404 147 358 85 q 490 283 450 208 q 560 433 529 357 q 607 573 590 508 q 624 679 624 638 q 608 751 624 719 q 549 782 593 782 q 454 744 503 782 q 359 645 406 707 q 271 508 313 583 q 197 358 229 433 q 147 220 165 283 q 129 118 129 157 q 147 43 129 75 q 214 11 165 11 z "},"1":{"ha":421,"x_min":36,"x_max":550,"o":"m 53 -4 q 40 0 44 -4 q 38 7 36 4 q 226 345 132 176 q 415 682 321 514 q 306 590 361 633 q 188 508 250 546 q 179 507 185 507 q 176 513 176 508 q 175 519 175 517 q 179 529 175 525 q 307 627 236 572 q 435 743 378 682 q 465 774 450 760 q 497 789 481 788 l 540 793 q 545 794 543 794 q 550 793 547 793 l 550 786 l 125 6 q 90 -1 115 0 q 53 -4 65 -1 z "},"2":{"ha":544,"x_min":-89,"x_max":614,"o":"m 247 -17 q 201 -6 232 -17 q 136 19 171 4 q 72 47 101 33 q 29 65 42 60 l -67 -11 q -81 -10 -72 -14 q -86 0 -89 -6 q -65 26 -85 3 q -20 77 -46 49 q 26 128 6 106 q 50 151 47 150 l 63 151 q 82 149 71 151 q 171 229 117 179 q 285 340 225 279 q 398 466 344 401 q 485 591 451 531 q 518 699 518 651 q 500 746 518 732 q 450 760 482 760 q 351 725 397 760 q 272 640 306 690 q 219 543 238 589 q 214 538 217 538 q 197 538 206 533 q 196 547 194 544 q 259 667 218 608 q 358 765 300 726 q 488 804 417 804 q 577 774 540 804 q 614 688 614 744 q 585 601 614 650 q 507 499 556 553 q 401 390 458 444 q 288 288 344 336 q 183 201 231 239 q 110 140 136 163 q 150 122 124 135 q 207 94 176 108 q 263 71 238 81 q 301 61 289 61 q 356 76 331 61 q 403 110 382 90 q 438 145 424 129 q 458 163 453 161 q 466 160 461 164 q 469 149 471 156 q 427 100 453 128 q 370 46 401 72 q 307 1 339 19 q 247 -17 275 -17 z "},"3":{"ha":538,"x_min":-65,"x_max":599,"o":"m 63 -17 q -4 -10 31 -17 q -65 17 -39 -3 l -65 25 l -57 33 l -49 36 q -2 21 -29 26 q 47 15 25 15 q 160 44 101 15 q 268 122 218 74 q 349 226 318 169 q 381 339 381 283 q 352 404 381 383 q 285 425 324 425 q 235 419 261 425 q 186 406 210 413 l 176 410 l 175 422 l 181 431 q 272 472 218 446 q 379 535 326 499 q 467 615 432 571 q 501 711 501 660 q 449 761 501 761 q 376 740 413 761 q 308 691 339 719 q 254 636 276 663 l 247 636 l 238 646 l 238 653 q 308 726 269 692 q 394 783 347 761 q 493 806 440 806 q 567 786 535 806 q 599 721 599 767 q 566 626 599 668 q 484 551 533 583 q 382 494 435 518 q 288 456 329 471 q 374 444 329 456 q 449 406 418 433 q 479 328 479 378 q 440 203 479 264 q 336 92 400 142 q 200 13 272 42 q 63 -17 128 -17 z "},"4":{"ha":564,"x_min":28,"x_max":604,"o":"m 235 -11 l 229 -10 l 229 -4 q 242 24 229 -1 q 274 87 256 50 q 314 162 293 124 q 349 228 335 200 q 368 263 364 256 l 28 253 l 28 264 q 31 271 29 269 q 33 274 32 272 q 143 395 82 335 q 251 507 204 456 q 345 614 299 560 q 440 732 392 668 q 485 775 464 764 q 531 790 506 786 q 593 800 556 793 l 601 794 l 603 785 q 579 746 604 775 q 511 674 554 717 q 415 583 468 632 q 308 485 363 533 q 206 394 253 436 q 125 322 158 351 q 82 285 92 293 l 385 290 l 475 467 q 511 489 486 486 q 554 493 536 492 l 564 490 l 564 481 q 551 453 564 479 q 522 392 539 426 q 490 331 504 358 q 471 296 475 303 l 511 296 q 519 290 519 296 q 514 274 519 285 q 504 268 511 268 l 456 267 q 428 213 447 251 q 388 130 410 174 q 349 52 367 86 q 324 11 331 18 q 301 3 321 8 q 262 -7 282 -3 q 235 -11 242 -11 z "},"5":{"ha":517,"x_min":-76,"x_max":649,"o":"m 24 -18 q -27 -15 4 -18 q -75 -1 -58 -12 q -76 7 -76 1 q -73 15 -75 13 q -69 18 -71 17 q -62 21 -67 21 q -19 10 -42 14 q 25 7 4 7 q 147 40 83 7 q 263 126 210 74 q 350 242 317 179 q 383 363 383 304 q 359 429 383 406 q 292 453 335 453 q 197 424 242 453 q 107 374 151 396 q 100 376 103 374 q 100 385 97 379 q 119 425 103 394 q 159 498 135 456 q 210 587 183 540 q 260 674 236 633 q 302 741 285 714 q 324 772 319 768 q 358 781 339 779 q 397 783 376 783 q 463 780 429 783 q 531 776 497 776 q 592 782 563 776 q 643 806 621 788 l 649 804 q 594 731 631 756 q 510 697 557 706 q 414 688 463 688 q 356 690 385 688 q 303 693 328 692 l 150 425 q 240 469 190 451 q 336 488 290 488 q 436 458 394 488 q 478 367 478 429 q 435 226 478 294 q 325 102 393 157 q 178 15 257 47 q 24 -18 99 -18 z "},"6":{"ha":549,"x_min":14,"x_max":572,"o":"m 167 -17 q 56 23 97 -17 q 14 135 14 63 q 51 290 14 211 q 147 447 88 369 q 279 596 207 525 q 423 724 351 667 q 553 822 494 782 q 566 818 560 828 q 568 804 572 808 q 517 758 544 782 q 467 713 490 733 q 372 617 419 669 q 288 517 325 565 q 225 428 258 478 q 163 322 192 378 q 116 209 135 265 q 97 103 97 153 q 117 42 97 68 q 174 17 136 17 q 271 54 224 17 q 355 149 318 92 q 414 267 392 207 q 436 371 436 326 q 426 410 436 394 q 390 426 417 426 q 324 403 356 426 q 265 344 292 379 q 218 271 238 308 q 188 206 199 233 q 182 197 186 197 q 171 196 178 196 q 165 206 161 199 q 199 292 175 246 q 257 378 222 338 q 334 444 292 418 q 424 469 376 469 q 499 439 472 469 q 525 363 525 408 q 492 237 525 303 q 407 113 460 171 q 291 19 354 56 q 167 -17 228 -17 z "},"7":{"ha":482,"x_min":14,"x_max":643,"o":"m 25 -7 l 15 -4 l 14 1 q 41 53 14 13 q 112 151 68 93 q 210 276 156 208 q 319 410 264 343 q 424 537 375 478 q 507 638 472 596 q 553 693 542 679 q 328 697 443 697 q 259 682 282 697 q 225 647 236 667 q 206 612 214 628 q 183 596 199 596 l 179 597 l 178 607 q 210 702 194 667 q 249 756 226 738 q 308 781 271 775 q 408 788 346 788 q 507 785 457 788 q 608 775 557 782 q 621 785 613 778 q 635 793 629 793 q 643 783 643 790 q 640 775 643 781 q 613 733 621 746 q 597 709 604 719 q 573 677 589 699 q 524 611 557 656 q 429 485 490 567 q 308 304 368 403 q 192 119 249 206 q 178 98 189 115 q 156 60 168 81 q 135 23 144 39 q 124 6 125 7 q 77 -5 108 -4 q 25 -7 46 -6 z "},"8":{"ha":533,"x_min":-7,"x_max":617,"o":"m 151 -17 q 75 -1 111 -17 q 16 44 39 14 q -7 119 -7 75 q 23 219 -7 169 q 99 315 53 268 q 192 400 144 361 q 278 465 240 439 q 253 578 253 519 q 286 690 253 639 q 374 773 319 742 q 488 804 428 804 q 578 779 540 804 q 617 699 617 754 q 595 612 617 654 q 541 530 574 569 q 472 457 508 490 q 406 397 436 424 q 428 320 425 354 q 432 240 432 286 q 407 141 432 188 q 342 59 382 94 q 251 3 301 24 q 151 -17 201 -17 m 394 425 q 472 500 433 456 q 538 596 511 544 q 565 699 565 647 q 490 776 565 776 q 417 754 450 776 q 364 697 383 732 q 344 624 344 663 q 362 522 344 578 q 394 425 379 467 m 154 13 q 249 43 207 13 q 317 121 292 74 q 343 218 343 168 q 324 330 343 269 q 283 439 304 390 q 182 353 235 403 q 92 243 129 303 q 56 115 56 183 q 81 41 56 69 q 154 13 106 13 z "},"9":{"ha":558,"x_min":81,"x_max":615,"o":"m 89 -32 q 83 -18 81 -26 q 89 -11 85 -15 q 356 244 244 100 q 515 578 467 389 q 527 632 524 610 q 531 679 531 654 q 513 748 531 719 q 451 776 496 776 q 354 743 401 776 q 268 658 307 710 q 206 551 229 607 q 183 449 183 494 q 201 393 183 415 q 254 371 218 371 q 340 403 303 371 q 403 481 376 436 q 446 564 429 526 q 451 569 447 568 q 467 568 458 572 q 468 560 471 564 q 428 476 454 522 q 368 388 403 431 q 292 317 333 344 q 204 290 250 290 q 129 322 154 290 q 104 399 104 353 q 127 501 104 446 q 189 609 150 556 q 276 707 228 663 q 376 778 325 751 q 476 804 428 804 q 556 780 525 804 q 601 717 586 756 q 615 636 615 679 q 581 480 615 558 q 491 327 547 401 q 366 185 435 253 q 228 63 297 118 q 99 -32 158 8 q 89 -32 94 -35 z "},"A":{"ha":994,"x_min":25,"x_max":1200,"o":"m 757 -89 q 671 -41 696 -89 q 646 71 646 7 q 662 183 646 128 q 700 268 678 239 q 607 167 663 224 q 485 57 551 110 q 347 -31 418 4 q 207 -65 276 -65 q 70 -7 115 -65 q 25 153 25 51 q 52 323 25 232 q 132 508 79 414 q 188 599 157 554 q 256 685 219 644 q 172 731 213 706 q 107 793 132 757 q 82 879 82 829 q 94 927 82 906 q 119 949 106 949 q 132 933 132 949 q 126 913 132 924 q 119 879 119 894 q 146 809 119 842 q 210 753 172 776 q 279 715 247 729 q 474 895 368 813 q 703 1028 581 978 q 960 1078 825 1078 q 1136 1028 1072 1078 q 1200 901 1200 979 q 1160 783 1200 832 q 1057 701 1121 733 q 919 649 993 668 q 772 623 844 631 q 646 615 700 615 q 492 625 567 615 q 344 656 418 635 q 266 537 308 604 q 185 395 224 469 q 123 248 147 321 q 99 113 99 175 q 131 10 99 44 q 217 -24 163 -24 q 355 16 282 -24 q 501 119 428 56 q 642 258 575 183 q 761 407 708 333 q 844 538 814 481 q 890 601 868 582 q 928 619 913 619 q 951 608 943 619 q 960 576 960 596 q 925 499 960 538 q 833 367 878 444 q 761 206 789 290 q 733 49 733 122 q 749 -25 733 -3 q 792 -47 765 -47 q 873 -20 832 -47 q 951 53 914 7 q 1021 155 989 99 q 1076 268 1053 211 q 1088 267 1083 268 q 1093 256 1093 265 q 1037 135 1069 196 q 963 23 1004 74 q 869 -58 921 -28 q 757 -89 818 -89 m 633 649 q 757 655 689 649 q 892 678 825 661 q 1017 725 960 694 q 1108 803 1074 756 q 1143 918 1143 850 q 1092 1011 1143 979 q 964 1043 1042 1043 q 728 992 835 1043 q 534 860 622 942 q 367 683 446 778 q 492 657 428 665 q 633 649 557 649 z "},"Á":{"ha":994,"x_min":25,"x_max":1258,"o":"m 757 -89 q 671 -41 696 -89 q 646 71 646 7 q 662 183 646 128 q 700 268 678 239 q 607 167 663 224 q 485 57 551 110 q 347 -31 418 4 q 207 -65 276 -65 q 70 -7 115 -65 q 25 153 25 51 q 52 323 25 232 q 132 508 79 414 q 188 599 157 554 q 256 685 219 644 q 172 731 213 706 q 107 793 132 757 q 82 879 82 829 q 94 927 82 906 q 119 949 106 949 q 132 933 132 949 q 126 913 132 924 q 119 879 119 894 q 146 809 119 842 q 210 753 172 776 q 279 715 247 729 q 474 895 368 813 q 703 1028 581 978 q 960 1078 825 1078 q 1136 1028 1072 1078 q 1200 901 1200 979 q 1160 783 1200 832 q 1057 701 1121 733 q 919 649 993 668 q 772 623 844 631 q 646 615 700 615 q 492 625 567 615 q 344 656 418 635 q 266 537 308 604 q 185 395 224 469 q 123 248 147 321 q 99 113 99 175 q 131 10 99 44 q 217 -24 163 -24 q 355 16 282 -24 q 501 119 428 56 q 642 258 575 183 q 761 407 708 333 q 844 538 814 481 q 890 601 868 582 q 928 619 913 619 q 951 608 943 619 q 960 576 960 596 q 925 499 960 538 q 833 367 878 444 q 761 206 789 290 q 733 49 733 122 q 749 -25 733 -3 q 792 -47 765 -47 q 873 -20 832 -47 q 951 53 914 7 q 1021 155 989 99 q 1076 268 1053 211 q 1088 267 1083 268 q 1093 256 1093 265 q 1037 135 1069 196 q 963 23 1004 74 q 869 -58 921 -28 q 757 -89 818 -89 m 633 649 q 757 655 689 649 q 892 678 825 661 q 1017 725 960 694 q 1108 803 1074 756 q 1143 918 1143 850 q 1092 1011 1143 979 q 964 1043 1042 1043 q 728 992 835 1043 q 534 860 622 942 q 367 683 446 778 q 492 657 428 665 q 633 649 557 649 m 1036 1143 q 1019 1149 1026 1146 q 1011 1163 1011 1153 q 1121 1242 1065 1199 q 1226 1326 1176 1285 q 1248 1314 1238 1326 q 1256 1267 1258 1301 q 1212 1239 1242 1257 q 1147 1202 1182 1221 q 1083 1167 1113 1183 q 1036 1143 1053 1151 z "},"Ă":{"ha":994,"x_min":25,"x_max":1246,"o":"m 757 -89 q 671 -41 696 -89 q 646 71 646 7 q 662 183 646 128 q 700 268 678 239 q 607 167 663 224 q 485 57 551 110 q 347 -31 418 4 q 207 -65 276 -65 q 70 -7 115 -65 q 25 153 25 51 q 52 323 25 232 q 132 508 79 414 q 188 599 157 554 q 256 685 219 644 q 172 731 213 706 q 107 793 132 757 q 82 879 82 829 q 94 927 82 906 q 119 949 106 949 q 132 933 132 949 q 126 913 132 924 q 119 879 119 894 q 146 809 119 842 q 210 753 172 776 q 279 715 247 729 q 474 895 368 813 q 703 1028 581 978 q 960 1078 825 1078 q 1136 1028 1072 1078 q 1200 901 1200 979 q 1160 783 1200 832 q 1057 701 1121 733 q 919 649 993 668 q 772 623 844 631 q 646 615 700 615 q 492 625 567 615 q 344 656 418 635 q 266 537 308 604 q 185 395 224 469 q 123 248 147 321 q 99 113 99 175 q 131 10 99 44 q 217 -24 163 -24 q 355 16 282 -24 q 501 119 428 56 q 642 258 575 183 q 761 407 708 333 q 844 538 814 481 q 890 601 868 582 q 928 619 913 619 q 951 608 943 619 q 960 576 960 596 q 925 499 960 538 q 833 367 878 444 q 761 206 789 290 q 733 49 733 122 q 749 -25 733 -3 q 792 -47 765 -47 q 873 -20 832 -47 q 951 53 914 7 q 1021 155 989 99 q 1076 268 1053 211 q 1088 267 1083 268 q 1093 256 1093 265 q 1037 135 1069 196 q 963 23 1004 74 q 869 -58 921 -28 q 757 -89 818 -89 m 633 649 q 757 655 689 649 q 892 678 825 661 q 1017 725 960 694 q 1108 803 1074 756 q 1143 918 1143 850 q 1092 1011 1143 979 q 964 1043 1042 1043 q 728 992 835 1043 q 534 860 622 942 q 367 683 446 778 q 492 657 428 665 q 633 649 557 649 m 1071 1147 q 974 1178 1007 1147 q 942 1257 942 1208 q 953 1285 942 1278 q 971 1292 965 1292 q 999 1228 971 1253 q 1079 1204 1026 1204 q 1153 1222 1122 1204 q 1203 1260 1183 1239 q 1229 1294 1222 1282 q 1246 1281 1246 1294 q 1232 1249 1246 1272 q 1169 1176 1206 1206 q 1071 1147 1132 1147 z "},"Ắ":{"ha":994,"x_min":25,"x_max":1300,"o":"m 757 -89 q 671 -41 696 -89 q 646 71 646 7 q 662 183 646 128 q 700 268 678 239 q 607 167 663 224 q 485 57 551 110 q 347 -31 418 4 q 207 -65 276 -65 q 70 -7 115 -65 q 25 153 25 51 q 52 323 25 232 q 132 508 79 414 q 188 599 157 554 q 256 685 219 644 q 172 731 213 706 q 107 793 132 757 q 82 879 82 829 q 94 927 82 906 q 119 949 106 949 q 132 933 132 949 q 126 913 132 924 q 119 879 119 894 q 146 809 119 842 q 210 753 172 776 q 279 715 247 729 q 474 895 368 813 q 703 1028 581 978 q 960 1078 825 1078 q 1136 1028 1072 1078 q 1200 901 1200 979 q 1160 783 1200 832 q 1057 701 1121 733 q 919 649 993 668 q 772 623 844 631 q 646 615 700 615 q 492 625 567 615 q 344 656 418 635 q 266 537 308 604 q 185 395 224 469 q 123 248 147 321 q 99 113 99 175 q 131 10 99 44 q 217 -24 163 -24 q 355 16 282 -24 q 501 119 428 56 q 642 258 575 183 q 761 407 708 333 q 844 538 814 481 q 890 601 868 582 q 928 619 913 619 q 951 608 943 619 q 960 576 960 596 q 925 499 960 538 q 833 367 878 444 q 761 206 789 290 q 733 49 733 122 q 749 -25 733 -3 q 792 -47 765 -47 q 873 -20 832 -47 q 951 53 914 7 q 1021 155 989 99 q 1076 268 1053 211 q 1088 267 1083 268 q 1093 256 1093 265 q 1037 135 1069 196 q 963 23 1004 74 q 869 -58 921 -28 q 757 -89 818 -89 m 633 649 q 757 655 689 649 q 892 678 825 661 q 1017 725 960 694 q 1108 803 1074 756 q 1143 918 1143 850 q 1092 1011 1143 979 q 964 1043 1042 1043 q 728 992 835 1043 q 534 860 622 942 q 367 683 446 778 q 492 657 428 665 q 633 649 557 649 m 1115 1299 q 1098 1306 1106 1301 q 1092 1319 1090 1310 q 1193 1389 1151 1358 q 1269 1446 1235 1419 q 1290 1435 1281 1446 q 1294 1390 1300 1425 q 1242 1361 1275 1378 q 1174 1328 1208 1344 q 1115 1299 1140 1311 m 1104 1147 q 1008 1178 1040 1147 q 975 1257 975 1208 q 987 1285 975 1278 q 1004 1292 999 1292 q 1032 1228 1004 1253 q 1113 1204 1060 1204 q 1186 1222 1156 1204 q 1236 1260 1217 1239 q 1263 1294 1256 1282 q 1279 1281 1279 1294 q 1265 1249 1279 1272 q 1202 1176 1239 1206 q 1104 1147 1165 1147 z "},"Ặ":{"ha":994,"x_min":25,"x_max":1246,"o":"m 757 -89 q 671 -41 696 -89 q 646 71 646 7 q 662 183 646 128 q 700 268 678 239 q 607 167 663 224 q 485 57 551 110 q 347 -31 418 4 q 207 -65 276 -65 q 70 -7 115 -65 q 25 153 25 51 q 52 323 25 232 q 132 508 79 414 q 188 599 157 554 q 256 685 219 644 q 172 731 213 706 q 107 793 132 757 q 82 879 82 829 q 94 927 82 906 q 119 949 106 949 q 132 933 132 949 q 126 913 132 924 q 119 879 119 894 q 146 809 119 842 q 210 753 172 776 q 279 715 247 729 q 474 895 368 813 q 703 1028 581 978 q 960 1078 825 1078 q 1136 1028 1072 1078 q 1200 901 1200 979 q 1160 783 1200 832 q 1057 701 1121 733 q 919 649 993 668 q 772 623 844 631 q 646 615 700 615 q 492 625 567 615 q 344 656 418 635 q 266 537 308 604 q 185 395 224 469 q 123 248 147 321 q 99 113 99 175 q 131 10 99 44 q 217 -24 163 -24 q 355 16 282 -24 q 501 119 428 56 q 642 258 575 183 q 761 407 708 333 q 844 538 814 481 q 890 601 868 582 q 928 619 913 619 q 951 608 943 619 q 960 576 960 596 q 925 499 960 538 q 833 367 878 444 q 761 206 789 290 q 733 49 733 122 q 749 -25 733 -3 q 792 -47 765 -47 q 873 -20 832 -47 q 951 53 914 7 q 1021 155 989 99 q 1076 268 1053 211 q 1088 267 1083 268 q 1093 256 1093 265 q 1037 135 1069 196 q 963 23 1004 74 q 869 -58 921 -28 q 757 -89 818 -89 m 633 649 q 757 655 689 649 q 892 678 825 661 q 1017 725 960 694 q 1108 803 1074 756 q 1143 918 1143 850 q 1092 1011 1143 979 q 964 1043 1042 1043 q 728 992 835 1043 q 534 860 622 942 q 367 683 446 778 q 492 657 428 665 q 633 649 557 649 m 156 -233 q 126 -220 138 -233 q 114 -189 114 -207 q 132 -149 114 -165 q 172 -132 150 -132 q 204 -144 192 -132 q 217 -174 217 -156 q 199 -215 217 -196 q 156 -233 181 -233 m 1071 1147 q 974 1178 1007 1147 q 942 1257 942 1208 q 953 1285 942 1278 q 971 1292 965 1292 q 999 1228 971 1253 q 1079 1204 1026 1204 q 1153 1222 1122 1204 q 1203 1260 1183 1239 q 1229 1294 1222 1282 q 1246 1281 1246 1294 q 1232 1249 1246 1272 q 1169 1176 1206 1206 q 1071 1147 1132 1147 z "},"Ằ":{"ha":994,"x_min":25,"x_max":1279,"o":"m 757 -89 q 671 -41 696 -89 q 646 71 646 7 q 662 183 646 128 q 700 268 678 239 q 607 167 663 224 q 485 57 551 110 q 347 -31 418 4 q 207 -65 276 -65 q 70 -7 115 -65 q 25 153 25 51 q 52 323 25 232 q 132 508 79 414 q 188 599 157 554 q 256 685 219 644 q 172 731 213 706 q 107 793 132 757 q 82 879 82 829 q 94 927 82 906 q 119 949 106 949 q 132 933 132 949 q 126 913 132 924 q 119 879 119 894 q 146 809 119 842 q 210 753 172 776 q 279 715 247 729 q 474 895 368 813 q 703 1028 581 978 q 960 1078 825 1078 q 1136 1028 1072 1078 q 1200 901 1200 979 q 1160 783 1200 832 q 1057 701 1121 733 q 919 649 993 668 q 772 623 844 631 q 646 615 700 615 q 492 625 567 615 q 344 656 418 635 q 266 537 308 604 q 185 395 224 469 q 123 248 147 321 q 99 113 99 175 q 131 10 99 44 q 217 -24 163 -24 q 355 16 282 -24 q 501 119 428 56 q 642 258 575 183 q 761 407 708 333 q 844 538 814 481 q 890 601 868 582 q 928 619 913 619 q 951 608 943 619 q 960 576 960 596 q 925 499 960 538 q 833 367 878 444 q 761 206 789 290 q 733 49 733 122 q 749 -25 733 -3 q 792 -47 765 -47 q 873 -20 832 -47 q 951 53 914 7 q 1021 155 989 99 q 1076 268 1053 211 q 1088 267 1083 268 q 1093 256 1093 265 q 1037 135 1069 196 q 963 23 1004 74 q 869 -58 921 -28 q 757 -89 818 -89 m 633 649 q 757 655 689 649 q 892 678 825 661 q 1017 725 960 694 q 1108 803 1074 756 q 1143 918 1143 850 q 1092 1011 1143 979 q 964 1043 1042 1043 q 728 992 835 1043 q 534 860 622 942 q 367 683 446 778 q 492 657 428 665 q 633 649 557 649 m 1147 1299 q 1089 1328 1124 1311 q 1022 1361 1054 1344 q 968 1390 989 1378 q 973 1435 963 1425 q 993 1446 983 1446 q 1070 1389 1029 1419 q 1171 1319 1111 1358 q 1165 1306 1172 1310 q 1147 1299 1158 1301 m 1104 1147 q 1008 1178 1040 1147 q 975 1257 975 1208 q 987 1285 975 1278 q 1004 1292 999 1292 q 1032 1228 1004 1253 q 1113 1204 1060 1204 q 1186 1222 1156 1204 q 1236 1260 1217 1239 q 1263 1294 1256 1282 q 1279 1281 1279 1294 q 1265 1249 1279 1272 q 1202 1176 1239 1206 q 1104 1147 1165 1147 z "},"Ẳ":{"ha":994,"x_min":25,"x_max":1272,"o":"m 757 -89 q 671 -41 696 -89 q 646 71 646 7 q 662 183 646 128 q 700 268 678 239 q 607 167 663 224 q 485 57 551 110 q 347 -31 418 4 q 207 -65 276 -65 q 70 -7 115 -65 q 25 153 25 51 q 52 323 25 232 q 132 508 79 414 q 188 599 157 554 q 256 685 219 644 q 172 731 213 706 q 107 793 132 757 q 82 879 82 829 q 94 927 82 906 q 119 949 106 949 q 132 933 132 949 q 126 913 132 924 q 119 879 119 894 q 146 809 119 842 q 210 753 172 776 q 279 715 247 729 q 474 895 368 813 q 703 1028 581 978 q 960 1078 825 1078 q 1136 1028 1072 1078 q 1200 901 1200 979 q 1160 783 1200 832 q 1057 701 1121 733 q 919 649 993 668 q 772 623 844 631 q 646 615 700 615 q 492 625 567 615 q 344 656 418 635 q 266 537 308 604 q 185 395 224 469 q 123 248 147 321 q 99 113 99 175 q 131 10 99 44 q 217 -24 163 -24 q 355 16 282 -24 q 501 119 428 56 q 642 258 575 183 q 761 407 708 333 q 844 538 814 481 q 890 601 868 582 q 928 619 913 619 q 951 608 943 619 q 960 576 960 596 q 925 499 960 538 q 833 367 878 444 q 761 206 789 290 q 733 49 733 122 q 749 -25 733 -3 q 792 -47 765 -47 q 873 -20 832 -47 q 951 53 914 7 q 1021 155 989 99 q 1076 268 1053 211 q 1088 267 1083 268 q 1093 256 1093 265 q 1037 135 1069 196 q 963 23 1004 74 q 869 -58 921 -28 q 757 -89 818 -89 m 633 649 q 757 655 689 649 q 892 678 825 661 q 1017 725 960 694 q 1108 803 1074 756 q 1143 918 1143 850 q 1092 1011 1143 979 q 964 1043 1042 1043 q 728 992 835 1043 q 534 860 622 942 q 367 683 446 778 q 492 657 428 665 q 633 649 557 649 m 1107 1304 q 1123 1344 1107 1326 q 1155 1382 1139 1363 q 1171 1425 1171 1401 q 1160 1447 1171 1436 q 1129 1457 1150 1457 q 1099 1451 1113 1457 q 1071 1438 1086 1446 q 1088 1478 1061 1460 q 1117 1495 1096 1485 q 1169 1506 1139 1506 q 1216 1492 1197 1506 q 1235 1451 1235 1479 q 1219 1403 1235 1425 q 1183 1363 1204 1381 q 1147 1331 1163 1346 q 1132 1304 1132 1317 q 1107 1304 1119 1299 m 1097 1147 q 1001 1178 1033 1147 q 968 1257 968 1208 q 980 1285 968 1278 q 997 1292 992 1292 q 1025 1228 997 1253 q 1106 1204 1053 1204 q 1179 1222 1149 1204 q 1229 1260 1210 1239 q 1256 1294 1249 1282 q 1272 1281 1272 1294 q 1258 1249 1272 1272 q 1195 1176 1232 1206 q 1097 1147 1158 1147 z "},"Ẵ":{"ha":994,"x_min":25,"x_max":1299,"o":"m 757 -89 q 671 -41 696 -89 q 646 71 646 7 q 662 183 646 128 q 700 268 678 239 q 607 167 663 224 q 485 57 551 110 q 347 -31 418 4 q 207 -65 276 -65 q 70 -7 115 -65 q 25 153 25 51 q 52 323 25 232 q 132 508 79 414 q 188 599 157 554 q 256 685 219 644 q 172 731 213 706 q 107 793 132 757 q 82 879 82 829 q 94 927 82 906 q 119 949 106 949 q 132 933 132 949 q 126 913 132 924 q 119 879 119 894 q 146 809 119 842 q 210 753 172 776 q 279 715 247 729 q 474 895 368 813 q 703 1028 581 978 q 960 1078 825 1078 q 1136 1028 1072 1078 q 1200 901 1200 979 q 1160 783 1200 832 q 1057 701 1121 733 q 919 649 993 668 q 772 623 844 631 q 646 615 700 615 q 492 625 567 615 q 344 656 418 635 q 266 537 308 604 q 185 395 224 469 q 123 248 147 321 q 99 113 99 175 q 131 10 99 44 q 217 -24 163 -24 q 355 16 282 -24 q 501 119 428 56 q 642 258 575 183 q 761 407 708 333 q 844 538 814 481 q 890 601 868 582 q 928 619 913 619 q 951 608 943 619 q 960 576 960 596 q 925 499 960 538 q 833 367 878 444 q 761 206 789 290 q 733 49 733 122 q 749 -25 733 -3 q 792 -47 765 -47 q 873 -20 832 -47 q 951 53 914 7 q 1021 155 989 99 q 1076 268 1053 211 q 1088 267 1083 268 q 1093 256 1093 265 q 1037 135 1069 196 q 963 23 1004 74 q 869 -58 921 -28 q 757 -89 818 -89 m 633 649 q 757 655 689 649 q 892 678 825 661 q 1017 725 960 694 q 1108 803 1074 756 q 1143 918 1143 850 q 1092 1011 1143 979 q 964 1043 1042 1043 q 728 992 835 1043 q 534 860 622 942 q 367 683 446 778 q 492 657 428 665 q 633 649 557 649 m 1200 1332 q 1151 1342 1176 1332 q 1104 1363 1126 1353 q 1065 1374 1082 1374 q 1035 1364 1047 1374 q 1014 1340 1022 1354 q 1006 1336 1013 1336 q 992 1343 989 1336 q 1029 1398 1006 1369 q 1086 1426 1053 1426 q 1135 1416 1113 1426 q 1179 1395 1157 1406 q 1225 1385 1201 1385 q 1256 1396 1244 1385 q 1275 1425 1267 1407 q 1283 1429 1278 1429 q 1296 1422 1299 1429 q 1259 1363 1283 1393 q 1200 1332 1235 1332 m 1097 1147 q 1001 1178 1033 1147 q 968 1257 968 1208 q 980 1285 968 1278 q 997 1292 992 1292 q 1025 1228 997 1253 q 1106 1204 1053 1204 q 1179 1222 1149 1204 q 1229 1260 1210 1239 q 1256 1294 1249 1282 q 1272 1281 1272 1294 q 1258 1249 1272 1272 q 1195 1176 1232 1206 q 1097 1147 1158 1147 z "},"Ǎ":{"ha":994,"x_min":25,"x_max":1329,"o":"m 757 -89 q 671 -41 696 -89 q 646 71 646 7 q 662 183 646 128 q 700 268 678 239 q 607 167 663 224 q 485 57 551 110 q 347 -31 418 4 q 207 -65 276 -65 q 70 -7 115 -65 q 25 153 25 51 q 52 323 25 232 q 132 508 79 414 q 188 599 157 554 q 256 685 219 644 q 172 731 213 706 q 107 793 132 757 q 82 879 82 829 q 94 927 82 906 q 119 949 106 949 q 132 933 132 949 q 126 913 132 924 q 119 879 119 894 q 146 809 119 842 q 210 753 172 776 q 279 715 247 729 q 474 895 368 813 q 703 1028 581 978 q 960 1078 825 1078 q 1136 1028 1072 1078 q 1200 901 1200 979 q 1160 783 1200 832 q 1057 701 1121 733 q 919 649 993 668 q 772 623 844 631 q 646 615 700 615 q 492 625 567 615 q 344 656 418 635 q 266 537 308 604 q 185 395 224 469 q 123 248 147 321 q 99 113 99 175 q 131 10 99 44 q 217 -24 163 -24 q 355 16 282 -24 q 501 119 428 56 q 642 258 575 183 q 761 407 708 333 q 844 538 814 481 q 890 601 868 582 q 928 619 913 619 q 951 608 943 619 q 960 576 960 596 q 925 499 960 538 q 833 367 878 444 q 761 206 789 290 q 733 49 733 122 q 749 -25 733 -3 q 792 -47 765 -47 q 873 -20 832 -47 q 951 53 914 7 q 1021 155 989 99 q 1076 268 1053 211 q 1088 267 1083 268 q 1093 256 1093 265 q 1037 135 1069 196 q 963 23 1004 74 q 869 -58 921 -28 q 757 -89 818 -89 m 633 649 q 757 655 689 649 q 892 678 825 661 q 1017 725 960 694 q 1108 803 1074 756 q 1143 918 1143 850 q 1092 1011 1143 979 q 964 1043 1042 1043 q 728 992 835 1043 q 534 860 622 942 q 367 683 446 778 q 492 657 428 665 q 633 649 557 649 m 1085 1160 q 1053 1179 1061 1160 l 1003 1297 q 999 1306 1001 1300 q 996 1314 996 1313 q 1007 1319 996 1319 q 1032 1310 1022 1319 l 1108 1228 l 1272 1308 q 1314 1319 1294 1319 q 1329 1314 1329 1319 q 1324 1309 1329 1313 q 1317 1303 1319 1306 l 1132 1174 q 1085 1160 1111 1160 z "},"Â":{"ha":994,"x_min":25,"x_max":1247,"o":"m 757 -89 q 671 -41 696 -89 q 646 71 646 7 q 662 183 646 128 q 700 268 678 239 q 607 167 663 224 q 485 57 551 110 q 347 -31 418 4 q 207 -65 276 -65 q 70 -7 115 -65 q 25 153 25 51 q 52 323 25 232 q 132 508 79 414 q 188 599 157 554 q 256 685 219 644 q 172 731 213 706 q 107 793 132 757 q 82 879 82 829 q 94 927 82 906 q 119 949 106 949 q 132 933 132 949 q 126 913 132 924 q 119 879 119 894 q 146 809 119 842 q 210 753 172 776 q 279 715 247 729 q 474 895 368 813 q 703 1028 581 978 q 960 1078 825 1078 q 1136 1028 1072 1078 q 1200 901 1200 979 q 1160 783 1200 832 q 1057 701 1121 733 q 919 649 993 668 q 772 623 844 631 q 646 615 700 615 q 492 625 567 615 q 344 656 418 635 q 266 537 308 604 q 185 395 224 469 q 123 248 147 321 q 99 113 99 175 q 131 10 99 44 q 217 -24 163 -24 q 355 16 282 -24 q 501 119 428 56 q 642 258 575 183 q 761 407 708 333 q 844 538 814 481 q 890 601 868 582 q 928 619 913 619 q 951 608 943 619 q 960 576 960 596 q 925 499 960 538 q 833 367 878 444 q 761 206 789 290 q 733 49 733 122 q 749 -25 733 -3 q 792 -47 765 -47 q 873 -20 832 -47 q 951 53 914 7 q 1021 155 989 99 q 1076 268 1053 211 q 1088 267 1083 268 q 1093 256 1093 265 q 1037 135 1069 196 q 963 23 1004 74 q 869 -58 921 -28 q 757 -89 818 -89 m 633 649 q 757 655 689 649 q 892 678 825 661 q 1017 725 960 694 q 1108 803 1074 756 q 1143 918 1143 850 q 1092 1011 1143 979 q 964 1043 1042 1043 q 728 992 835 1043 q 534 860 622 942 q 367 683 446 778 q 492 657 428 665 q 633 649 557 649 m 1160 1319 q 1185 1314 1179 1319 l 1246 1169 q 1247 1167 1246 1168 q 1247 1167 1247 1167 q 1236 1163 1247 1163 q 1223 1165 1231 1163 q 1213 1169 1215 1167 l 1135 1249 l 960 1169 q 929 1161 950 1161 q 917 1164 922 1161 q 915 1169 911 1167 l 1121 1314 q 1137 1318 1128 1317 q 1160 1319 1146 1319 z "},"Ấ":{"ha":994,"x_min":25,"x_max":1460,"o":"m 757 -89 q 671 -41 696 -89 q 646 71 646 7 q 662 183 646 128 q 700 268 678 239 q 607 167 663 224 q 485 57 551 110 q 347 -31 418 4 q 207 -65 276 -65 q 70 -7 115 -65 q 25 153 25 51 q 52 323 25 232 q 132 508 79 414 q 188 599 157 554 q 256 685 219 644 q 172 731 213 706 q 107 793 132 757 q 82 879 82 829 q 94 927 82 906 q 119 949 106 949 q 132 933 132 949 q 126 913 132 924 q 119 879 119 894 q 146 809 119 842 q 210 753 172 776 q 279 715 247 729 q 474 895 368 813 q 703 1028 581 978 q 960 1078 825 1078 q 1136 1028 1072 1078 q 1200 901 1200 979 q 1160 783 1200 832 q 1057 701 1121 733 q 919 649 993 668 q 772 623 844 631 q 646 615 700 615 q 492 625 567 615 q 344 656 418 635 q 266 537 308 604 q 185 395 224 469 q 123 248 147 321 q 99 113 99 175 q 131 10 99 44 q 217 -24 163 -24 q 355 16 282 -24 q 501 119 428 56 q 642 258 575 183 q 761 407 708 333 q 844 538 814 481 q 890 601 868 582 q 928 619 913 619 q 951 608 943 619 q 960 576 960 596 q 925 499 960 538 q 833 367 878 444 q 761 206 789 290 q 733 49 733 122 q 749 -25 733 -3 q 792 -47 765 -47 q 873 -20 832 -47 q 951 53 914 7 q 1021 155 989 99 q 1076 268 1053 211 q 1088 267 1083 268 q 1093 256 1093 265 q 1037 135 1069 196 q 963 23 1004 74 q 869 -58 921 -28 q 757 -89 818 -89 m 633 649 q 757 655 689 649 q 892 678 825 661 q 1017 725 960 694 q 1108 803 1074 756 q 1143 918 1143 850 q 1092 1011 1143 979 q 964 1043 1042 1043 q 728 992 835 1043 q 534 860 622 942 q 367 683 446 778 q 492 657 428 665 q 633 649 557 649 m 1279 1272 q 1262 1279 1269 1275 q 1256 1293 1254 1283 q 1319 1334 1293 1315 q 1369 1373 1344 1353 q 1429 1418 1394 1393 q 1450 1404 1440 1417 q 1454 1357 1460 1392 q 1401 1328 1435 1344 q 1335 1297 1368 1311 q 1279 1272 1301 1282 m 1160 1322 q 1185 1317 1179 1322 l 1246 1172 q 1247 1170 1246 1171 q 1247 1169 1247 1169 q 1236 1165 1247 1165 q 1223 1167 1231 1165 q 1213 1172 1215 1169 l 1135 1251 l 960 1172 q 929 1164 950 1164 q 917 1167 922 1164 q 915 1172 911 1169 l 1121 1317 q 1137 1321 1128 1319 q 1160 1322 1146 1322 z "},"Ậ":{"ha":994,"x_min":25,"x_max":1247,"o":"m 757 -89 q 671 -41 696 -89 q 646 71 646 7 q 662 183 646 128 q 700 268 678 239 q 607 167 663 224 q 485 57 551 110 q 347 -31 418 4 q 207 -65 276 -65 q 70 -7 115 -65 q 25 153 25 51 q 52 323 25 232 q 132 508 79 414 q 188 599 157 554 q 256 685 219 644 q 172 731 213 706 q 107 793 132 757 q 82 879 82 829 q 94 927 82 906 q 119 949 106 949 q 132 933 132 949 q 126 913 132 924 q 119 879 119 894 q 146 809 119 842 q 210 753 172 776 q 279 715 247 729 q 474 895 368 813 q 703 1028 581 978 q 960 1078 825 1078 q 1136 1028 1072 1078 q 1200 901 1200 979 q 1160 783 1200 832 q 1057 701 1121 733 q 919 649 993 668 q 772 623 844 631 q 646 615 700 615 q 492 625 567 615 q 344 656 418 635 q 266 537 308 604 q 185 395 224 469 q 123 248 147 321 q 99 113 99 175 q 131 10 99 44 q 217 -24 163 -24 q 355 16 282 -24 q 501 119 428 56 q 642 258 575 183 q 761 407 708 333 q 844 538 814 481 q 890 601 868 582 q 928 619 913 619 q 951 608 943 619 q 960 576 960 596 q 925 499 960 538 q 833 367 878 444 q 761 206 789 290 q 733 49 733 122 q 749 -25 733 -3 q 792 -47 765 -47 q 873 -20 832 -47 q 951 53 914 7 q 1021 155 989 99 q 1076 268 1053 211 q 1088 267 1083 268 q 1093 256 1093 265 q 1037 135 1069 196 q 963 23 1004 74 q 869 -58 921 -28 q 757 -89 818 -89 m 633 649 q 757 655 689 649 q 892 678 825 661 q 1017 725 960 694 q 1108 803 1074 756 q 1143 918 1143 850 q 1092 1011 1143 979 q 964 1043 1042 1043 q 728 992 835 1043 q 534 860 622 942 q 367 683 446 778 q 492 657 428 665 q 633 649 557 649 m 156 -233 q 126 -220 138 -233 q 114 -189 114 -207 q 132 -149 114 -165 q 172 -132 150 -132 q 204 -144 192 -132 q 217 -174 217 -156 q 199 -215 217 -196 q 156 -233 181 -233 m 1160 1319 q 1185 1314 1179 1319 l 1246 1169 q 1247 1167 1246 1168 q 1247 1167 1247 1167 q 1236 1163 1247 1163 q 1223 1165 1231 1163 q 1213 1169 1215 1167 l 1135 1249 l 960 1169 q 929 1161 950 1161 q 917 1164 922 1161 q 915 1169 911 1167 l 1121 1314 q 1137 1318 1128 1317 q 1160 1319 1146 1319 z "},"Ầ":{"ha":994,"x_min":25,"x_max":1382,"o":"m 757 -89 q 671 -41 696 -89 q 646 71 646 7 q 662 183 646 128 q 700 268 678 239 q 607 167 663 224 q 485 57 551 110 q 347 -31 418 4 q 207 -65 276 -65 q 70 -7 115 -65 q 25 153 25 51 q 52 323 25 232 q 132 508 79 414 q 188 599 157 554 q 256 685 219 644 q 172 731 213 706 q 107 793 132 757 q 82 879 82 829 q 94 927 82 906 q 119 949 106 949 q 132 933 132 949 q 126 913 132 924 q 119 879 119 894 q 146 809 119 842 q 210 753 172 776 q 279 715 247 729 q 474 895 368 813 q 703 1028 581 978 q 960 1078 825 1078 q 1136 1028 1072 1078 q 1200 901 1200 979 q 1160 783 1200 832 q 1057 701 1121 733 q 919 649 993 668 q 772 623 844 631 q 646 615 700 615 q 492 625 567 615 q 344 656 418 635 q 266 537 308 604 q 185 395 224 469 q 123 248 147 321 q 99 113 99 175 q 131 10 99 44 q 217 -24 163 -24 q 355 16 282 -24 q 501 119 428 56 q 642 258 575 183 q 761 407 708 333 q 844 538 814 481 q 890 601 868 582 q 928 619 913 619 q 951 608 943 619 q 960 576 960 596 q 925 499 960 538 q 833 367 878 444 q 761 206 789 290 q 733 49 733 122 q 749 -25 733 -3 q 792 -47 765 -47 q 873 -20 832 -47 q 951 53 914 7 q 1021 155 989 99 q 1076 268 1053 211 q 1088 267 1083 268 q 1093 256 1093 265 q 1037 135 1069 196 q 963 23 1004 74 q 869 -58 921 -28 q 757 -89 818 -89 m 633 649 q 757 655 689 649 q 892 678 825 661 q 1017 725 960 694 q 1108 803 1074 756 q 1143 918 1143 850 q 1092 1011 1143 979 q 964 1043 1042 1043 q 728 992 835 1043 q 534 860 622 942 q 367 683 446 778 q 492 657 428 665 q 633 649 557 649 m 1350 1217 q 1308 1266 1335 1236 q 1257 1326 1282 1296 q 1219 1376 1232 1357 q 1245 1415 1231 1408 q 1269 1418 1260 1422 q 1322 1321 1297 1361 q 1382 1224 1347 1281 q 1350 1217 1375 1210 m 1160 1319 q 1185 1314 1179 1319 l 1246 1169 q 1247 1167 1246 1168 q 1247 1167 1247 1167 q 1236 1163 1247 1163 q 1223 1165 1231 1163 q 1213 1169 1215 1167 l 1135 1249 l 960 1169 q 929 1161 950 1161 q 917 1164 922 1161 q 915 1169 911 1167 l 1121 1314 q 1137 1318 1128 1317 q 1160 1319 1146 1319 z "},"Ẩ":{"ha":994,"x_min":25,"x_max":1372,"o":"m 757 -89 q 671 -41 696 -89 q 646 71 646 7 q 662 183 646 128 q 700 268 678 239 q 607 167 663 224 q 485 57 551 110 q 347 -31 418 4 q 207 -65 276 -65 q 70 -7 115 -65 q 25 153 25 51 q 52 323 25 232 q 132 508 79 414 q 188 599 157 554 q 256 685 219 644 q 172 731 213 706 q 107 793 132 757 q 82 879 82 829 q 94 927 82 906 q 119 949 106 949 q 132 933 132 949 q 126 913 132 924 q 119 879 119 894 q 146 809 119 842 q 210 753 172 776 q 279 715 247 729 q 474 895 368 813 q 703 1028 581 978 q 960 1078 825 1078 q 1136 1028 1072 1078 q 1200 901 1200 979 q 1160 783 1200 832 q 1057 701 1121 733 q 919 649 993 668 q 772 623 844 631 q 646 615 700 615 q 492 625 567 615 q 344 656 418 635 q 266 537 308 604 q 185 395 224 469 q 123 248 147 321 q 99 113 99 175 q 131 10 99 44 q 217 -24 163 -24 q 355 16 282 -24 q 501 119 428 56 q 642 258 575 183 q 761 407 708 333 q 844 538 814 481 q 890 601 868 582 q 928 619 913 619 q 951 608 943 619 q 960 576 960 596 q 925 499 960 538 q 833 367 878 444 q 761 206 789 290 q 733 49 733 122 q 749 -25 733 -3 q 792 -47 765 -47 q 873 -20 832 -47 q 951 53 914 7 q 1021 155 989 99 q 1076 268 1053 211 q 1088 267 1083 268 q 1093 256 1093 265 q 1037 135 1069 196 q 963 23 1004 74 q 869 -58 921 -28 q 757 -89 818 -89 m 633 649 q 757 655 689 649 q 892 678 825 661 q 1017 725 960 694 q 1108 803 1074 756 q 1143 918 1143 850 q 1092 1011 1143 979 q 964 1043 1042 1043 q 728 992 835 1043 q 534 860 622 942 q 367 683 446 778 q 492 657 428 665 q 633 649 557 649 m 1160 1319 q 1185 1314 1179 1319 l 1246 1169 q 1247 1167 1246 1168 q 1247 1167 1247 1167 q 1236 1163 1247 1163 q 1223 1165 1231 1163 q 1213 1169 1215 1167 l 1135 1249 l 960 1169 q 929 1161 950 1161 q 917 1164 922 1161 q 915 1169 911 1167 l 1121 1314 q 1137 1318 1128 1317 q 1160 1319 1146 1319 m 1244 1269 q 1260 1310 1244 1292 q 1292 1347 1276 1328 q 1308 1390 1308 1367 q 1298 1412 1308 1401 q 1267 1422 1288 1422 q 1237 1417 1250 1422 q 1208 1403 1224 1411 q 1225 1443 1199 1425 q 1255 1460 1233 1450 q 1307 1471 1276 1471 q 1353 1458 1335 1471 q 1372 1417 1372 1444 q 1357 1368 1372 1390 q 1321 1328 1342 1346 q 1285 1297 1300 1311 q 1269 1269 1269 1282 q 1244 1269 1257 1264 z "},"Ẫ":{"ha":994,"x_min":25,"x_max":1349,"o":"m 757 -89 q 671 -41 696 -89 q 646 71 646 7 q 662 183 646 128 q 700 268 678 239 q 607 167 663 224 q 485 57 551 110 q 347 -31 418 4 q 207 -65 276 -65 q 70 -7 115 -65 q 25 153 25 51 q 52 323 25 232 q 132 508 79 414 q 188 599 157 554 q 256 685 219 644 q 172 731 213 706 q 107 793 132 757 q 82 879 82 829 q 94 927 82 906 q 119 949 106 949 q 132 933 132 949 q 126 913 132 924 q 119 879 119 894 q 146 809 119 842 q 210 753 172 776 q 279 715 247 729 q 474 895 368 813 q 703 1028 581 978 q 960 1078 825 1078 q 1136 1028 1072 1078 q 1200 901 1200 979 q 1160 783 1200 832 q 1057 701 1121 733 q 919 649 993 668 q 772 623 844 631 q 646 615 700 615 q 492 625 567 615 q 344 656 418 635 q 266 537 308 604 q 185 395 224 469 q 123 248 147 321 q 99 113 99 175 q 131 10 99 44 q 217 -24 163 -24 q 355 16 282 -24 q 501 119 428 56 q 642 258 575 183 q 761 407 708 333 q 844 538 814 481 q 890 601 868 582 q 928 619 913 619 q 951 608 943 619 q 960 576 960 596 q 925 499 960 538 q 833 367 878 444 q 761 206 789 290 q 733 49 733 122 q 749 -25 733 -3 q 792 -47 765 -47 q 873 -20 832 -47 q 951 53 914 7 q 1021 155 989 99 q 1076 268 1053 211 q 1088 267 1083 268 q 1093 256 1093 265 q 1037 135 1069 196 q 963 23 1004 74 q 869 -58 921 -28 q 757 -89 818 -89 m 633 649 q 757 655 689 649 q 892 678 825 661 q 1017 725 960 694 q 1108 803 1074 756 q 1143 918 1143 850 q 1092 1011 1143 979 q 964 1043 1042 1043 q 728 992 835 1043 q 534 860 622 942 q 367 683 446 778 q 492 657 428 665 q 633 649 557 649 m 1250 1347 q 1201 1358 1226 1347 q 1154 1378 1176 1368 q 1115 1389 1132 1389 q 1085 1379 1097 1389 q 1064 1356 1072 1369 q 1056 1351 1063 1351 q 1042 1358 1039 1351 q 1079 1413 1056 1385 q 1136 1442 1103 1442 q 1185 1431 1163 1442 q 1229 1410 1207 1421 q 1275 1400 1251 1400 q 1306 1411 1294 1400 q 1325 1440 1317 1422 q 1333 1444 1328 1444 q 1346 1438 1349 1444 q 1309 1378 1333 1408 q 1250 1347 1285 1347 m 1160 1319 q 1185 1314 1179 1319 l 1246 1169 q 1247 1167 1246 1168 q 1247 1167 1247 1167 q 1236 1163 1247 1163 q 1223 1165 1231 1163 q 1213 1169 1215 1167 l 1135 1249 l 960 1169 q 929 1161 950 1161 q 917 1164 922 1161 q 915 1169 911 1167 l 1121 1314 q 1137 1318 1128 1317 q 1160 1319 1146 1319 z "},"Ȁ":{"ha":994,"x_min":25,"x_max":1200,"o":"m 757 -89 q 671 -41 696 -89 q 646 71 646 7 q 662 183 646 128 q 700 268 678 239 q 607 167 663 224 q 485 57 551 110 q 347 -31 418 4 q 207 -65 276 -65 q 70 -7 115 -65 q 25 153 25 51 q 52 323 25 232 q 132 508 79 414 q 188 599 157 554 q 256 685 219 644 q 172 731 213 706 q 107 793 132 757 q 82 879 82 829 q 94 927 82 906 q 119 949 106 949 q 132 933 132 949 q 126 913 132 924 q 119 879 119 894 q 146 809 119 842 q 210 753 172 776 q 279 715 247 729 q 474 895 368 813 q 703 1028 581 978 q 960 1078 825 1078 q 1136 1028 1072 1078 q 1200 901 1200 979 q 1160 783 1200 832 q 1057 701 1121 733 q 919 649 993 668 q 772 623 844 631 q 646 615 700 615 q 492 625 567 615 q 344 656 418 635 q 266 537 308 604 q 185 395 224 469 q 123 248 147 321 q 99 113 99 175 q 131 10 99 44 q 217 -24 163 -24 q 355 16 282 -24 q 501 119 428 56 q 642 258 575 183 q 761 407 708 333 q 844 538 814 481 q 890 601 868 582 q 928 619 913 619 q 951 608 943 619 q 960 576 960 596 q 925 499 960 538 q 833 367 878 444 q 761 206 789 290 q 733 49 733 122 q 749 -25 733 -3 q 792 -47 765 -47 q 873 -20 832 -47 q 951 53 914 7 q 1021 155 989 99 q 1076 268 1053 211 q 1088 267 1083 268 q 1093 256 1093 265 q 1037 135 1069 196 q 963 23 1004 74 q 869 -58 921 -28 q 757 -89 818 -89 m 633 649 q 757 655 689 649 q 892 678 825 661 q 1017 725 960 694 q 1108 803 1074 756 q 1143 918 1143 850 q 1092 1011 1143 979 q 964 1043 1042 1043 q 728 992 835 1043 q 534 860 622 942 q 367 683 446 778 q 492 657 428 665 q 633 649 557 649 m 1135 1179 q 1096 1217 1118 1190 q 1053 1274 1074 1244 q 1021 1318 1033 1303 q 1036 1364 1024 1353 q 1058 1374 1049 1375 l 1160 1189 q 1151 1180 1158 1182 q 1135 1179 1144 1178 m 1026 1174 q 978 1207 1008 1183 q 921 1256 949 1231 q 879 1296 893 1282 q 890 1342 879 1331 q 911 1354 901 1354 l 1050 1186 q 1043 1176 1050 1179 q 1026 1174 1036 1174 z "},"Ä":{"ha":994,"x_min":25,"x_max":1222,"o":"m 757 -89 q 671 -41 696 -89 q 646 71 646 7 q 662 183 646 128 q 700 268 678 239 q 607 167 663 224 q 485 57 551 110 q 347 -31 418 4 q 207 -65 276 -65 q 70 -7 115 -65 q 25 153 25 51 q 52 323 25 232 q 132 508 79 414 q 188 599 157 554 q 256 685 219 644 q 172 731 213 706 q 107 793 132 757 q 82 879 82 829 q 94 927 82 906 q 119 949 106 949 q 132 933 132 949 q 126 913 132 924 q 119 879 119 894 q 146 809 119 842 q 210 753 172 776 q 279 715 247 729 q 474 895 368 813 q 703 1028 581 978 q 960 1078 825 1078 q 1136 1028 1072 1078 q 1200 901 1200 979 q 1160 783 1200 832 q 1057 701 1121 733 q 919 649 993 668 q 772 623 844 631 q 646 615 700 615 q 492 625 567 615 q 344 656 418 635 q 266 537 308 604 q 185 395 224 469 q 123 248 147 321 q 99 113 99 175 q 131 10 99 44 q 217 -24 163 -24 q 355 16 282 -24 q 501 119 428 56 q 642 258 575 183 q 761 407 708 333 q 844 538 814 481 q 890 601 868 582 q 928 619 913 619 q 951 608 943 619 q 960 576 960 596 q 925 499 960 538 q 833 367 878 444 q 761 206 789 290 q 733 49 733 122 q 749 -25 733 -3 q 792 -47 765 -47 q 873 -20 832 -47 q 951 53 914 7 q 1021 155 989 99 q 1076 268 1053 211 q 1088 267 1083 268 q 1093 256 1093 265 q 1037 135 1069 196 q 963 23 1004 74 q 869 -58 921 -28 q 757 -89 818 -89 m 633 649 q 757 655 689 649 q 892 678 825 661 q 1017 725 960 694 q 1108 803 1074 756 q 1143 918 1143 850 q 1092 1011 1143 979 q 964 1043 1042 1043 q 728 992 835 1043 q 534 860 622 942 q 367 683 446 778 q 492 657 428 665 q 633 649 557 649 m 1158 1151 q 1128 1165 1140 1151 q 1115 1197 1115 1179 q 1135 1239 1115 1221 q 1176 1257 1154 1257 q 1209 1244 1196 1257 q 1222 1214 1222 1232 q 1203 1171 1222 1190 q 1158 1151 1185 1151 m 996 1151 q 965 1165 978 1151 q 953 1197 953 1179 q 972 1239 953 1221 q 1014 1257 992 1257 q 1047 1244 1033 1257 q 1060 1214 1060 1232 q 1041 1171 1060 1190 q 996 1151 1022 1151 z "},"Ǟ":{"ha":994,"x_min":25,"x_max":1301,"o":"m 757 -89 q 671 -41 696 -89 q 646 71 646 7 q 662 183 646 128 q 700 268 678 239 q 607 167 663 224 q 485 57 551 110 q 347 -31 418 4 q 207 -65 276 -65 q 70 -7 115 -65 q 25 153 25 51 q 52 323 25 232 q 132 508 79 414 q 188 599 157 554 q 256 685 219 644 q 172 731 213 706 q 107 793 132 757 q 82 879 82 829 q 94 927 82 906 q 119 949 106 949 q 132 933 132 949 q 126 913 132 924 q 119 879 119 894 q 146 809 119 842 q 210 753 172 776 q 279 715 247 729 q 474 895 368 813 q 703 1028 581 978 q 960 1078 825 1078 q 1136 1028 1072 1078 q 1200 901 1200 979 q 1160 783 1200 832 q 1057 701 1121 733 q 919 649 993 668 q 772 623 844 631 q 646 615 700 615 q 492 625 567 615 q 344 656 418 635 q 266 537 308 604 q 185 395 224 469 q 123 248 147 321 q 99 113 99 175 q 131 10 99 44 q 217 -24 163 -24 q 355 16 282 -24 q 501 119 428 56 q 642 258 575 183 q 761 407 708 333 q 844 538 814 481 q 890 601 868 582 q 928 619 913 619 q 951 608 943 619 q 960 576 960 596 q 925 499 960 538 q 833 367 878 444 q 761 206 789 290 q 733 49 733 122 q 749 -25 733 -3 q 792 -47 765 -47 q 873 -20 832 -47 q 951 53 914 7 q 1021 155 989 99 q 1076 268 1053 211 q 1088 267 1083 268 q 1093 256 1093 265 q 1037 135 1069 196 q 963 23 1004 74 q 869 -58 921 -28 q 757 -89 818 -89 m 633 649 q 757 655 689 649 q 892 678 825 661 q 1017 725 960 694 q 1108 803 1074 756 q 1143 918 1143 850 q 1092 1011 1143 979 q 964 1043 1042 1043 q 728 992 835 1043 q 534 860 622 942 q 367 683 446 778 q 492 657 428 665 q 633 649 557 649 m 1158 1151 q 1128 1165 1140 1151 q 1115 1197 1115 1179 q 1135 1239 1115 1221 q 1176 1257 1154 1257 q 1209 1244 1196 1257 q 1222 1214 1222 1232 q 1203 1171 1222 1190 q 1158 1151 1185 1151 m 996 1151 q 965 1165 978 1151 q 953 1197 953 1179 q 972 1239 953 1221 q 1014 1257 992 1257 q 1047 1244 1033 1257 q 1060 1214 1060 1232 q 1041 1171 1060 1190 q 996 1151 1022 1151 m 971 1317 q 981 1340 971 1328 q 1010 1360 992 1353 l 1301 1365 q 1293 1341 1301 1358 q 1264 1317 1285 1324 l 971 1317 z "},"Ȧ":{"ha":994,"x_min":25,"x_max":1200,"o":"m 757 -89 q 671 -41 696 -89 q 646 71 646 7 q 662 183 646 128 q 700 268 678 239 q 607 167 663 224 q 485 57 551 110 q 347 -31 418 4 q 207 -65 276 -65 q 70 -7 115 -65 q 25 153 25 51 q 52 323 25 232 q 132 508 79 414 q 188 599 157 554 q 256 685 219 644 q 172 731 213 706 q 107 793 132 757 q 82 879 82 829 q 94 927 82 906 q 119 949 106 949 q 132 933 132 949 q 126 913 132 924 q 119 879 119 894 q 146 809 119 842 q 210 753 172 776 q 279 715 247 729 q 474 895 368 813 q 703 1028 581 978 q 960 1078 825 1078 q 1136 1028 1072 1078 q 1200 901 1200 979 q 1160 783 1200 832 q 1057 701 1121 733 q 919 649 993 668 q 772 623 844 631 q 646 615 700 615 q 492 625 567 615 q 344 656 418 635 q 266 537 308 604 q 185 395 224 469 q 123 248 147 321 q 99 113 99 175 q 131 10 99 44 q 217 -24 163 -24 q 355 16 282 -24 q 501 119 428 56 q 642 258 575 183 q 761 407 708 333 q 844 538 814 481 q 890 601 868 582 q 928 619 913 619 q 951 608 943 619 q 960 576 960 596 q 925 499 960 538 q 833 367 878 444 q 761 206 789 290 q 733 49 733 122 q 749 -25 733 -3 q 792 -47 765 -47 q 873 -20 832 -47 q 951 53 914 7 q 1021 155 989 99 q 1076 268 1053 211 q 1088 267 1083 268 q 1093 256 1093 265 q 1037 135 1069 196 q 963 23 1004 74 q 869 -58 921 -28 q 757 -89 818 -89 m 633 649 q 757 655 689 649 q 892 678 825 661 q 1017 725 960 694 q 1108 803 1074 756 q 1143 918 1143 850 q 1092 1011 1143 979 q 964 1043 1042 1043 q 728 992 835 1043 q 534 860 622 942 q 367 683 446 778 q 492 657 428 665 q 633 649 557 649 m 1090 1153 q 1059 1167 1072 1153 q 1046 1200 1046 1181 q 1065 1242 1046 1224 q 1108 1261 1085 1261 q 1142 1249 1128 1261 q 1156 1217 1156 1236 q 1136 1172 1156 1192 q 1090 1153 1117 1153 z "},"Ạ":{"ha":994,"x_min":25,"x_max":1200,"o":"m 757 -89 q 671 -41 696 -89 q 646 71 646 7 q 662 183 646 128 q 700 268 678 239 q 607 167 663 224 q 485 57 551 110 q 347 -31 418 4 q 207 -65 276 -65 q 70 -7 115 -65 q 25 153 25 51 q 52 323 25 232 q 132 508 79 414 q 188 599 157 554 q 256 685 219 644 q 172 731 213 706 q 107 793 132 757 q 82 879 82 829 q 94 927 82 906 q 119 949 106 949 q 132 933 132 949 q 126 913 132 924 q 119 879 119 894 q 146 809 119 842 q 210 753 172 776 q 279 715 247 729 q 474 895 368 813 q 703 1028 581 978 q 960 1078 825 1078 q 1136 1028 1072 1078 q 1200 901 1200 979 q 1160 783 1200 832 q 1057 701 1121 733 q 919 649 993 668 q 772 623 844 631 q 646 615 700 615 q 492 625 567 615 q 344 656 418 635 q 266 537 308 604 q 185 395 224 469 q 123 248 147 321 q 99 113 99 175 q 131 10 99 44 q 217 -24 163 -24 q 355 16 282 -24 q 501 119 428 56 q 642 258 575 183 q 761 407 708 333 q 844 538 814 481 q 890 601 868 582 q 928 619 913 619 q 951 608 943 619 q 960 576 960 596 q 925 499 960 538 q 833 367 878 444 q 761 206 789 290 q 733 49 733 122 q 749 -25 733 -3 q 792 -47 765 -47 q 873 -20 832 -47 q 951 53 914 7 q 1021 155 989 99 q 1076 268 1053 211 q 1088 267 1083 268 q 1093 256 1093 265 q 1037 135 1069 196 q 963 23 1004 74 q 869 -58 921 -28 q 757 -89 818 -89 m 633 649 q 757 655 689 649 q 892 678 825 661 q 1017 725 960 694 q 1108 803 1074 756 q 1143 918 1143 850 q 1092 1011 1143 979 q 964 1043 1042 1043 q 728 992 835 1043 q 534 860 622 942 q 367 683 446 778 q 492 657 428 665 q 633 649 557 649 m 156 -233 q 126 -220 138 -233 q 114 -189 114 -207 q 132 -149 114 -165 q 172 -132 150 -132 q 204 -144 192 -132 q 217 -174 217 -156 q 199 -215 217 -196 q 156 -233 181 -233 z "},"Ǡ":{"ha":994,"x_min":25,"x_max":1321,"o":"m 757 -89 q 671 -41 696 -89 q 646 71 646 7 q 662 183 646 128 q 700 268 678 239 q 607 167 663 224 q 485 57 551 110 q 347 -31 418 4 q 207 -65 276 -65 q 70 -7 115 -65 q 25 153 25 51 q 52 323 25 232 q 132 508 79 414 q 188 599 157 554 q 256 685 219 644 q 172 731 213 706 q 107 793 132 757 q 82 879 82 829 q 94 927 82 906 q 119 949 106 949 q 132 933 132 949 q 126 913 132 924 q 119 879 119 894 q 146 809 119 842 q 210 753 172 776 q 279 715 247 729 q 474 895 368 813 q 703 1028 581 978 q 960 1078 825 1078 q 1136 1028 1072 1078 q 1200 901 1200 979 q 1160 783 1200 832 q 1057 701 1121 733 q 919 649 993 668 q 772 623 844 631 q 646 615 700 615 q 492 625 567 615 q 344 656 418 635 q 266 537 308 604 q 185 395 224 469 q 123 248 147 321 q 99 113 99 175 q 131 10 99 44 q 217 -24 163 -24 q 355 16 282 -24 q 501 119 428 56 q 642 258 575 183 q 761 407 708 333 q 844 538 814 481 q 890 601 868 582 q 928 619 913 619 q 951 608 943 619 q 960 576 960 596 q 925 499 960 538 q 833 367 878 444 q 761 206 789 290 q 733 49 733 122 q 749 -25 733 -3 q 792 -47 765 -47 q 873 -20 832 -47 q 951 53 914 7 q 1021 155 989 99 q 1076 268 1053 211 q 1088 267 1083 268 q 1093 256 1093 265 q 1037 135 1069 196 q 963 23 1004 74 q 869 -58 921 -28 q 757 -89 818 -89 m 633 649 q 757 655 689 649 q 892 678 825 661 q 1017 725 960 694 q 1108 803 1074 756 q 1143 918 1143 850 q 1092 1011 1143 979 q 964 1043 1042 1043 q 728 992 835 1043 q 534 860 622 942 q 367 683 446 778 q 492 657 428 665 q 633 649 557 649 m 1090 1153 q 1059 1167 1072 1153 q 1046 1200 1046 1181 q 1065 1242 1046 1224 q 1108 1261 1085 1261 q 1142 1249 1128 1261 q 1156 1217 1156 1236 q 1136 1172 1156 1192 q 1090 1153 1117 1153 m 990 1317 q 1001 1340 990 1328 q 1029 1360 1011 1353 l 1321 1365 q 1313 1341 1321 1358 q 1283 1317 1304 1324 l 990 1317 z "},"À":{"ha":994,"x_min":25,"x_max":1200,"o":"m 757 -89 q 671 -41 696 -89 q 646 71 646 7 q 662 183 646 128 q 700 268 678 239 q 607 167 663 224 q 485 57 551 110 q 347 -31 418 4 q 207 -65 276 -65 q 70 -7 115 -65 q 25 153 25 51 q 52 323 25 232 q 132 508 79 414 q 188 599 157 554 q 256 685 219 644 q 172 731 213 706 q 107 793 132 757 q 82 879 82 829 q 94 927 82 906 q 119 949 106 949 q 132 933 132 949 q 126 913 132 924 q 119 879 119 894 q 146 809 119 842 q 210 753 172 776 q 279 715 247 729 q 474 895 368 813 q 703 1028 581 978 q 960 1078 825 1078 q 1136 1028 1072 1078 q 1200 901 1200 979 q 1160 783 1200 832 q 1057 701 1121 733 q 919 649 993 668 q 772 623 844 631 q 646 615 700 615 q 492 625 567 615 q 344 656 418 635 q 266 537 308 604 q 185 395 224 469 q 123 248 147 321 q 99 113 99 175 q 131 10 99 44 q 217 -24 163 -24 q 355 16 282 -24 q 501 119 428 56 q 642 258 575 183 q 761 407 708 333 q 844 538 814 481 q 890 601 868 582 q 928 619 913 619 q 951 608 943 619 q 960 576 960 596 q 925 499 960 538 q 833 367 878 444 q 761 206 789 290 q 733 49 733 122 q 749 -25 733 -3 q 792 -47 765 -47 q 873 -20 832 -47 q 951 53 914 7 q 1021 155 989 99 q 1076 268 1053 211 q 1088 267 1083 268 q 1093 256 1093 265 q 1037 135 1069 196 q 963 23 1004 74 q 869 -58 921 -28 q 757 -89 818 -89 m 633 649 q 757 655 689 649 q 892 678 825 661 q 1017 725 960 694 q 1108 803 1074 756 q 1143 918 1143 850 q 1092 1011 1143 979 q 964 1043 1042 1043 q 728 992 835 1043 q 534 860 622 942 q 367 683 446 778 q 492 657 428 665 q 633 649 557 649 m 1086 1126 q 1044 1173 1072 1142 q 992 1236 1017 1204 q 958 1286 967 1268 q 982 1324 969 1318 q 1004 1326 994 1331 l 1110 1129 q 1101 1124 1108 1124 q 1086 1126 1094 1125 z "},"Ả":{"ha":994,"x_min":25,"x_max":1200,"o":"m 757 -89 q 671 -41 696 -89 q 646 71 646 7 q 662 183 646 128 q 700 268 678 239 q 607 167 663 224 q 485 57 551 110 q 347 -31 418 4 q 207 -65 276 -65 q 70 -7 115 -65 q 25 153 25 51 q 52 323 25 232 q 132 508 79 414 q 188 599 157 554 q 256 685 219 644 q 172 731 213 706 q 107 793 132 757 q 82 879 82 829 q 94 927 82 906 q 119 949 106 949 q 132 933 132 949 q 126 913 132 924 q 119 879 119 894 q 146 809 119 842 q 210 753 172 776 q 279 715 247 729 q 474 895 368 813 q 703 1028 581 978 q 960 1078 825 1078 q 1136 1028 1072 1078 q 1200 901 1200 979 q 1160 783 1200 832 q 1057 701 1121 733 q 919 649 993 668 q 772 623 844 631 q 646 615 700 615 q 492 625 567 615 q 344 656 418 635 q 266 537 308 604 q 185 395 224 469 q 123 248 147 321 q 99 113 99 175 q 131 10 99 44 q 217 -24 163 -24 q 355 16 282 -24 q 501 119 428 56 q 642 258 575 183 q 761 407 708 333 q 844 538 814 481 q 890 601 868 582 q 928 619 913 619 q 951 608 943 619 q 960 576 960 596 q 925 499 960 538 q 833 367 878 444 q 761 206 789 290 q 733 49 733 122 q 749 -25 733 -3 q 792 -47 765 -47 q 873 -20 832 -47 q 951 53 914 7 q 1021 155 989 99 q 1076 268 1053 211 q 1088 267 1083 268 q 1093 256 1093 265 q 1037 135 1069 196 q 963 23 1004 74 q 869 -58 921 -28 q 757 -89 818 -89 m 633 649 q 757 655 689 649 q 892 678 825 661 q 1017 725 960 694 q 1108 803 1074 756 q 1143 918 1143 850 q 1092 1011 1143 979 q 964 1043 1042 1043 q 728 992 835 1043 q 534 860 622 942 q 367 683 446 778 q 492 657 428 665 q 633 649 557 649 m 1061 1158 q 1077 1199 1061 1181 q 1109 1236 1093 1217 q 1125 1279 1125 1256 q 1115 1301 1125 1290 q 1083 1311 1104 1311 q 1053 1306 1067 1311 q 1025 1292 1040 1300 q 1042 1332 1015 1314 q 1072 1349 1050 1339 q 1124 1360 1093 1360 q 1170 1347 1151 1360 q 1189 1306 1189 1333 q 1174 1257 1189 1279 q 1138 1217 1158 1235 q 1101 1185 1117 1200 q 1086 1158 1086 1171 q 1061 1158 1074 1153 z "},"Ȃ":{"ha":994,"x_min":25,"x_max":1229,"o":"m 757 -89 q 671 -41 696 -89 q 646 71 646 7 q 662 183 646 128 q 700 268 678 239 q 607 167 663 224 q 485 57 551 110 q 347 -31 418 4 q 207 -65 276 -65 q 70 -7 115 -65 q 25 153 25 51 q 52 323 25 232 q 132 508 79 414 q 188 599 157 554 q 256 685 219 644 q 172 731 213 706 q 107 793 132 757 q 82 879 82 829 q 94 927 82 906 q 119 949 106 949 q 132 933 132 949 q 126 913 132 924 q 119 879 119 894 q 146 809 119 842 q 210 753 172 776 q 279 715 247 729 q 474 895 368 813 q 703 1028 581 978 q 960 1078 825 1078 q 1136 1028 1072 1078 q 1200 901 1200 979 q 1160 783 1200 832 q 1057 701 1121 733 q 919 649 993 668 q 772 623 844 631 q 646 615 700 615 q 492 625 567 615 q 344 656 418 635 q 266 537 308 604 q 185 395 224 469 q 123 248 147 321 q 99 113 99 175 q 131 10 99 44 q 217 -24 163 -24 q 355 16 282 -24 q 501 119 428 56 q 642 258 575 183 q 761 407 708 333 q 844 538 814 481 q 890 601 868 582 q 928 619 913 619 q 951 608 943 619 q 960 576 960 596 q 925 499 960 538 q 833 367 878 444 q 761 206 789 290 q 733 49 733 122 q 749 -25 733 -3 q 792 -47 765 -47 q 873 -20 832 -47 q 951 53 914 7 q 1021 155 989 99 q 1076 268 1053 211 q 1088 267 1083 268 q 1093 256 1093 265 q 1037 135 1069 196 q 963 23 1004 74 q 869 -58 921 -28 q 757 -89 818 -89 m 633 649 q 757 655 689 649 q 892 678 825 661 q 1017 725 960 694 q 1108 803 1074 756 q 1143 918 1143 850 q 1092 1011 1143 979 q 964 1043 1042 1043 q 728 992 835 1043 q 534 860 622 942 q 367 683 446 778 q 492 657 428 665 q 633 649 557 649 m 942 1151 q 925 1167 925 1154 q 939 1197 925 1175 q 1010 1269 967 1242 q 1111 1293 1054 1296 q 1197 1261 1164 1292 q 1229 1179 1229 1231 q 1218 1152 1229 1158 q 1200 1146 1207 1146 q 1172 1211 1200 1186 q 1092 1238 1144 1236 q 1019 1222 1050 1239 q 968 1185 988 1206 q 942 1151 949 1164 z "},"Ɑ":{"ha":1072,"x_min":25,"x_max":1293,"o":"m 207 -65 q 70 -7 115 -65 q 25 153 25 51 q 63 360 25 253 q 169 571 101 467 q 326 766 236 675 q 520 927 415 857 q 737 1038 625 997 q 960 1078 849 1078 q 1078 1059 1028 1078 q 1158 1008 1128 1040 q 1204 1044 1185 1039 q 1255 1059 1235 1056 q 1285 1063 1275 1063 q 1293 1060 1293 1063 q 1274 1046 1293 1056 q 1217 981 1251 1035 q 1140 850 1182 928 q 1054 688 1099 772 q 969 528 1010 603 q 872 327 907 413 q 822 182 836 242 q 808 81 808 122 q 819 22 808 50 q 861 -6 831 -6 q 904 11 883 -6 q 972 80 940 38 q 1030 170 1003 122 q 1079 263 1057 218 q 1099 282 1089 282 q 1106 272 1106 282 q 1100 253 1106 264 q 1047 147 1071 192 q 997 66 1024 103 q 931 -10 971 29 q 881 -44 910 -29 q 822 -58 853 -58 q 746 -25 775 -58 q 717 74 717 8 q 732 183 717 113 q 782 332 747 254 q 568 115 665 204 q 383 -19 471 26 q 207 -65 294 -65 m 217 -24 q 337 7 269 -24 q 478 99 404 38 q 613 217 546 154 q 737 344 679 279 q 833 467 794 408 q 919 609 875 533 q 1005 758 964 685 q 1078 891 1046 832 q 1126 981 1110 950 q 964 1043 1082 1043 q 729 992 835 1043 q 535 858 624 940 q 367 683 447 776 q 300 594 336 649 q 228 476 264 540 q 164 346 193 413 q 117 219 135 279 q 99 113 99 158 q 131 10 99 44 q 217 -24 163 -24 z "},"Ā":{"ha":994,"x_min":25,"x_max":1249,"o":"m 757 -89 q 671 -41 696 -89 q 646 71 646 7 q 662 183 646 128 q 700 268 678 239 q 607 167 663 224 q 485 57 551 110 q 347 -31 418 4 q 207 -65 276 -65 q 70 -7 115 -65 q 25 153 25 51 q 52 323 25 232 q 132 508 79 414 q 188 599 157 554 q 256 685 219 644 q 172 731 213 706 q 107 793 132 757 q 82 879 82 829 q 94 927 82 906 q 119 949 106 949 q 132 933 132 949 q 126 913 132 924 q 119 879 119 894 q 146 809 119 842 q 210 753 172 776 q 279 715 247 729 q 474 895 368 813 q 703 1028 581 978 q 960 1078 825 1078 q 1136 1028 1072 1078 q 1200 901 1200 979 q 1160 783 1200 832 q 1057 701 1121 733 q 919 649 993 668 q 772 623 844 631 q 646 615 700 615 q 492 625 567 615 q 344 656 418 635 q 266 537 308 604 q 185 395 224 469 q 123 248 147 321 q 99 113 99 175 q 131 10 99 44 q 217 -24 163 -24 q 355 16 282 -24 q 501 119 428 56 q 642 258 575 183 q 761 407 708 333 q 844 538 814 481 q 890 601 868 582 q 928 619 913 619 q 951 608 943 619 q 960 576 960 596 q 925 499 960 538 q 833 367 878 444 q 761 206 789 290 q 733 49 733 122 q 749 -25 733 -3 q 792 -47 765 -47 q 873 -20 832 -47 q 951 53 914 7 q 1021 155 989 99 q 1076 268 1053 211 q 1088 267 1083 268 q 1093 256 1093 265 q 1037 135 1069 196 q 963 23 1004 74 q 869 -58 921 -28 q 757 -89 818 -89 m 633 649 q 757 655 689 649 q 892 678 825 661 q 1017 725 960 694 q 1108 803 1074 756 q 1143 918 1143 850 q 1092 1011 1143 979 q 964 1043 1042 1043 q 728 992 835 1043 q 534 860 622 942 q 367 683 446 778 q 492 657 428 665 q 633 649 557 649 m 918 1174 q 928 1197 918 1185 q 957 1217 939 1210 l 1249 1222 q 1240 1198 1249 1215 q 1211 1174 1232 1181 l 918 1174 z "},"Ą":{"ha":994,"x_min":25,"x_max":1200,"o":"m 757 -89 q 671 -41 696 -89 q 646 71 646 7 q 662 183 646 128 q 700 268 678 239 q 607 167 663 224 q 485 57 551 110 q 347 -31 418 4 q 207 -65 276 -65 q 70 -7 115 -65 q 25 153 25 51 q 52 323 25 232 q 132 508 79 414 q 188 599 157 554 q 256 685 219 644 q 172 731 213 706 q 107 793 132 757 q 82 879 82 829 q 94 927 82 906 q 119 949 106 949 q 132 933 132 949 q 126 913 132 924 q 119 879 119 894 q 146 809 119 842 q 210 753 172 776 q 279 715 247 729 q 474 895 368 813 q 703 1028 581 978 q 960 1078 825 1078 q 1136 1028 1072 1078 q 1200 901 1200 979 q 1160 783 1200 832 q 1057 701 1121 733 q 919 649 993 668 q 772 623 844 631 q 646 615 700 615 q 492 625 567 615 q 344 656 418 635 q 266 537 308 604 q 185 395 224 469 q 123 248 147 321 q 99 113 99 175 q 131 10 99 44 q 217 -24 163 -24 q 355 16 282 -24 q 501 119 428 56 q 642 258 575 183 q 761 407 708 333 q 844 538 814 481 q 890 601 868 582 q 928 619 913 619 q 951 608 943 619 q 960 576 960 596 q 925 499 960 538 q 833 367 878 444 q 761 206 789 290 q 733 49 733 122 q 749 -25 733 -3 q 792 -47 765 -47 q 873 -20 832 -47 q 951 53 914 7 q 1021 155 989 99 q 1076 268 1053 211 q 1088 267 1083 268 q 1093 256 1093 265 q 1037 135 1069 196 q 963 23 1004 74 q 869 -58 921 -28 q 757 -89 818 -89 m 633 649 q 757 655 689 649 q 892 678 825 661 q 1017 725 960 694 q 1108 803 1074 756 q 1143 918 1143 850 q 1092 1011 1143 979 q 964 1043 1042 1043 q 728 992 835 1043 q 534 860 622 942 q 367 683 446 778 q 492 657 428 665 q 633 649 557 649 m 647 -336 q 601 -322 621 -336 q 581 -274 581 -307 q 612 -183 581 -224 q 685 -114 643 -143 q 763 -69 728 -85 q 771 -85 771 -69 q 683 -170 715 -128 q 651 -249 651 -212 q 659 -281 651 -267 q 692 -296 667 -296 q 730 -281 711 -296 q 763 -253 749 -267 q 771 -252 765 -251 q 776 -260 776 -253 q 731 -311 763 -286 q 647 -336 700 -336 z "},"Å":{"ha":994,"x_min":25,"x_max":1254,"o":"m 757 -89 q 671 -41 696 -89 q 646 71 646 7 q 662 183 646 128 q 700 268 678 239 q 607 167 663 224 q 485 57 551 110 q 347 -31 418 4 q 207 -65 276 -65 q 70 -7 115 -65 q 25 153 25 51 q 52 323 25 232 q 132 508 79 414 q 188 599 157 554 q 256 685 219 644 q 172 731 213 706 q 107 793 132 757 q 82 879 82 829 q 94 927 82 906 q 119 949 106 949 q 132 933 132 949 q 126 913 132 924 q 119 879 119 894 q 146 809 119 842 q 210 753 172 776 q 279 715 247 729 q 474 895 368 813 q 703 1028 581 978 q 960 1078 825 1078 q 1136 1028 1072 1078 q 1200 901 1200 979 q 1160 783 1200 832 q 1057 701 1121 733 q 919 649 993 668 q 772 623 844 631 q 646 615 700 615 q 492 625 567 615 q 344 656 418 635 q 266 537 308 604 q 185 395 224 469 q 123 248 147 321 q 99 113 99 175 q 131 10 99 44 q 217 -24 163 -24 q 355 16 282 -24 q 501 119 428 56 q 642 258 575 183 q 761 407 708 333 q 844 538 814 481 q 890 601 868 582 q 928 619 913 619 q 951 608 943 619 q 960 576 960 596 q 925 499 960 538 q 833 367 878 444 q 761 206 789 290 q 733 49 733 122 q 749 -25 733 -3 q 792 -47 765 -47 q 873 -20 832 -47 q 951 53 914 7 q 1021 155 989 99 q 1076 268 1053 211 q 1088 267 1083 268 q 1093 256 1093 265 q 1037 135 1069 196 q 963 23 1004 74 q 869 -58 921 -28 q 757 -89 818 -89 m 633 649 q 757 655 689 649 q 892 678 825 661 q 1017 725 960 694 q 1108 803 1074 756 q 1143 918 1143 850 q 1092 1011 1143 979 q 964 1043 1042 1043 q 728 992 835 1043 q 534 860 622 942 q 367 683 446 778 q 492 657 428 665 q 633 649 557 649 m 1079 1164 q 1011 1185 1040 1164 q 986 1247 982 1206 q 1018 1316 990 1288 q 1084 1360 1046 1344 q 1158 1375 1122 1375 q 1226 1356 1199 1375 q 1250 1292 1254 1336 q 1219 1225 1246 1254 q 1156 1180 1193 1196 q 1079 1164 1118 1164 m 1097 1189 q 1155 1217 1125 1189 q 1189 1285 1185 1244 q 1178 1335 1192 1319 q 1143 1350 1165 1350 q 1083 1324 1114 1350 q 1047 1254 1053 1299 q 1060 1206 1044 1224 q 1097 1189 1075 1189 z "},"Ǻ":{"ha":994,"x_min":25,"x_max":1400,"o":"m 757 -89 q 671 -41 696 -89 q 646 71 646 7 q 662 183 646 128 q 700 268 678 239 q 607 167 663 224 q 485 57 551 110 q 347 -31 418 4 q 207 -65 276 -65 q 70 -7 115 -65 q 25 153 25 51 q 52 323 25 232 q 132 508 79 414 q 188 599 157 554 q 256 685 219 644 q 172 731 213 706 q 107 793 132 757 q 82 879 82 829 q 94 927 82 906 q 119 949 106 949 q 132 933 132 949 q 126 913 132 924 q 119 879 119 894 q 146 809 119 842 q 210 753 172 776 q 279 715 247 729 q 474 895 368 813 q 703 1028 581 978 q 960 1078 825 1078 q 1136 1028 1072 1078 q 1200 901 1200 979 q 1160 783 1200 832 q 1057 701 1121 733 q 919 649 993 668 q 772 623 844 631 q 646 615 700 615 q 492 625 567 615 q 344 656 418 635 q 266 537 308 604 q 185 395 224 469 q 123 248 147 321 q 99 113 99 175 q 131 10 99 44 q 217 -24 163 -24 q 355 16 282 -24 q 501 119 428 56 q 642 258 575 183 q 761 407 708 333 q 844 538 814 481 q 890 601 868 582 q 928 619 913 619 q 951 608 943 619 q 960 576 960 596 q 925 499 960 538 q 833 367 878 444 q 761 206 789 290 q 733 49 733 122 q 749 -25 733 -3 q 792 -47 765 -47 q 873 -20 832 -47 q 951 53 914 7 q 1021 155 989 99 q 1076 268 1053 211 q 1088 267 1083 268 q 1093 256 1093 265 q 1037 135 1069 196 q 963 23 1004 74 q 869 -58 921 -28 q 757 -89 818 -89 m 633 649 q 757 655 689 649 q 892 678 825 661 q 1017 725 960 694 q 1108 803 1074 756 q 1143 918 1143 850 q 1092 1011 1143 979 q 964 1043 1042 1043 q 728 992 835 1043 q 534 860 622 942 q 367 683 446 778 q 492 657 428 665 q 633 649 557 649 m 1079 1164 q 1011 1185 1040 1164 q 986 1247 982 1206 q 1018 1316 990 1288 q 1084 1360 1046 1344 q 1158 1375 1122 1375 q 1226 1356 1199 1375 q 1250 1292 1254 1336 q 1219 1225 1246 1254 q 1156 1180 1193 1196 q 1079 1164 1118 1164 m 1097 1189 q 1155 1217 1125 1189 q 1189 1285 1185 1244 q 1178 1335 1192 1319 q 1143 1350 1165 1350 q 1083 1324 1114 1350 q 1047 1254 1053 1299 q 1060 1206 1044 1224 q 1097 1189 1075 1189 m 1178 1325 q 1160 1331 1168 1328 q 1153 1344 1153 1335 q 1263 1424 1207 1381 q 1368 1508 1318 1467 q 1390 1496 1379 1508 q 1397 1449 1400 1483 q 1353 1421 1383 1439 q 1289 1384 1324 1403 q 1224 1349 1254 1365 q 1178 1325 1194 1333 z "},"Ḁ":{"ha":994,"x_min":22,"x_max":1200,"o":"m 757 -89 q 671 -41 696 -89 q 646 71 646 7 q 662 183 646 128 q 700 268 678 239 q 607 167 663 224 q 485 57 551 110 q 347 -31 418 4 q 207 -65 276 -65 q 70 -7 115 -65 q 25 153 25 51 q 52 323 25 232 q 132 508 79 414 q 188 599 157 554 q 256 685 219 644 q 172 731 213 706 q 107 793 132 757 q 82 879 82 829 q 94 927 82 906 q 119 949 106 949 q 132 933 132 949 q 126 913 132 924 q 119 879 119 894 q 146 809 119 842 q 210 753 172 776 q 279 715 247 729 q 474 895 368 813 q 703 1028 581 978 q 960 1078 825 1078 q 1136 1028 1072 1078 q 1200 901 1200 979 q 1160 783 1200 832 q 1057 701 1121 733 q 919 649 993 668 q 772 623 844 631 q 646 615 700 615 q 492 625 567 615 q 344 656 418 635 q 266 537 308 604 q 185 395 224 469 q 123 248 147 321 q 99 113 99 175 q 131 10 99 44 q 217 -24 163 -24 q 355 16 282 -24 q 501 119 428 56 q 642 258 575 183 q 761 407 708 333 q 844 538 814 481 q 890 601 868 582 q 928 619 913 619 q 951 608 943 619 q 960 576 960 596 q 925 499 960 538 q 833 367 878 444 q 761 206 789 290 q 733 49 733 122 q 749 -25 733 -3 q 792 -47 765 -47 q 873 -20 832 -47 q 951 53 914 7 q 1021 155 989 99 q 1076 268 1053 211 q 1088 267 1083 268 q 1093 256 1093 265 q 1037 135 1069 196 q 963 23 1004 74 q 869 -58 921 -28 q 757 -89 818 -89 m 633 649 q 757 655 689 649 q 892 678 825 661 q 1017 725 960 694 q 1108 803 1074 756 q 1143 918 1143 850 q 1092 1011 1143 979 q 964 1043 1042 1043 q 728 992 835 1043 q 534 860 622 942 q 367 683 446 778 q 492 657 428 665 q 633 649 557 649 m 110 -294 q 49 -278 75 -294 q 22 -226 22 -261 q 42 -173 22 -196 q 93 -137 63 -150 q 153 -124 124 -124 q 214 -140 188 -124 q 240 -193 240 -157 q 219 -248 240 -225 q 169 -283 199 -271 q 110 -294 139 -294 m 111 -272 q 147 -256 131 -272 q 174 -216 164 -239 q 185 -174 185 -193 q 156 -144 185 -144 q 122 -159 140 -144 q 90 -195 103 -174 q 78 -239 78 -217 q 111 -272 78 -272 z "},"Ⱥ":{"ha":994,"x_min":25,"x_max":1200,"o":"m 90 -243 l 192 -65 q 67 -2 108 -60 q 25 153 25 56 q 52 323 25 232 q 132 508 79 414 q 188 599 157 554 q 256 685 219 644 q 172 731 213 706 q 107 793 132 757 q 82 879 82 829 q 94 927 82 906 q 119 949 106 949 q 132 933 132 949 q 126 913 132 924 q 119 879 119 894 q 146 809 119 842 q 210 753 172 776 q 279 715 247 729 q 442 869 354 797 q 628 994 529 942 q 838 1067 728 1046 l 944 1256 q 960 1273 951 1268 q 976 1278 969 1278 q 994 1273 985 1278 q 1006 1267 1004 1268 l 897 1075 q 960 1078 928 1078 q 1136 1028 1072 1078 q 1200 901 1200 979 q 1160 783 1200 832 q 1057 701 1121 733 q 919 649 993 668 q 772 623 844 631 q 646 615 700 615 q 636 615 640 615 l 278 -15 q 408 47 340 1 q 540 153 475 92 q 665 285 606 215 q 770 420 724 354 q 844 538 817 486 q 890 601 868 582 q 928 619 913 619 q 951 608 943 619 q 960 576 960 596 q 925 499 960 538 q 833 367 878 444 q 761 206 789 290 q 733 49 733 122 q 749 -25 733 -3 q 792 -47 765 -47 q 873 -20 832 -47 q 951 53 914 7 q 1021 155 989 99 q 1076 268 1053 211 q 1088 267 1083 268 q 1093 256 1093 265 q 1037 135 1069 196 q 963 23 1004 74 q 869 -58 921 -28 q 757 -89 818 -89 q 671 -41 696 -89 q 646 71 646 7 q 662 183 646 128 q 700 268 678 239 q 615 176 665 228 q 506 74 565 124 q 381 -13 446 24 q 251 -61 315 -50 l 154 -232 q 135 -249 146 -246 q 117 -253 124 -253 q 90 -243 99 -250 m 964 1043 q 875 1036 918 1043 l 654 649 q 777 658 711 650 q 908 682 843 665 q 1026 729 972 699 q 1111 806 1079 760 q 1143 918 1143 853 q 1092 1011 1143 979 q 964 1043 1042 1043 m 367 683 q 599 649 472 653 l 811 1022 q 643 944 721 996 q 497 825 565 893 q 367 683 429 757 m 99 113 q 131 10 99 44 q 215 -24 163 -24 l 581 617 q 344 656 457 624 q 266 537 308 604 q 185 395 224 469 q 123 248 147 321 q 99 113 99 175 z "},"Ã":{"ha":994,"x_min":25,"x_max":1281,"o":"m 757 -89 q 671 -41 696 -89 q 646 71 646 7 q 662 183 646 128 q 700 268 678 239 q 607 167 663 224 q 485 57 551 110 q 347 -31 418 4 q 207 -65 276 -65 q 70 -7 115 -65 q 25 153 25 51 q 52 323 25 232 q 132 508 79 414 q 188 599 157 554 q 256 685 219 644 q 172 731 213 706 q 107 793 132 757 q 82 879 82 829 q 94 927 82 906 q 119 949 106 949 q 132 933 132 949 q 126 913 132 924 q 119 879 119 894 q 146 809 119 842 q 210 753 172 776 q 279 715 247 729 q 474 895 368 813 q 703 1028 581 978 q 960 1078 825 1078 q 1136 1028 1072 1078 q 1200 901 1200 979 q 1160 783 1200 832 q 1057 701 1121 733 q 919 649 993 668 q 772 623 844 631 q 646 615 700 615 q 492 625 567 615 q 344 656 418 635 q 266 537 308 604 q 185 395 224 469 q 123 248 147 321 q 99 113 99 175 q 131 10 99 44 q 217 -24 163 -24 q 355 16 282 -24 q 501 119 428 56 q 642 258 575 183 q 761 407 708 333 q 844 538 814 481 q 890 601 868 582 q 928 619 913 619 q 951 608 943 619 q 960 576 960 596 q 925 499 960 538 q 833 367 878 444 q 761 206 789 290 q 733 49 733 122 q 749 -25 733 -3 q 792 -47 765 -47 q 873 -20 832 -47 q 951 53 914 7 q 1021 155 989 99 q 1076 268 1053 211 q 1088 267 1083 268 q 1093 256 1093 265 q 1037 135 1069 196 q 963 23 1004 74 q 869 -58 921 -28 q 757 -89 818 -89 m 633 649 q 757 655 689 649 q 892 678 825 661 q 1017 725 960 694 q 1108 803 1074 756 q 1143 918 1143 850 q 1092 1011 1143 979 q 964 1043 1042 1043 q 728 992 835 1043 q 534 860 622 942 q 367 683 446 778 q 492 657 428 665 q 633 649 557 649 m 1279 1263 q 1234 1196 1264 1229 q 1163 1163 1204 1163 q 1106 1175 1133 1163 q 1052 1199 1079 1188 q 997 1211 1025 1211 q 961 1199 976 1211 q 938 1171 946 1188 q 925 1167 936 1167 q 908 1174 906 1167 q 954 1235 925 1204 q 1025 1267 983 1267 q 1083 1256 1056 1267 q 1137 1233 1110 1244 q 1192 1221 1164 1221 q 1228 1233 1214 1221 q 1253 1265 1243 1246 q 1264 1269 1256 1269 q 1276 1267 1271 1269 q 1279 1263 1281 1265 z "},"Æ":{"ha":1917,"x_min":25,"x_max":1888,"o":"m 1151 -160 q 884 -114 990 -160 q 726 5 778 -68 q 674 161 674 78 q 690 258 674 211 q 598 158 653 214 q 478 51 543 103 q 344 -33 413 0 q 208 -67 275 -67 q 126 -50 167 -67 q 50 24 75 -29 q 25 153 25 78 q 52 323 25 232 q 132 508 79 414 q 188 599 157 554 q 256 685 219 644 q 176 728 213 704 q 115 782 140 753 q 90 828 99 801 q 82 879 82 854 q 103 938 82 924 q 119 949 110 949 q 132 933 132 949 q 126 913 132 924 q 119 879 119 894 q 131 838 119 857 q 157 803 142 819 q 279 715 201 750 q 474 895 368 813 q 703 1028 581 978 q 960 1078 825 1078 q 1078 1059 1028 1078 q 1160 1008 1129 1040 q 1362 1092 1251 1063 q 1568 1121 1472 1121 q 1595 1121 1583 1121 q 1628 1118 1607 1121 q 1811 1057 1753 1104 q 1869 954 1869 1010 q 1806 834 1869 893 q 1626 749 1742 775 q 1603 744 1614 746 q 1586 743 1593 743 q 1567 750 1567 743 q 1581 765 1567 756 q 1621 775 1596 774 q 1699 808 1663 779 q 1758 877 1736 836 q 1781 958 1781 918 q 1745 1039 1781 1003 q 1622 1083 1710 1075 q 1597 1085 1610 1085 q 1571 1086 1583 1086 q 1368 1051 1471 1086 q 1189 958 1265 1017 q 1198 931 1196 944 q 1200 901 1200 917 q 1172 808 1200 858 q 1076 715 1143 758 q 1127 640 1089 667 q 1215 599 1165 613 q 1310 575 1264 585 q 1384 551 1356 565 q 1408 508 1413 536 q 1383 486 1404 492 q 1326 481 1361 481 q 1269 482 1300 481 q 1203 483 1239 483 q 1113 479 1160 483 q 1019 461 1067 475 q 893 392 947 440 q 810 279 839 343 q 781 150 781 215 q 819 16 781 79 q 940 -87 857 -47 q 1154 -126 1022 -126 q 1378 -96 1268 -126 q 1582 -19 1489 -65 q 1733 76 1675 28 q 1810 162 1782 117 q 1839 238 1839 207 q 1796 286 1839 276 q 1756 307 1756 296 q 1772 315 1756 315 q 1811 306 1790 315 q 1888 204 1888 268 q 1860 122 1888 165 q 1783 36 1833 79 q 1615 -66 1715 -22 q 1395 -135 1514 -110 q 1151 -160 1276 -160 m 606 649 q 767 657 678 649 q 875 673 824 661 q 968 701 926 685 q 963 738 963 717 q 1007 874 963 811 q 1121 985 1051 938 q 1058 1028 1100 1013 q 964 1043 1017 1043 q 728 992 835 1043 q 534 860 622 942 q 367 683 446 778 q 606 649 472 649 m 1072 767 q 1143 915 1143 833 q 1095 849 1114 885 q 1074 772 1076 813 l 1072 767 m 217 -24 q 337 7 269 -24 q 478 99 404 38 q 622 236 551 160 q 750 392 692 313 q 844 538 808 471 q 890 601 868 582 q 928 619 913 619 q 951 608 943 619 q 960 576 960 596 q 952 539 960 560 q 925 499 944 518 q 918 488 921 494 q 963 508 939 499 q 1008 524 986 518 q 1084 541 1046 535 q 1157 549 1122 547 q 1060 596 1110 564 q 983 671 1011 628 q 876 639 929 649 q 767 624 822 629 q 705 619 728 621 q 663 616 682 617 q 618 615 644 615 q 478 625 546 615 q 344 656 411 635 q 281 561 319 621 q 206 433 243 501 q 143 304 168 365 q 110 198 121 246 q 99 113 99 150 q 131 10 99 44 q 217 -24 163 -24 z "},"Ǽ":{"ha":1917,"x_min":25,"x_max":1888,"o":"m 1151 -160 q 884 -114 990 -160 q 726 5 778 -68 q 674 161 674 78 q 690 258 674 211 q 598 158 653 214 q 478 51 543 103 q 344 -33 413 0 q 208 -67 275 -67 q 126 -50 167 -67 q 50 24 75 -29 q 25 153 25 78 q 52 323 25 232 q 132 508 79 414 q 188 599 157 554 q 256 685 219 644 q 176 728 213 704 q 115 782 140 753 q 90 828 99 801 q 82 879 82 854 q 103 938 82 924 q 119 949 110 949 q 132 933 132 949 q 126 913 132 924 q 119 879 119 894 q 131 838 119 857 q 157 803 142 819 q 279 715 201 750 q 474 895 368 813 q 703 1028 581 978 q 960 1078 825 1078 q 1078 1059 1028 1078 q 1160 1008 1129 1040 q 1362 1092 1251 1063 q 1568 1121 1472 1121 q 1595 1121 1583 1121 q 1628 1118 1607 1121 q 1811 1057 1753 1104 q 1869 954 1869 1010 q 1806 834 1869 893 q 1626 749 1742 775 q 1603 744 1614 746 q 1586 743 1593 743 q 1567 750 1567 743 q 1581 765 1567 756 q 1621 775 1596 774 q 1699 808 1663 779 q 1758 877 1736 836 q 1781 958 1781 918 q 1745 1039 1781 1003 q 1622 1083 1710 1075 q 1597 1085 1610 1085 q 1571 1086 1583 1086 q 1368 1051 1471 1086 q 1189 958 1265 1017 q 1198 931 1196 944 q 1200 901 1200 917 q 1172 808 1200 858 q 1076 715 1143 758 q 1127 640 1089 667 q 1215 599 1165 613 q 1310 575 1264 585 q 1384 551 1356 565 q 1408 508 1413 536 q 1383 486 1404 492 q 1326 481 1361 481 q 1269 482 1300 481 q 1203 483 1239 483 q 1113 479 1160 483 q 1019 461 1067 475 q 893 392 947 440 q 810 279 839 343 q 781 150 781 215 q 819 16 781 79 q 940 -87 857 -47 q 1154 -126 1022 -126 q 1378 -96 1268 -126 q 1582 -19 1489 -65 q 1733 76 1675 28 q 1810 162 1782 117 q 1839 238 1839 207 q 1796 286 1839 276 q 1756 307 1756 296 q 1772 315 1756 315 q 1811 306 1790 315 q 1888 204 1888 268 q 1860 122 1888 165 q 1783 36 1833 79 q 1615 -66 1715 -22 q 1395 -135 1514 -110 q 1151 -160 1276 -160 m 606 649 q 767 657 678 649 q 875 673 824 661 q 968 701 926 685 q 963 738 963 717 q 1007 874 963 811 q 1121 985 1051 938 q 1058 1028 1100 1013 q 964 1043 1017 1043 q 728 992 835 1043 q 534 860 622 942 q 367 683 446 778 q 606 649 472 649 m 1072 767 q 1143 915 1143 833 q 1095 849 1114 885 q 1074 772 1076 813 l 1072 767 m 217 -24 q 337 7 269 -24 q 478 99 404 38 q 622 236 551 160 q 750 392 692 313 q 844 538 808 471 q 890 601 868 582 q 928 619 913 619 q 951 608 943 619 q 960 576 960 596 q 952 539 960 560 q 925 499 944 518 q 918 488 921 494 q 963 508 939 499 q 1008 524 986 518 q 1084 541 1046 535 q 1157 549 1122 547 q 1060 596 1110 564 q 983 671 1011 628 q 876 639 929 649 q 767 624 822 629 q 705 619 728 621 q 663 616 682 617 q 618 615 644 615 q 478 625 546 615 q 344 656 411 635 q 281 561 319 621 q 206 433 243 501 q 143 304 168 365 q 110 198 121 246 q 99 113 99 150 q 131 10 99 44 q 217 -24 163 -24 m 1171 1156 q 1153 1162 1161 1158 q 1146 1175 1146 1165 q 1256 1254 1200 1211 q 1361 1339 1311 1297 q 1383 1326 1372 1339 q 1390 1279 1393 1314 q 1347 1251 1376 1269 q 1282 1215 1317 1233 q 1217 1180 1247 1196 q 1171 1156 1188 1164 z "},"Ǣ":{"ha":1917,"x_min":25,"x_max":1888,"o":"m 1151 -160 q 884 -114 990 -160 q 726 5 778 -68 q 674 161 674 78 q 690 258 674 211 q 598 158 653 214 q 478 51 543 103 q 344 -33 413 0 q 208 -67 275 -67 q 126 -50 167 -67 q 50 24 75 -29 q 25 153 25 78 q 52 323 25 232 q 132 508 79 414 q 188 599 157 554 q 256 685 219 644 q 176 728 213 704 q 115 782 140 753 q 90 828 99 801 q 82 879 82 854 q 103 938 82 924 q 119 949 110 949 q 132 933 132 949 q 126 913 132 924 q 119 879 119 894 q 131 838 119 857 q 157 803 142 819 q 279 715 201 750 q 474 895 368 813 q 703 1028 581 978 q 960 1078 825 1078 q 1078 1059 1028 1078 q 1160 1008 1129 1040 q 1362 1092 1251 1063 q 1568 1121 1472 1121 q 1595 1121 1583 1121 q 1628 1118 1607 1121 q 1811 1057 1753 1104 q 1869 954 1869 1010 q 1806 834 1869 893 q 1626 749 1742 775 q 1603 744 1614 746 q 1586 743 1593 743 q 1567 750 1567 743 q 1581 765 1567 756 q 1621 775 1596 774 q 1699 808 1663 779 q 1758 877 1736 836 q 1781 958 1781 918 q 1745 1039 1781 1003 q 1622 1083 1710 1075 q 1597 1085 1610 1085 q 1571 1086 1583 1086 q 1368 1051 1471 1086 q 1189 958 1265 1017 q 1198 931 1196 944 q 1200 901 1200 917 q 1172 808 1200 858 q 1076 715 1143 758 q 1127 640 1089 667 q 1215 599 1165 613 q 1310 575 1264 585 q 1384 551 1356 565 q 1408 508 1413 536 q 1383 486 1404 492 q 1326 481 1361 481 q 1269 482 1300 481 q 1203 483 1239 483 q 1113 479 1160 483 q 1019 461 1067 475 q 893 392 947 440 q 810 279 839 343 q 781 150 781 215 q 819 16 781 79 q 940 -87 857 -47 q 1154 -126 1022 -126 q 1378 -96 1268 -126 q 1582 -19 1489 -65 q 1733 76 1675 28 q 1810 162 1782 117 q 1839 238 1839 207 q 1796 286 1839 276 q 1756 307 1756 296 q 1772 315 1756 315 q 1811 306 1790 315 q 1888 204 1888 268 q 1860 122 1888 165 q 1783 36 1833 79 q 1615 -66 1715 -22 q 1395 -135 1514 -110 q 1151 -160 1276 -160 m 606 649 q 767 657 678 649 q 875 673 824 661 q 968 701 926 685 q 963 738 963 717 q 1007 874 963 811 q 1121 985 1051 938 q 1058 1028 1100 1013 q 964 1043 1017 1043 q 728 992 835 1043 q 534 860 622 942 q 367 683 446 778 q 606 649 472 649 m 1072 767 q 1143 915 1143 833 q 1095 849 1114 885 q 1074 772 1076 813 l 1072 767 m 217 -24 q 337 7 269 -24 q 478 99 404 38 q 622 236 551 160 q 750 392 692 313 q 844 538 808 471 q 890 601 868 582 q 928 619 913 619 q 951 608 943 619 q 960 576 960 596 q 952 539 960 560 q 925 499 944 518 q 918 488 921 494 q 963 508 939 499 q 1008 524 986 518 q 1084 541 1046 535 q 1157 549 1122 547 q 1060 596 1110 564 q 983 671 1011 628 q 876 639 929 649 q 767 624 822 629 q 705 619 728 621 q 663 616 682 617 q 618 615 644 615 q 478 625 546 615 q 344 656 411 635 q 281 561 319 621 q 206 433 243 501 q 143 304 168 365 q 110 198 121 246 q 99 113 99 150 q 131 10 99 44 q 217 -24 163 -24 m 1053 1186 q 1063 1210 1053 1197 q 1092 1229 1074 1222 l 1383 1235 q 1375 1210 1383 1228 q 1346 1186 1367 1193 l 1053 1186 z "},"B":{"ha":1454,"x_min":15,"x_max":1518,"o":"m 247 -54 q 177 -48 217 -54 q 101 -26 138 -42 q 40 17 64 -11 q 15 89 15 46 q 61 183 15 140 q 190 225 107 225 q 304 205 251 225 q 408 156 357 185 q 513 100 458 128 q 640 265 582 167 q 755 477 697 364 q 880 704 813 590 q 1036 918 947 818 l 1117 1008 q 1010 1022 1065 1017 q 894 1026 954 1026 q 716 1013 813 1026 q 524 969 619 999 q 351 896 429 940 q 225 790 272 851 q 178 650 178 729 q 202 564 178 596 q 263 517 226 532 q 338 503 300 503 q 443 531 400 503 q 508 597 486 560 q 529 664 529 635 q 543 674 529 674 q 557 651 557 674 q 522 553 557 594 q 435 489 488 511 q 331 467 383 467 q 231 490 282 467 q 147 561 181 514 q 114 678 114 608 q 161 826 114 761 q 288 936 208 890 q 464 1012 367 982 q 660 1056 561 1042 q 847 1069 760 1069 q 1005 1062 928 1069 q 1150 1039 1082 1054 q 1190 1068 1169 1056 q 1226 1088 1210 1081 q 1251 1094 1242 1094 q 1263 1086 1263 1094 q 1247 1071 1263 1082 q 1216 1045 1229 1057 q 1200 1028 1203 1033 q 1430 928 1342 992 q 1518 779 1518 865 q 1469 655 1518 708 q 1342 571 1421 601 q 1175 536 1264 540 q 1374 432 1300 496 q 1449 269 1449 368 q 1406 136 1449 196 q 1294 34 1364 76 q 1140 -31 1224 -8 q 975 -54 1057 -54 q 747 -28 846 -54 q 540 47 647 -1 q 247 -54 406 -54 m 956 -14 q 1113 13 1042 -14 q 1235 82 1183 39 q 1316 178 1288 125 q 1344 282 1344 231 q 1315 376 1344 331 q 1224 451 1286 421 q 1082 508 1143 492 q 985 538 1021 524 q 967 547 971 544 q 963 553 963 550 q 976 575 963 567 q 1008 583 990 583 q 1068 579 1036 583 q 1136 575 1100 575 q 1292 611 1226 575 q 1392 701 1357 647 q 1428 808 1428 756 q 1375 913 1428 868 q 1183 994 1322 958 q 1044 780 1114 899 q 906 540 975 661 q 765 310 836 418 q 624 124 694 201 q 597 97 607 106 q 571 72 588 88 q 754 12 654 38 q 956 -14 854 -14 m 219 -11 q 362 8 297 -15 q 482 72 426 31 q 397 115 449 89 q 293 162 346 142 q 201 182 240 182 q 124 155 150 182 q 97 93 97 128 q 128 24 97 57 q 219 -11 158 -8 z "},"Ḃ":{"ha":1454,"x_min":15,"x_max":1518,"o":"m 247 -54 q 177 -48 217 -54 q 101 -26 138 -42 q 40 17 64 -11 q 15 89 15 46 q 61 183 15 140 q 190 225 107 225 q 304 205 251 225 q 408 156 357 185 q 513 100 458 128 q 640 265 582 167 q 755 477 697 364 q 880 704 813 590 q 1036 918 947 818 l 1117 1008 q 1010 1022 1065 1017 q 894 1026 954 1026 q 716 1013 813 1026 q 524 969 619 999 q 351 896 429 940 q 225 790 272 851 q 178 650 178 729 q 202 564 178 596 q 263 517 226 532 q 338 503 300 503 q 443 531 400 503 q 508 597 486 560 q 529 664 529 635 q 543 674 529 674 q 557 651 557 674 q 522 553 557 594 q 435 489 488 511 q 331 467 383 467 q 231 490 282 467 q 147 561 181 514 q 114 678 114 608 q 161 826 114 761 q 288 936 208 890 q 464 1012 367 982 q 660 1056 561 1042 q 847 1069 760 1069 q 1005 1062 928 1069 q 1150 1039 1082 1054 q 1190 1068 1169 1056 q 1226 1088 1210 1081 q 1251 1094 1242 1094 q 1263 1086 1263 1094 q 1247 1071 1263 1082 q 1216 1045 1229 1057 q 1200 1028 1203 1033 q 1430 928 1342 992 q 1518 779 1518 865 q 1469 655 1518 708 q 1342 571 1421 601 q 1175 536 1264 540 q 1374 432 1300 496 q 1449 269 1449 368 q 1406 136 1449 196 q 1294 34 1364 76 q 1140 -31 1224 -8 q 975 -54 1057 -54 q 747 -28 846 -54 q 540 47 647 -1 q 247 -54 406 -54 m 956 -14 q 1113 13 1042 -14 q 1235 82 1183 39 q 1316 178 1288 125 q 1344 282 1344 231 q 1315 376 1344 331 q 1224 451 1286 421 q 1082 508 1143 492 q 985 538 1021 524 q 967 547 971 544 q 963 553 963 550 q 976 575 963 567 q 1008 583 990 583 q 1068 579 1036 583 q 1136 575 1100 575 q 1292 611 1226 575 q 1392 701 1357 647 q 1428 808 1428 756 q 1375 913 1428 868 q 1183 994 1322 958 q 1044 780 1114 899 q 906 540 975 661 q 765 310 836 418 q 624 124 694 201 q 597 97 607 106 q 571 72 588 88 q 754 12 654 38 q 956 -14 854 -14 m 219 -11 q 362 8 297 -15 q 482 72 426 31 q 397 115 449 89 q 293 162 346 142 q 201 182 240 182 q 124 155 150 182 q 97 93 97 128 q 128 24 97 57 q 219 -11 158 -8 m 1315 1165 q 1284 1179 1297 1165 q 1271 1213 1271 1193 q 1290 1255 1271 1236 q 1333 1274 1310 1274 q 1367 1261 1353 1274 q 1381 1229 1381 1249 q 1361 1185 1381 1204 q 1315 1165 1342 1165 z "},"Ḅ":{"ha":1454,"x_min":15,"x_max":1518,"o":"m 247 -54 q 177 -48 217 -54 q 101 -26 138 -42 q 40 17 64 -11 q 15 89 15 46 q 61 183 15 140 q 190 225 107 225 q 304 205 251 225 q 408 156 357 185 q 513 100 458 128 q 640 265 582 167 q 755 477 697 364 q 880 704 813 590 q 1036 918 947 818 l 1117 1008 q 1010 1022 1065 1017 q 894 1026 954 1026 q 716 1013 813 1026 q 524 969 619 999 q 351 896 429 940 q 225 790 272 851 q 178 650 178 729 q 202 564 178 596 q 263 517 226 532 q 338 503 300 503 q 443 531 400 503 q 508 597 486 560 q 529 664 529 635 q 543 674 529 674 q 557 651 557 674 q 522 553 557 594 q 435 489 488 511 q 331 467 383 467 q 231 490 282 467 q 147 561 181 514 q 114 678 114 608 q 161 826 114 761 q 288 936 208 890 q 464 1012 367 982 q 660 1056 561 1042 q 847 1069 760 1069 q 1005 1062 928 1069 q 1150 1039 1082 1054 q 1190 1068 1169 1056 q 1226 1088 1210 1081 q 1251 1094 1242 1094 q 1263 1086 1263 1094 q 1247 1071 1263 1082 q 1216 1045 1229 1057 q 1200 1028 1203 1033 q 1430 928 1342 992 q 1518 779 1518 865 q 1469 655 1518 708 q 1342 571 1421 601 q 1175 536 1264 540 q 1374 432 1300 496 q 1449 269 1449 368 q 1406 136 1449 196 q 1294 34 1364 76 q 1140 -31 1224 -8 q 975 -54 1057 -54 q 747 -28 846 -54 q 540 47 647 -1 q 247 -54 406 -54 m 956 -14 q 1113 13 1042 -14 q 1235 82 1183 39 q 1316 178 1288 125 q 1344 282 1344 231 q 1315 376 1344 331 q 1224 451 1286 421 q 1082 508 1143 492 q 985 538 1021 524 q 967 547 971 544 q 963 553 963 550 q 976 575 963 567 q 1008 583 990 583 q 1068 579 1036 583 q 1136 575 1100 575 q 1292 611 1226 575 q 1392 701 1357 647 q 1428 808 1428 756 q 1375 913 1428 868 q 1183 994 1322 958 q 1044 780 1114 899 q 906 540 975 661 q 765 310 836 418 q 624 124 694 201 q 597 97 607 106 q 571 72 588 88 q 754 12 654 38 q 956 -14 854 -14 m 219 -11 q 362 8 297 -15 q 482 72 426 31 q 397 115 449 89 q 293 162 346 142 q 201 182 240 182 q 124 155 150 182 q 97 93 97 128 q 128 24 97 57 q 219 -11 158 -8 m 676 -219 q 647 -206 658 -219 q 635 -175 635 -193 q 653 -135 635 -151 q 693 -118 671 -118 q 725 -130 713 -118 q 738 -160 738 -142 q 719 -201 738 -182 q 676 -219 701 -219 z "},"Ꞵ":{"ha":1454,"x_min":8,"x_max":1518,"o":"m 8 -454 l 17 -418 q 160 -375 90 -418 q 295 -259 229 -332 q 423 -95 361 -186 q 543 93 485 -4 l 621 219 q 717 392 667 300 q 819 578 767 483 q 927 760 872 672 q 1036 918 982 847 q 1076 964 1056 942 q 1117 1008 1097 986 q 1010 1022 1065 1017 q 894 1026 954 1026 q 716 1013 813 1026 q 524 969 619 999 q 351 896 429 940 q 225 790 272 851 q 178 650 178 729 q 202 564 178 596 q 263 517 226 532 q 338 503 300 503 q 443 531 400 503 q 508 597 486 560 q 529 664 529 635 q 543 674 529 674 q 557 653 557 674 l 557 651 q 522 553 557 594 q 435 489 488 511 q 331 467 383 467 q 231 490 282 467 q 147 561 181 514 q 114 678 114 608 q 161 826 114 761 q 288 936 208 890 q 464 1012 367 982 q 660 1056 561 1042 q 847 1069 760 1069 q 1005 1062 928 1069 q 1150 1039 1082 1054 q 1190 1068 1169 1056 q 1226 1088 1210 1081 q 1243 1093 1236 1092 q 1254 1094 1250 1094 q 1263 1089 1263 1094 q 1242 1067 1263 1082 q 1215 1045 1228 1057 q 1200 1028 1203 1033 q 1430 928 1342 992 q 1518 779 1518 865 q 1469 655 1518 708 q 1342 571 1421 601 q 1175 536 1264 540 q 1276 495 1221 522 q 1377 429 1331 468 q 1439 338 1424 390 q 1449 269 1449 304 q 1406 136 1449 196 q 1294 34 1364 76 q 1140 -31 1224 -8 q 975 -54 1057 -54 q 775 -34 864 -54 q 596 22 686 -14 q 414 -231 504 -128 q 224 -390 324 -335 q 8 -454 125 -446 m 956 -14 q 1113 13 1042 -14 q 1235 82 1183 39 q 1316 178 1288 125 q 1344 282 1344 231 q 1315 376 1344 331 q 1224 453 1286 422 q 1112 497 1169 479 q 1013 527 1054 514 q 964 554 971 540 q 978 577 964 571 q 1017 583 993 583 q 1083 579 1044 583 q 1165 575 1122 575 q 1256 595 1210 575 q 1342 649 1303 615 q 1405 724 1381 683 q 1429 808 1429 765 q 1406 881 1429 850 q 1346 935 1383 913 q 1266 972 1308 957 q 1183 994 1224 986 q 1033 766 1107 881 q 892 540 960 651 l 769 322 q 728 247 754 293 q 673 151 701 200 q 624 67 644 103 q 781 10 703 33 q 956 -14 858 -14 z "},"Ɓ":{"ha":1454,"x_min":15,"x_max":1518,"o":"m 247 -54 q 185 -50 217 -54 q 56 1 97 -39 q 15 89 15 42 q 61 183 15 140 q 190 225 107 225 q 311 203 246 225 q 397 161 347 190 q 513 100 447 132 q 640 265 582 167 q 755 477 697 364 q 880 704 813 590 q 1036 918 947 818 q 1074 956 1050 933 q 1124 1004 1097 979 q 978 1019 1065 1014 q 794 1033 890 1025 q 608 1054 697 1040 q 457 1092 519 1068 q 442 1023 451 1056 q 425 975 432 990 q 394 886 407 931 q 382 801 382 842 q 400 726 382 757 q 428 690 411 706 q 476 675 446 675 q 507 679 490 675 q 558 715 538 688 q 590 768 578 743 q 603 776 594 772 q 617 772 613 781 q 619 754 619 764 q 601 701 619 732 q 546 643 582 671 q 454 601 510 615 q 411 597 433 597 q 349 611 379 597 q 299 660 318 625 q 285 724 285 686 q 314 857 285 785 q 382 993 343 929 q 409 1044 394 1014 q 429 1104 424 1074 q 361 1189 361 1138 q 367 1216 361 1200 q 396 1232 374 1232 q 442 1206 426 1232 q 458 1142 457 1179 q 584 1108 510 1122 q 742 1085 658 1094 q 908 1067 826 1075 q 1056 1051 989 1058 q 1158 1036 1122 1044 q 1197 1067 1179 1054 q 1226 1088 1214 1081 q 1243 1094 1236 1093 q 1254 1094 1250 1094 q 1263 1089 1263 1094 q 1242 1067 1263 1082 q 1215 1045 1228 1057 q 1200 1028 1203 1033 q 1430 928 1342 992 q 1518 779 1518 865 q 1489 682 1518 735 q 1404 599 1458 631 q 1289 553 1350 568 q 1175 536 1228 539 q 1276 495 1221 522 q 1377 429 1331 468 q 1439 338 1424 390 q 1449 269 1449 304 q 1406 136 1449 196 q 1294 34 1364 76 q 1140 -31 1224 -8 q 975 -54 1057 -54 q 913 -50 944 -54 q 692 -8 779 -33 q 540 47 606 17 q 247 -54 406 -54 m 956 -14 q 1113 13 1042 -14 q 1235 82 1183 39 q 1316 178 1288 125 q 1344 282 1344 231 q 1315 376 1344 331 q 1224 453 1286 422 q 1112 497 1169 479 q 1013 527 1054 514 q 964 554 971 540 q 978 577 964 571 q 1017 583 993 583 q 1083 579 1044 583 q 1165 575 1122 575 q 1256 595 1210 575 q 1342 649 1303 615 q 1405 724 1381 683 q 1429 808 1429 765 q 1403 885 1429 847 q 1315 950 1376 922 q 1183 994 1254 978 q 1044 780 1114 899 q 906 540 975 661 q 765 310 836 418 q 624 124 694 201 q 597 97 607 106 q 571 72 588 88 q 719 22 636 46 q 910 -11 803 -1 q 933 -13 921 -12 q 956 -14 944 -14 m 219 -11 q 362 8 297 -15 q 482 72 426 31 q 383 122 433 96 q 275 168 332 147 q 201 182 235 182 q 124 155 150 182 q 97 93 97 128 q 128 24 97 57 q 219 -11 158 -8 z "},"Ḇ":{"ha":1454,"x_min":15,"x_max":1518,"o":"m 247 -54 q 177 -48 217 -54 q 101 -26 138 -42 q 40 17 64 -11 q 15 89 15 46 q 61 183 15 140 q 190 225 107 225 q 304 205 251 225 q 408 156 357 185 q 513 100 458 128 q 640 265 582 167 q 755 477 697 364 q 880 704 813 590 q 1036 918 947 818 l 1117 1008 q 1010 1022 1065 1017 q 894 1026 954 1026 q 716 1013 813 1026 q 524 969 619 999 q 351 896 429 940 q 225 790 272 851 q 178 650 178 729 q 202 564 178 596 q 263 517 226 532 q 338 503 300 503 q 443 531 400 503 q 508 597 486 560 q 529 664 529 635 q 543 674 529 674 q 557 651 557 674 q 522 553 557 594 q 435 489 488 511 q 331 467 383 467 q 231 490 282 467 q 147 561 181 514 q 114 678 114 608 q 161 826 114 761 q 288 936 208 890 q 464 1012 367 982 q 660 1056 561 1042 q 847 1069 760 1069 q 1005 1062 928 1069 q 1150 1039 1082 1054 q 1190 1068 1169 1056 q 1226 1088 1210 1081 q 1251 1094 1242 1094 q 1263 1086 1263 1094 q 1247 1071 1263 1082 q 1216 1045 1229 1057 q 1200 1028 1203 1033 q 1430 928 1342 992 q 1518 779 1518 865 q 1469 655 1518 708 q 1342 571 1421 601 q 1175 536 1264 540 q 1374 432 1300 496 q 1449 269 1449 368 q 1406 136 1449 196 q 1294 34 1364 76 q 1140 -31 1224 -8 q 975 -54 1057 -54 q 747 -28 846 -54 q 540 47 647 -1 q 247 -54 406 -54 m 956 -14 q 1113 13 1042 -14 q 1235 82 1183 39 q 1316 178 1288 125 q 1344 282 1344 231 q 1315 376 1344 331 q 1224 451 1286 421 q 1082 508 1143 492 q 985 538 1021 524 q 967 547 971 544 q 963 553 963 550 q 976 575 963 567 q 1008 583 990 583 q 1068 579 1036 583 q 1136 575 1100 575 q 1292 611 1226 575 q 1392 701 1357 647 q 1428 808 1428 756 q 1375 913 1428 868 q 1183 994 1322 958 q 1044 780 1114 899 q 906 540 975 661 q 765 310 836 418 q 624 124 694 201 q 597 97 607 106 q 571 72 588 88 q 754 12 654 38 q 956 -14 854 -14 m 219 -11 q 362 8 297 -15 q 482 72 426 31 q 397 115 449 89 q 293 162 346 142 q 201 182 240 182 q 124 155 150 182 q 97 93 97 128 q 128 24 97 57 q 219 -11 158 -8 m 540 -172 q 551 -144 540 -160 q 588 -124 561 -129 l 861 -121 q 855 -147 861 -128 q 828 -172 849 -165 l 540 -172 z "},"Ƀ":{"ha":1454,"x_min":15,"x_max":1518,"o":"m 247 -54 q 177 -48 217 -54 q 101 -26 138 -42 q 40 17 64 -11 q 15 89 15 46 q 61 183 15 140 q 190 225 107 225 q 304 205 251 225 q 408 156 357 185 q 513 100 458 128 q 585 185 551 138 q 653 288 619 232 l 524 288 q 535 315 524 304 q 561 326 546 326 l 675 326 q 779 522 726 418 q 894 727 832 625 q 1036 918 956 829 l 1117 1008 q 1010 1022 1065 1017 q 894 1026 954 1026 q 716 1013 813 1026 q 524 969 619 999 q 351 896 429 940 q 225 790 272 851 q 178 650 178 729 q 202 564 178 596 q 263 517 226 532 q 338 503 300 503 q 443 531 400 503 q 508 597 486 560 q 529 664 529 635 q 543 674 529 674 q 557 651 557 674 q 522 553 557 594 q 435 489 488 511 q 331 467 383 467 q 231 490 282 467 q 147 561 181 514 q 114 678 114 608 q 161 826 114 761 q 288 936 208 890 q 464 1012 367 982 q 660 1056 561 1042 q 847 1069 760 1069 q 1005 1062 928 1069 q 1150 1039 1082 1054 q 1190 1068 1169 1056 q 1226 1088 1210 1081 q 1251 1094 1242 1094 q 1263 1086 1263 1094 q 1247 1071 1263 1082 q 1216 1045 1229 1057 q 1200 1028 1203 1033 q 1430 928 1342 992 q 1518 779 1518 865 q 1469 655 1518 708 q 1342 571 1421 601 q 1175 536 1264 540 q 1374 432 1300 496 q 1449 269 1449 368 q 1406 136 1449 196 q 1294 34 1364 76 q 1140 -31 1224 -8 q 975 -54 1057 -54 q 747 -28 846 -54 q 540 47 647 -1 q 247 -54 406 -54 m 956 -14 q 1113 13 1042 -14 q 1235 82 1183 39 q 1316 178 1288 125 q 1344 282 1344 231 q 1315 376 1344 331 q 1224 451 1286 421 q 1082 508 1143 492 q 985 538 1021 524 q 967 547 971 544 q 963 553 963 550 q 976 575 963 567 q 1008 583 990 583 q 1068 579 1036 583 q 1136 575 1100 575 q 1292 611 1226 575 q 1392 701 1357 647 q 1428 808 1428 756 q 1375 913 1428 868 q 1183 994 1322 958 q 1047 785 1115 900 q 912 551 979 671 q 776 326 844 432 l 929 326 q 892 288 929 288 l 750 288 q 687 199 718 240 q 624 124 656 158 q 597 97 607 106 q 571 72 588 88 q 754 12 654 38 q 956 -14 854 -14 m 219 -11 q 362 8 297 -15 q 482 72 426 31 q 397 115 449 89 q 293 162 346 142 q 201 182 240 182 q 124 155 150 182 q 97 93 97 128 q 128 24 97 57 q 219 -11 158 -8 z "},"C":{"ha":992,"x_min":83,"x_max":1188,"o":"m 515 -149 q 291 -98 389 -149 q 138 52 193 -47 q 83 296 83 151 q 106 468 83 382 q 166 633 128 554 q 251 779 204 713 q 231 960 231 863 q 247 1100 231 1033 q 267 1119 253 1119 q 276 1106 278 1119 q 269 1047 272 1078 q 267 972 267 1015 q 282 819 267 892 q 310 853 296 838 q 444 970 367 915 q 617 1058 522 1025 q 819 1092 713 1092 q 1003 1055 919 1092 q 1137 949 1086 1018 q 1188 783 1188 881 q 1155 658 1188 722 q 1062 541 1122 594 q 916 454 1001 488 q 725 421 831 421 q 471 482 586 421 q 292 668 356 543 q 210 468 236 569 q 183 275 183 367 q 228 58 183 142 q 351 -65 272 -25 q 531 -104 429 -104 q 848 -13 711 -104 q 1074 268 985 78 q 1090 256 1090 268 q 855 -49 1004 50 q 515 -149 706 -149 m 351 761 q 317 710 333 736 q 465 526 365 596 q 717 457 565 457 q 888 486 813 457 q 1016 564 964 515 q 1096 672 1068 613 q 1124 790 1124 731 q 1084 919 1124 864 q 976 1006 1044 975 q 822 1038 908 1038 q 649 1001 736 1038 q 485 903 563 965 q 351 761 408 840 z "},"Ć":{"ha":992,"x_min":83,"x_max":1188,"o":"m 515 -149 q 291 -98 389 -149 q 138 52 193 -47 q 83 296 83 151 q 106 468 83 382 q 166 633 128 554 q 251 779 204 713 q 231 960 231 863 q 247 1100 231 1033 q 267 1119 253 1119 q 276 1106 278 1119 q 269 1047 272 1078 q 267 972 267 1015 q 282 819 267 892 q 310 853 296 838 q 444 970 367 915 q 617 1058 522 1025 q 819 1092 713 1092 q 1003 1055 919 1092 q 1137 949 1086 1018 q 1188 783 1188 881 q 1155 658 1188 722 q 1062 541 1122 594 q 916 454 1001 488 q 725 421 831 421 q 471 482 586 421 q 292 668 356 543 q 210 468 236 569 q 183 275 183 367 q 228 58 183 142 q 351 -65 272 -25 q 531 -104 429 -104 q 848 -13 711 -104 q 1074 268 985 78 q 1090 256 1090 268 q 855 -49 1004 50 q 515 -149 706 -149 m 351 761 q 317 710 333 736 q 465 526 365 596 q 717 457 565 457 q 888 486 813 457 q 1016 564 964 515 q 1096 672 1068 613 q 1124 790 1124 731 q 1084 919 1124 864 q 976 1006 1044 975 q 822 1038 908 1038 q 649 1001 736 1038 q 485 903 563 965 q 351 761 408 840 m 842 1169 q 824 1176 832 1172 q 817 1189 817 1179 q 926 1268 871 1225 q 1032 1353 982 1311 q 1053 1340 1043 1353 q 1061 1293 1064 1328 q 1017 1265 1047 1283 q 953 1228 988 1247 q 888 1194 918 1210 q 842 1169 858 1178 z "},"Č":{"ha":992,"x_min":83,"x_max":1188,"o":"m 515 -149 q 291 -98 389 -149 q 138 52 193 -47 q 83 296 83 151 q 106 468 83 382 q 166 633 128 554 q 251 779 204 713 q 231 960 231 863 q 247 1100 231 1033 q 267 1119 253 1119 q 276 1106 278 1119 q 269 1047 272 1078 q 267 972 267 1015 q 282 819 267 892 q 310 853 296 838 q 444 970 367 915 q 617 1058 522 1025 q 819 1092 713 1092 q 1003 1055 919 1092 q 1137 949 1086 1018 q 1188 783 1188 881 q 1155 658 1188 722 q 1062 541 1122 594 q 916 454 1001 488 q 725 421 831 421 q 471 482 586 421 q 292 668 356 543 q 210 468 236 569 q 183 275 183 367 q 228 58 183 142 q 351 -65 272 -25 q 531 -104 429 -104 q 848 -13 711 -104 q 1074 268 985 78 q 1090 256 1090 268 q 855 -49 1004 50 q 515 -149 706 -149 m 351 761 q 317 710 333 736 q 465 526 365 596 q 717 457 565 457 q 888 486 813 457 q 1016 564 964 515 q 1096 672 1068 613 q 1124 790 1124 731 q 1084 919 1124 864 q 976 1006 1044 975 q 822 1038 908 1038 q 649 1001 736 1038 q 485 903 563 965 q 351 761 408 840 m 890 1186 q 858 1206 867 1186 l 808 1324 q 804 1333 807 1326 q 801 1340 801 1339 q 813 1346 801 1346 q 838 1336 828 1346 l 914 1254 l 1078 1335 q 1119 1346 1100 1346 q 1135 1340 1135 1346 q 1130 1335 1135 1339 q 1122 1329 1125 1332 l 938 1200 q 890 1186 917 1186 z "},"Ç":{"ha":992,"x_min":83,"x_max":1188,"o":"m 515 -149 q 291 -98 389 -149 q 138 52 193 -47 q 83 296 83 151 q 106 468 83 382 q 166 633 128 554 q 251 779 204 713 q 231 960 231 863 q 247 1100 231 1033 q 267 1119 253 1119 q 276 1106 278 1119 q 269 1047 272 1078 q 267 972 267 1015 q 282 819 267 892 q 310 853 296 838 q 444 970 367 915 q 617 1058 522 1025 q 819 1092 713 1092 q 1003 1055 919 1092 q 1137 949 1086 1018 q 1188 783 1188 881 q 1155 658 1188 722 q 1062 541 1122 594 q 916 454 1001 488 q 725 421 831 421 q 471 482 586 421 q 292 668 356 543 q 210 468 236 569 q 183 275 183 367 q 228 58 183 142 q 351 -65 272 -25 q 531 -104 429 -104 q 848 -13 711 -104 q 1074 268 985 78 q 1090 256 1090 268 q 855 -49 1004 50 q 515 -149 706 -149 m 351 761 q 317 710 333 736 q 465 526 365 596 q 717 457 565 457 q 888 486 813 457 q 1016 564 964 515 q 1096 672 1068 613 q 1124 790 1124 731 q 1084 919 1124 864 q 976 1006 1044 975 q 822 1038 908 1038 q 649 1001 736 1038 q 485 903 563 965 q 351 761 408 840 m 421 -439 q 337 -415 367 -439 q 307 -374 307 -392 q 315 -358 307 -358 q 349 -390 329 -372 q 411 -408 369 -408 q 490 -378 451 -408 q 528 -297 528 -349 q 511 -256 528 -269 q 474 -243 494 -243 q 427 -258 442 -243 q 406 -279 413 -272 q 385 -271 399 -279 q 372 -256 372 -262 q 401 -221 383 -242 q 437 -178 418 -200 q 469 -142 456 -157 q 485 -128 482 -128 q 495 -131 489 -128 q 501 -137 501 -135 q 488 -156 499 -140 q 466 -190 478 -172 q 444 -222 454 -208 q 503 -211 463 -211 q 567 -232 536 -211 q 599 -296 599 -253 q 574 -363 599 -331 q 508 -417 549 -396 q 421 -439 468 -439 z "},"Ḉ":{"ha":992,"x_min":83,"x_max":1188,"o":"m 515 -149 q 291 -98 389 -149 q 138 52 193 -47 q 83 296 83 151 q 106 468 83 382 q 166 633 128 554 q 251 779 204 713 q 231 960 231 863 q 247 1100 231 1033 q 267 1119 253 1119 q 276 1106 278 1119 q 269 1047 272 1078 q 267 972 267 1015 q 282 819 267 892 q 310 853 296 838 q 444 970 367 915 q 617 1058 522 1025 q 819 1092 713 1092 q 1003 1055 919 1092 q 1137 949 1086 1018 q 1188 783 1188 881 q 1155 658 1188 722 q 1062 541 1122 594 q 916 454 1001 488 q 725 421 831 421 q 471 482 586 421 q 292 668 356 543 q 210 468 236 569 q 183 275 183 367 q 228 58 183 142 q 351 -65 272 -25 q 531 -104 429 -104 q 848 -13 711 -104 q 1074 268 985 78 q 1090 256 1090 268 q 855 -49 1004 50 q 515 -149 706 -149 m 351 761 q 317 710 333 736 q 465 526 365 596 q 717 457 565 457 q 888 486 813 457 q 1016 564 964 515 q 1096 672 1068 613 q 1124 790 1124 731 q 1084 919 1124 864 q 976 1006 1044 975 q 822 1038 908 1038 q 649 1001 736 1038 q 485 903 563 965 q 351 761 408 840 m 421 -439 q 337 -415 367 -439 q 307 -374 307 -392 q 315 -358 307 -358 q 349 -390 329 -372 q 411 -408 369 -408 q 490 -378 451 -408 q 528 -297 528 -349 q 511 -256 528 -269 q 474 -243 494 -243 q 427 -258 442 -243 q 406 -279 413 -272 q 385 -271 399 -279 q 372 -256 372 -262 q 401 -221 383 -242 q 437 -178 418 -200 q 469 -142 456 -157 q 485 -128 482 -128 q 495 -131 489 -128 q 501 -137 501 -135 q 488 -156 499 -140 q 466 -190 478 -172 q 444 -222 454 -208 q 503 -211 463 -211 q 567 -232 536 -211 q 599 -296 599 -253 q 574 -363 599 -331 q 508 -417 549 -396 q 421 -439 468 -439 m 842 1169 q 824 1176 832 1172 q 817 1189 817 1179 q 926 1268 871 1225 q 1032 1353 982 1311 q 1053 1340 1043 1353 q 1061 1293 1064 1328 q 1017 1265 1047 1283 q 953 1228 988 1247 q 888 1194 918 1210 q 842 1169 858 1178 z "},"Ĉ":{"ha":992,"x_min":83,"x_max":1188,"o":"m 515 -149 q 291 -98 389 -149 q 138 52 193 -47 q 83 296 83 151 q 106 468 83 382 q 166 633 128 554 q 251 779 204 713 q 231 960 231 863 q 247 1100 231 1033 q 267 1119 253 1119 q 276 1106 278 1119 q 269 1047 272 1078 q 267 972 267 1015 q 282 819 267 892 q 310 853 296 838 q 444 970 367 915 q 617 1058 522 1025 q 819 1092 713 1092 q 1003 1055 919 1092 q 1137 949 1086 1018 q 1188 783 1188 881 q 1155 658 1188 722 q 1062 541 1122 594 q 916 454 1001 488 q 725 421 831 421 q 471 482 586 421 q 292 668 356 543 q 210 468 236 569 q 183 275 183 367 q 228 58 183 142 q 351 -65 272 -25 q 531 -104 429 -104 q 848 -13 711 -104 q 1074 268 985 78 q 1090 256 1090 268 q 855 -49 1004 50 q 515 -149 706 -149 m 351 761 q 317 710 333 736 q 465 526 365 596 q 717 457 565 457 q 888 486 813 457 q 1016 564 964 515 q 1096 672 1068 613 q 1124 790 1124 731 q 1084 919 1124 864 q 976 1006 1044 975 q 822 1038 908 1038 q 649 1001 736 1038 q 485 903 563 965 q 351 761 408 840 m 965 1346 q 990 1340 985 1346 l 1051 1196 q 1052 1194 1051 1194 q 1053 1193 1053 1193 q 1042 1189 1053 1189 q 1028 1191 1036 1189 q 1018 1196 1021 1193 l 940 1275 l 765 1196 q 735 1188 756 1188 q 722 1190 728 1188 q 721 1196 717 1193 l 926 1340 q 942 1344 933 1343 q 965 1346 951 1346 z "},"Ċ":{"ha":992,"x_min":83,"x_max":1188,"o":"m 515 -149 q 291 -98 389 -149 q 138 52 193 -47 q 83 296 83 151 q 106 468 83 382 q 166 633 128 554 q 251 779 204 713 q 231 960 231 863 q 247 1100 231 1033 q 267 1119 253 1119 q 276 1106 278 1119 q 269 1047 272 1078 q 267 972 267 1015 q 282 819 267 892 q 310 853 296 838 q 444 970 367 915 q 617 1058 522 1025 q 819 1092 713 1092 q 1003 1055 919 1092 q 1137 949 1086 1018 q 1188 783 1188 881 q 1155 658 1188 722 q 1062 541 1122 594 q 916 454 1001 488 q 725 421 831 421 q 471 482 586 421 q 292 668 356 543 q 210 468 236 569 q 183 275 183 367 q 228 58 183 142 q 351 -65 272 -25 q 531 -104 429 -104 q 848 -13 711 -104 q 1074 268 985 78 q 1090 256 1090 268 q 855 -49 1004 50 q 515 -149 706 -149 m 351 761 q 317 710 333 736 q 465 526 365 596 q 717 457 565 457 q 888 486 813 457 q 1016 564 964 515 q 1096 672 1068 613 q 1124 790 1124 731 q 1084 919 1124 864 q 976 1006 1044 975 q 822 1038 908 1038 q 649 1001 736 1038 q 485 903 563 965 q 351 761 408 840 m 896 1179 q 865 1193 878 1179 q 851 1226 851 1207 q 871 1269 851 1250 q 914 1288 890 1288 q 947 1275 933 1288 q 961 1243 961 1263 q 942 1199 961 1218 q 896 1179 922 1179 z "},"Ꭓ":{"ha":1015,"x_min":-262,"x_max":1260,"o":"m -243 -440 q -258 -411 -262 -435 q -215 -359 -256 -399 q -110 -256 -174 -319 q -22 -165 -79 -225 q 110 -27 36 -106 q 267 139 185 51 q 429 314 349 226 q 578 478 510 401 l 578 544 q 577 690 578 619 q 573 815 576 760 q 563 901 569 871 q 510 993 549 967 q 419 1019 471 1019 q 350 1010 386 1019 q 278 983 314 1000 q 165 903 219 957 q 63 800 111 849 q 56 799 61 799 q 39 803 49 799 q 29 819 29 808 q 40 844 29 829 q 74 878 44 851 q 151 940 104 906 q 257 1008 199 975 q 376 1064 315 1042 q 494 1086 438 1086 q 563 1075 531 1086 q 622 1039 596 1064 q 660 949 646 1018 q 680 783 674 881 q 685 574 686 685 q 782 676 729 619 q 890 791 835 732 q 994 906 944 850 q 1083 1007 1044 963 q 1139 1078 1121 1051 q 1201 1145 1171 1122 q 1246 1169 1232 1168 q 1258 1161 1257 1172 q 1249 1133 1260 1153 q 1211 1081 1238 1113 q 1118 973 1176 1039 q 988 829 1060 907 q 838 671 915 751 q 688 519 760 590 q 683 376 683 468 q 688 205 683 283 q 703 83 692 126 q 749 -8 719 21 q 813 -36 778 -36 q 909 3 857 -36 q 1011 112 961 43 q 1097 268 1061 181 q 1114 256 1114 268 q 994 43 1063 128 q 856 -83 925 -42 q 733 -125 788 -125 q 644 -87 682 -125 q 590 21 606 -50 q 582 92 585 47 q 579 206 579 138 q 578 280 579 249 q 578 344 578 311 q 579 424 578 378 q 431 256 511 346 q 269 74 351 165 q 113 -103 188 -18 q -23 -255 38 -187 q -119 -364 -83 -322 q -196 -430 -167 -417 q -243 -440 -225 -443 z "},"Ƈ":{"ha":992,"x_min":83,"x_max":1111,"o":"m 521 -143 q 353 -119 432 -143 q 214 -42 275 -94 q 118 94 153 11 q 83 296 83 178 q 113 497 83 394 q 196 697 142 600 q 327 875 250 794 q 500 1010 404 956 q 707 1081 596 1064 q 727 1148 715 1114 q 754 1214 739 1182 q 819 1313 782 1272 q 907 1353 857 1353 q 967 1331 943 1353 q 1005 1274 992 1308 q 1018 1204 1018 1240 q 1011 1152 1018 1175 q 993 1115 1004 1129 q 975 1104 986 1104 q 964 1118 964 1104 q 974 1153 969 1133 q 979 1190 979 1172 q 963 1235 979 1217 q 921 1254 946 1254 q 854 1229 885 1254 q 800 1166 824 1204 q 763 1086 776 1128 q 794 1088 778 1088 q 974 1060 904 1088 q 1077 989 1043 1032 q 1111 900 1111 946 q 1058 790 1111 839 q 911 742 1006 742 q 803 765 854 742 q 722 838 753 788 q 692 972 692 889 q 694 1015 692 992 q 497 913 590 986 q 334 738 404 840 q 224 517 264 636 q 183 275 183 397 q 231 49 183 131 q 359 -66 279 -33 q 536 -99 439 -99 q 856 -10 726 -99 q 1074 268 985 78 q 1090 256 1090 268 q 860 -42 1000 60 q 521 -143 721 -143 m 740 985 q 790 830 740 875 q 907 785 839 785 q 1006 819 969 785 q 1043 897 1043 854 q 1019 962 1043 931 q 945 1013 994 993 q 819 1033 896 1033 q 744 1026 782 1033 q 740 985 740 1003 z "},"Ȼ":{"ha":992,"x_min":83,"x_max":1188,"o":"m 181 -243 l 269 -86 q 133 63 183 -33 q 83 296 83 160 q 106 468 83 382 q 166 633 128 554 q 251 779 204 713 q 231 960 231 863 q 247 1100 231 1033 q 267 1119 253 1119 q 276 1106 278 1119 q 269 1047 272 1078 q 267 972 267 1015 q 282 819 267 892 q 310 853 296 838 q 444 970 367 915 q 617 1058 522 1025 q 819 1092 713 1092 q 933 1078 879 1092 l 1035 1256 q 1051 1273 1042 1268 q 1067 1278 1060 1278 q 1085 1273 1075 1278 q 1096 1267 1094 1268 l 981 1064 q 1130 959 1072 1031 q 1188 783 1188 888 q 1155 658 1188 722 q 1062 541 1122 594 q 916 454 1001 488 q 725 421 831 421 q 621 429 671 421 l 342 -61 q 531 -104 419 -104 q 848 -13 711 -104 q 1074 268 985 78 q 1090 256 1090 268 q 855 -49 1004 50 q 515 -149 706 -149 q 314 -110 403 -149 l 244 -232 q 225 -249 236 -246 q 207 -253 214 -253 q 181 -243 189 -250 m 351 761 q 317 710 333 736 q 422 560 354 622 q 589 472 490 497 l 906 1029 q 822 1038 865 1038 q 649 1001 736 1038 q 485 903 563 965 q 351 761 408 840 m 1124 790 q 1077 929 1124 871 q 953 1015 1031 988 l 639 463 q 717 457 676 457 q 888 486 813 457 q 1016 564 964 515 q 1096 672 1068 613 q 1124 790 1124 731 m 183 275 q 215 88 183 164 q 300 -33 246 13 l 571 442 q 409 523 481 467 q 292 668 338 579 q 210 468 236 569 q 183 275 183 367 z "},"D":{"ha":1458,"x_min":47,"x_max":1474,"o":"m 272 -60 q 164 -43 215 -60 q 80 7 113 -26 q 47 90 47 40 q 92 183 47 142 q 221 225 138 225 q 387 185 308 225 q 553 100 465 146 q 684 265 626 171 q 795 463 742 358 q 906 670 849 567 q 1033 863 963 774 q 1058 894 1046 878 q 1085 925 1071 910 q 924 994 1010 969 q 746 1018 838 1018 q 535 989 632 1018 q 366 910 438 960 q 254 799 294 861 q 214 672 214 738 q 238 576 214 614 q 300 519 263 538 q 374 501 338 501 q 457 520 422 501 q 514 567 492 539 q 547 621 536 594 q 560 664 558 647 q 572 674 560 674 q 588 650 592 674 q 546 553 581 594 q 463 490 511 513 q 363 467 414 467 q 251 490 301 467 q 172 559 201 513 q 142 674 142 606 q 190 835 142 764 q 324 957 239 907 q 518 1033 408 1007 q 750 1060 628 1060 q 940 1037 844 1060 q 1122 968 1036 1014 q 1197 1040 1158 1008 q 1275 1088 1235 1071 q 1304 1094 1293 1094 q 1313 1090 1313 1094 q 1281 1056 1313 1083 q 1238 1005 1263 1039 q 1186 931 1213 971 q 1334 799 1269 876 q 1436 624 1399 722 q 1474 407 1474 526 q 1433 203 1474 290 q 1324 60 1393 117 q 1164 -26 1254 3 q 974 -54 1074 -54 q 755 -22 856 -54 q 568 50 654 10 q 427 -32 500 -4 q 272 -60 354 -60 m 1092 782 q 1021 666 1063 736 q 928 514 979 596 q 821 350 876 432 q 709 197 765 268 q 600 76 653 125 q 763 14 674 40 q 964 -12 851 -12 q 1186 41 1092 -12 q 1333 187 1281 94 q 1386 396 1386 279 q 1322 672 1386 547 q 1151 879 1258 796 q 1118 824 1133 850 q 1092 782 1103 799 m 272 -17 q 410 9 343 -21 q 522 74 478 39 q 369 147 439 114 q 239 181 299 181 q 164 152 190 181 q 138 89 138 124 q 173 15 138 44 q 272 -17 208 -14 z "},"Ǆ":{"ha":2251,"x_min":47,"x_max":2808,"o":"m 2443 1144 q 2411 1164 2419 1144 l 2361 1282 q 2357 1291 2360 1285 q 2354 1299 2354 1297 q 2365 1304 2354 1304 q 2390 1294 2381 1304 l 2467 1213 l 2631 1293 q 2672 1304 2653 1304 q 2688 1299 2688 1304 q 2683 1294 2688 1297 q 2675 1288 2678 1290 l 2490 1158 q 2443 1144 2469 1144 m 272 -60 q 164 -43 215 -60 q 80 7 113 -26 q 47 90 47 40 q 92 183 47 142 q 221 225 138 225 q 387 185 308 225 q 553 100 465 146 q 684 265 626 171 q 795 463 742 358 q 906 670 849 567 q 1033 863 963 774 q 1058 894 1046 878 q 1085 925 1071 910 q 924 994 1010 969 q 746 1018 838 1018 q 535 989 632 1018 q 366 910 438 960 q 254 799 294 861 q 214 672 214 738 q 238 576 214 614 q 300 519 263 538 q 374 501 338 501 q 457 520 422 501 q 514 567 492 539 q 547 621 536 594 q 560 664 558 647 q 572 674 560 674 q 588 650 592 674 q 546 553 581 594 q 463 490 511 513 q 363 467 414 467 q 251 490 301 467 q 172 559 201 513 q 142 674 142 606 q 190 835 142 764 q 324 957 239 907 q 518 1033 408 1007 q 750 1060 628 1060 q 940 1037 844 1060 q 1122 968 1036 1014 q 1197 1040 1158 1008 q 1275 1088 1235 1071 q 1304 1094 1293 1094 q 1313 1090 1313 1094 q 1281 1056 1313 1083 q 1238 1005 1263 1039 q 1186 931 1213 971 q 1334 799 1269 876 q 1436 624 1399 722 q 1474 407 1474 526 q 1433 203 1474 290 q 1324 60 1393 117 q 1164 -26 1254 3 q 974 -54 1074 -54 q 755 -22 856 -54 q 568 50 654 10 q 427 -32 500 -4 q 272 -60 354 -60 m 1431 -319 q 1363 -306 1399 -319 q 1303 -262 1328 -292 q 1279 -187 1279 -232 q 1316 -101 1279 -133 q 1413 -69 1353 -69 q 1537 -101 1469 -69 q 1679 -181 1604 -132 q 1765 -72 1717 -140 q 1869 80 1814 -3 q 1981 247 1925 163 q 2089 400 2038 331 q 2232 593 2160 496 q 2371 773 2304 690 q 2489 907 2438 856 q 2294 948 2404 931 q 2044 965 2185 965 q 1878 939 1949 965 q 1770 872 1808 913 q 1732 789 1732 832 q 1756 729 1732 750 q 1799 696 1781 708 q 1815 679 1815 686 q 1799 669 1815 669 q 1744 692 1769 669 q 1701 748 1718 714 q 1685 818 1685 782 q 1732 939 1685 889 q 1856 1015 1779 989 q 2019 1040 1932 1040 q 2194 1021 2107 1040 q 2364 976 2282 1001 q 2515 928 2446 950 q 2571 970 2539 946 q 2642 1013 2603 994 q 2726 1032 2682 1032 q 2786 1013 2764 1032 q 2808 967 2808 994 q 2772 897 2808 924 q 2685 871 2735 871 q 2617 877 2654 871 q 2539 893 2581 883 q 2456 785 2501 853 q 2361 637 2410 717 q 2264 479 2313 557 q 2172 340 2215 401 q 2043 169 2110 253 q 1913 11 1976 85 q 1798 -118 1850 -62 q 1711 -203 1746 -174 q 1848 -283 1771 -236 q 2010 -374 1925 -329 q 2178 -449 2094 -419 q 2335 -479 2263 -479 q 2466 -467 2403 -479 q 2573 -424 2529 -456 q 2625 -336 2617 -393 q 2643 -304 2629 -304 q 2656 -315 2650 -304 q 2658 -356 2661 -325 q 2643 -410 2657 -376 q 2595 -477 2629 -443 q 2500 -535 2561 -511 q 2342 -558 2439 -558 q 2177 -531 2257 -558 q 2024 -462 2097 -504 q 1886 -374 1950 -419 q 1771 -288 1822 -328 q 1683 -228 1719 -249 q 1544 -300 1610 -281 q 1431 -319 1478 -319 m 2701 892 q 2758 907 2733 892 q 2782 957 2782 922 q 2767 989 2782 976 q 2729 1001 2751 1001 q 2660 978 2699 1001 q 2574 915 2622 956 q 2643 899 2611 906 q 2701 892 2675 892 m 1092 782 q 1021 666 1063 736 q 928 514 979 596 q 821 350 876 432 q 709 197 765 268 q 600 76 653 125 q 763 14 674 40 q 964 -12 851 -12 q 1186 41 1092 -12 q 1333 187 1281 94 q 1386 396 1386 279 q 1322 672 1386 547 q 1151 879 1258 796 q 1118 824 1133 850 q 1092 782 1103 799 m 272 -17 q 410 9 343 -21 q 522 74 478 39 q 369 147 439 114 q 239 181 299 181 q 164 152 190 181 q 138 89 138 124 q 173 15 138 44 q 272 -17 208 -14 m 1479 -275 q 1580 -251 1528 -275 q 1663 -200 1632 -226 q 1649 -190 1663 -200 q 1624 -175 1635 -181 q 1531 -130 1572 -143 q 1461 -117 1489 -117 q 1383 -140 1410 -117 q 1357 -192 1357 -164 q 1388 -249 1357 -222 q 1479 -275 1418 -275 z "},"Ď":{"ha":1458,"x_min":47,"x_max":1474,"o":"m 272 -60 q 164 -43 215 -60 q 80 7 113 -26 q 47 90 47 40 q 92 183 47 142 q 221 225 138 225 q 387 185 308 225 q 553 100 465 146 q 684 265 626 171 q 795 463 742 358 q 906 670 849 567 q 1033 863 963 774 q 1058 894 1046 878 q 1085 925 1071 910 q 924 994 1010 969 q 746 1018 838 1018 q 535 989 632 1018 q 366 910 438 960 q 254 799 294 861 q 214 672 214 738 q 238 576 214 614 q 300 519 263 538 q 374 501 338 501 q 457 520 422 501 q 514 567 492 539 q 547 621 536 594 q 560 664 558 647 q 572 674 560 674 q 588 650 592 674 q 546 553 581 594 q 463 490 511 513 q 363 467 414 467 q 251 490 301 467 q 172 559 201 513 q 142 674 142 606 q 190 835 142 764 q 324 957 239 907 q 518 1033 408 1007 q 750 1060 628 1060 q 940 1037 844 1060 q 1122 968 1036 1014 q 1197 1040 1158 1008 q 1275 1088 1235 1071 q 1304 1094 1293 1094 q 1313 1090 1313 1094 q 1281 1056 1313 1083 q 1238 1005 1263 1039 q 1186 931 1213 971 q 1334 799 1269 876 q 1436 624 1399 722 q 1474 407 1474 526 q 1433 203 1474 290 q 1324 60 1393 117 q 1164 -26 1254 3 q 974 -54 1074 -54 q 755 -22 856 -54 q 568 50 654 10 q 427 -32 500 -4 q 272 -60 354 -60 m 1092 782 q 1021 666 1063 736 q 928 514 979 596 q 821 350 876 432 q 709 197 765 268 q 600 76 653 125 q 763 14 674 40 q 964 -12 851 -12 q 1186 41 1092 -12 q 1333 187 1281 94 q 1386 396 1386 279 q 1322 672 1386 547 q 1151 879 1258 796 q 1118 824 1133 850 q 1092 782 1103 799 m 272 -17 q 410 9 343 -21 q 522 74 478 39 q 369 147 439 114 q 239 181 299 181 q 164 152 190 181 q 138 89 138 124 q 173 15 138 44 q 272 -17 208 -14 m 1126 1186 q 1094 1206 1103 1186 l 1044 1324 q 1040 1333 1043 1326 q 1038 1340 1038 1339 q 1049 1346 1038 1346 q 1074 1336 1064 1346 l 1150 1254 l 1314 1335 q 1356 1346 1336 1346 q 1371 1340 1371 1346 q 1366 1335 1371 1339 q 1358 1329 1361 1332 l 1174 1200 q 1126 1186 1153 1186 z "},"Ḑ":{"ha":1458,"x_min":47,"x_max":1474,"o":"m 272 -60 q 164 -43 215 -60 q 80 7 113 -26 q 47 90 47 40 q 92 183 47 142 q 221 225 138 225 q 387 185 308 225 q 553 100 465 146 q 684 265 626 171 q 795 463 742 358 q 906 670 849 567 q 1033 863 963 774 q 1058 894 1046 878 q 1085 925 1071 910 q 924 994 1010 969 q 746 1018 838 1018 q 535 989 632 1018 q 366 910 438 960 q 254 799 294 861 q 214 672 214 738 q 238 576 214 614 q 300 519 263 538 q 374 501 338 501 q 457 520 422 501 q 514 567 492 539 q 547 621 536 594 q 560 664 558 647 q 572 674 560 674 q 588 650 592 674 q 546 553 581 594 q 463 490 511 513 q 363 467 414 467 q 251 490 301 467 q 172 559 201 513 q 142 674 142 606 q 190 835 142 764 q 324 957 239 907 q 518 1033 408 1007 q 750 1060 628 1060 q 940 1037 844 1060 q 1122 968 1036 1014 q 1197 1040 1158 1008 q 1275 1088 1235 1071 q 1304 1094 1293 1094 q 1313 1090 1313 1094 q 1281 1056 1313 1083 q 1238 1005 1263 1039 q 1186 931 1213 971 q 1334 799 1269 876 q 1436 624 1399 722 q 1474 407 1474 526 q 1433 203 1474 290 q 1324 60 1393 117 q 1164 -26 1254 3 q 974 -54 1074 -54 q 755 -22 856 -54 q 568 50 654 10 q 427 -32 500 -4 q 272 -60 354 -60 m 1092 782 q 1021 666 1063 736 q 928 514 979 596 q 821 350 876 432 q 709 197 765 268 q 600 76 653 125 q 763 14 674 40 q 964 -12 851 -12 q 1186 41 1092 -12 q 1333 187 1281 94 q 1386 396 1386 279 q 1322 672 1386 547 q 1151 879 1258 796 q 1118 824 1133 850 q 1092 782 1103 799 m 272 -17 q 410 9 343 -21 q 522 74 478 39 q 369 147 439 114 q 239 181 299 181 q 164 152 190 181 q 138 89 138 124 q 173 15 138 44 q 272 -17 208 -14 m 676 -307 q 668 -296 668 -307 q 734 -258 708 -283 q 764 -194 760 -232 q 749 -203 757 -200 q 732 -207 742 -207 q 706 -195 715 -207 q 696 -167 696 -183 q 713 -126 696 -139 q 749 -114 731 -114 q 785 -129 772 -114 q 799 -167 799 -144 q 780 -233 799 -204 q 733 -281 761 -262 q 676 -307 704 -300 z "},"Ḓ":{"ha":1458,"x_min":47,"x_max":1474,"o":"m 272 -60 q 164 -43 215 -60 q 80 7 113 -26 q 47 90 47 40 q 92 183 47 142 q 221 225 138 225 q 387 185 308 225 q 553 100 465 146 q 684 265 626 171 q 795 463 742 358 q 906 670 849 567 q 1033 863 963 774 q 1058 894 1046 878 q 1085 925 1071 910 q 924 994 1010 969 q 746 1018 838 1018 q 535 989 632 1018 q 366 910 438 960 q 254 799 294 861 q 214 672 214 738 q 238 576 214 614 q 300 519 263 538 q 374 501 338 501 q 457 520 422 501 q 514 567 492 539 q 547 621 536 594 q 560 664 558 647 q 572 674 560 674 q 588 650 592 674 q 546 553 581 594 q 463 490 511 513 q 363 467 414 467 q 251 490 301 467 q 172 559 201 513 q 142 674 142 606 q 190 835 142 764 q 324 957 239 907 q 518 1033 408 1007 q 750 1060 628 1060 q 940 1037 844 1060 q 1122 968 1036 1014 q 1197 1040 1158 1008 q 1275 1088 1235 1071 q 1304 1094 1293 1094 q 1313 1090 1313 1094 q 1281 1056 1313 1083 q 1238 1005 1263 1039 q 1186 931 1213 971 q 1334 799 1269 876 q 1436 624 1399 722 q 1474 407 1474 526 q 1433 203 1474 290 q 1324 60 1393 117 q 1164 -26 1254 3 q 974 -54 1074 -54 q 755 -22 856 -54 q 568 50 654 10 q 427 -32 500 -4 q 272 -60 354 -60 m 1092 782 q 1021 666 1063 736 q 928 514 979 596 q 821 350 876 432 q 709 197 765 268 q 600 76 653 125 q 763 14 674 40 q 964 -12 851 -12 q 1186 41 1092 -12 q 1333 187 1281 94 q 1386 396 1386 279 q 1322 672 1386 547 q 1151 879 1258 796 q 1118 824 1133 850 q 1092 782 1103 799 m 272 -17 q 410 9 343 -21 q 522 74 478 39 q 369 147 439 114 q 239 181 299 181 q 164 152 190 181 q 138 89 138 124 q 173 15 138 44 q 272 -17 208 -14 m 817 -250 q 797 -243 801 -250 l 731 -168 l 600 -240 q 589 -246 594 -243 q 578 -249 583 -249 q 564 -242 567 -249 l 718 -111 q 747 -104 729 -104 q 765 -111 761 -104 l 822 -243 q 823 -245 822 -244 q 824 -246 824 -246 q 817 -250 824 -250 z "},"Đ":{"ha":1433,"x_min":6,"x_max":1432,"o":"m 240 -54 q 175 -50 208 -54 q 47 2 88 -39 q 6 90 6 43 q 51 183 6 142 q 179 225 96 225 q 300 203 235 225 q 369 174 328 194 q 450 133 410 154 q 513 100 490 113 q 624 236 574 158 q 722 400 675 314 l 593 400 q 601 428 593 408 q 632 449 610 449 l 749 449 q 883 699 814 572 q 1042 925 951 825 q 883 994 969 969 q 704 1018 796 1018 q 634 1014 669 1018 q 563 1003 599 1010 q 344 915 433 975 q 210 783 256 854 q 165 647 165 711 q 190 564 165 600 q 267 513 215 528 q 332 501 304 501 q 412 520 378 501 q 469 567 446 539 q 505 621 493 594 q 518 664 517 647 q 531 674 518 674 q 546 650 550 674 q 504 553 539 594 q 421 490 469 513 q 321 467 372 467 q 251 478 288 467 q 144 555 188 500 q 100 685 100 610 q 149 833 100 758 q 307 967 199 907 q 590 1051 415 1026 q 708 1060 649 1060 q 902 1036 807 1060 q 1082 968 997 1013 l 1117 1008 q 1152 1036 1129 1019 q 1199 1068 1175 1053 q 1233 1088 1222 1083 q 1263 1094 1251 1094 q 1271 1090 1271 1094 q 1249 1067 1271 1081 q 1224 1045 1235 1057 q 1207 1026 1213 1033 q 1174 979 1186 997 q 1143 932 1163 961 q 1351 713 1271 847 q 1432 407 1432 579 q 1428 333 1432 371 q 1379 172 1419 244 q 1274 50 1339 100 q 1131 -27 1210 0 q 967 -54 1053 -54 q 903 -50 935 -54 q 678 -6 767 -33 q 524 50 590 21 q 240 -54 397 -54 m 943 -12 q 1140 35 1054 -12 q 1278 161 1225 83 q 1340 329 1331 239 q 1344 396 1344 363 q 1280 672 1344 547 q 1110 881 1215 796 q 978 668 1046 781 q 843 449 911 556 l 1010 449 q 1008 433 1010 446 q 999 410 1007 421 q 972 400 992 400 l 813 400 q 708 245 758 317 q 611 125 657 174 q 587 101 601 117 q 557 75 572 85 q 706 22 622 46 q 901 -11 789 -1 q 923 -12 914 -12 q 943 -12 932 -12 m 210 -11 q 353 8 286 -15 q 476 72 419 31 q 375 122 426 96 q 267 168 324 147 q 200 181 229 181 q 122 152 149 181 q 96 89 96 124 q 125 22 96 51 q 210 -11 154 -8 z "},"Ḋ":{"ha":1458,"x_min":47,"x_max":1474,"o":"m 272 -60 q 164 -43 215 -60 q 80 7 113 -26 q 47 90 47 40 q 92 183 47 142 q 221 225 138 225 q 387 185 308 225 q 553 100 465 146 q 684 265 626 171 q 795 463 742 358 q 906 670 849 567 q 1033 863 963 774 q 1058 894 1046 878 q 1085 925 1071 910 q 924 994 1010 969 q 746 1018 838 1018 q 535 989 632 1018 q 366 910 438 960 q 254 799 294 861 q 214 672 214 738 q 238 576 214 614 q 300 519 263 538 q 374 501 338 501 q 457 520 422 501 q 514 567 492 539 q 547 621 536 594 q 560 664 558 647 q 572 674 560 674 q 588 650 592 674 q 546 553 581 594 q 463 490 511 513 q 363 467 414 467 q 251 490 301 467 q 172 559 201 513 q 142 674 142 606 q 190 835 142 764 q 324 957 239 907 q 518 1033 408 1007 q 750 1060 628 1060 q 940 1037 844 1060 q 1122 968 1036 1014 q 1197 1040 1158 1008 q 1275 1088 1235 1071 q 1304 1094 1293 1094 q 1313 1090 1313 1094 q 1281 1056 1313 1083 q 1238 1005 1263 1039 q 1186 931 1213 971 q 1334 799 1269 876 q 1436 624 1399 722 q 1474 407 1474 526 q 1433 203 1474 290 q 1324 60 1393 117 q 1164 -26 1254 3 q 974 -54 1074 -54 q 755 -22 856 -54 q 568 50 654 10 q 427 -32 500 -4 q 272 -60 354 -60 m 1092 782 q 1021 666 1063 736 q 928 514 979 596 q 821 350 876 432 q 709 197 765 268 q 600 76 653 125 q 763 14 674 40 q 964 -12 851 -12 q 1186 41 1092 -12 q 1333 187 1281 94 q 1386 396 1386 279 q 1322 672 1386 547 q 1151 879 1258 796 q 1118 824 1133 850 q 1092 782 1103 799 m 272 -17 q 410 9 343 -21 q 522 74 478 39 q 369 147 439 114 q 239 181 299 181 q 164 152 190 181 q 138 89 138 124 q 173 15 138 44 q 272 -17 208 -14 m 1132 1179 q 1101 1193 1114 1179 q 1088 1226 1088 1207 q 1107 1269 1088 1250 q 1150 1288 1126 1288 q 1183 1275 1169 1288 q 1197 1243 1197 1263 q 1178 1199 1197 1218 q 1132 1179 1158 1179 z "},"Ḍ":{"ha":1458,"x_min":47,"x_max":1474,"o":"m 272 -60 q 164 -43 215 -60 q 80 7 113 -26 q 47 90 47 40 q 92 183 47 142 q 221 225 138 225 q 387 185 308 225 q 553 100 465 146 q 684 265 626 171 q 795 463 742 358 q 906 670 849 567 q 1033 863 963 774 q 1058 894 1046 878 q 1085 925 1071 910 q 924 994 1010 969 q 746 1018 838 1018 q 535 989 632 1018 q 366 910 438 960 q 254 799 294 861 q 214 672 214 738 q 238 576 214 614 q 300 519 263 538 q 374 501 338 501 q 457 520 422 501 q 514 567 492 539 q 547 621 536 594 q 560 664 558 647 q 572 674 560 674 q 588 650 592 674 q 546 553 581 594 q 463 490 511 513 q 363 467 414 467 q 251 490 301 467 q 172 559 201 513 q 142 674 142 606 q 190 835 142 764 q 324 957 239 907 q 518 1033 408 1007 q 750 1060 628 1060 q 940 1037 844 1060 q 1122 968 1036 1014 q 1197 1040 1158 1008 q 1275 1088 1235 1071 q 1304 1094 1293 1094 q 1313 1090 1313 1094 q 1281 1056 1313 1083 q 1238 1005 1263 1039 q 1186 931 1213 971 q 1334 799 1269 876 q 1436 624 1399 722 q 1474 407 1474 526 q 1433 203 1474 290 q 1324 60 1393 117 q 1164 -26 1254 3 q 974 -54 1074 -54 q 755 -22 856 -54 q 568 50 654 10 q 427 -32 500 -4 q 272 -60 354 -60 m 1092 782 q 1021 666 1063 736 q 928 514 979 596 q 821 350 876 432 q 709 197 765 268 q 600 76 653 125 q 763 14 674 40 q 964 -12 851 -12 q 1186 41 1092 -12 q 1333 187 1281 94 q 1386 396 1386 279 q 1322 672 1386 547 q 1151 879 1258 796 q 1118 824 1133 850 q 1092 782 1103 799 m 272 -17 q 410 9 343 -21 q 522 74 478 39 q 369 147 439 114 q 239 181 299 181 q 164 152 190 181 q 138 89 138 124 q 173 15 138 44 q 272 -17 208 -14 m 711 -215 q 681 -202 693 -215 q 669 -171 669 -189 q 688 -131 669 -147 q 728 -114 706 -114 q 760 -126 747 -114 q 772 -156 772 -137 q 754 -197 772 -178 q 711 -215 736 -215 z "},"Ɗ":{"ha":1458,"x_min":6,"x_max":1449,"o":"m 324 460 q 281 456 303 456 q 218 469 249 456 q 168 518 188 483 q 154 582 154 544 q 183 715 154 643 q 251 851 213 788 q 278 902 264 872 q 299 963 293 932 q 231 1047 231 996 q 237 1074 231 1058 q 265 1090 243 1090 q 311 1064 296 1090 q 328 1000 326 1038 q 444 968 375 982 q 593 942 514 954 q 751 922 672 931 q 898 904 831 913 q 1010 888 965 896 q 1042 925 1025 907 l 1082 968 q 1156 1039 1117 1006 q 1233 1088 1194 1072 q 1263 1094 1251 1094 q 1271 1090 1271 1094 q 1249 1067 1271 1081 q 1211 1030 1232 1056 q 1170 974 1190 1004 q 1133 917 1150 943 q 1110 881 1117 892 q 1099 863 1104 872 q 1305 752 1228 817 q 1415 608 1382 688 q 1449 440 1449 529 q 1381 174 1449 282 q 1197 12 1314 67 q 933 -43 1081 -43 q 735 -20 839 -43 q 524 50 631 3 q 240 -54 397 -54 q 175 -50 208 -54 q 47 2 88 -39 q 6 90 6 43 q 51 183 6 142 q 179 225 96 225 q 300 203 235 225 q 369 174 328 194 q 450 133 410 154 q 513 100 490 113 q 636 255 581 165 q 743 445 692 344 q 849 647 794 546 q 969 838 904 749 q 825 867 910 856 q 648 889 740 879 q 471 913 556 899 q 326 950 386 926 q 311 881 321 914 q 294 833 301 849 q 264 744 276 789 q 251 660 251 700 q 269 585 251 615 q 298 549 281 564 q 346 533 315 533 q 376 538 360 533 q 427 574 407 546 q 460 626 447 601 q 473 635 464 631 q 486 631 482 639 q 489 613 489 622 q 470 560 489 590 q 415 501 451 529 q 324 460 379 474 m 557 75 q 733 17 646 36 q 901 -3 821 -3 q 1138 47 1032 -3 q 1306 192 1243 96 q 1369 428 1369 288 q 1299 642 1369 543 q 1063 804 1229 740 q 947 615 1006 713 q 829 426 888 518 q 716 256 771 335 q 611 125 661 178 q 587 101 601 117 q 557 75 572 85 m 210 -11 q 353 8 286 -15 q 476 72 419 31 q 375 122 426 96 q 267 168 324 147 q 200 181 229 181 q 122 152 149 181 q 96 89 96 124 q 125 22 96 51 q 210 -11 154 -8 z "},"Ḏ":{"ha":1458,"x_min":47,"x_max":1474,"o":"m 272 -60 q 164 -43 215 -60 q 80 7 113 -26 q 47 90 47 40 q 92 183 47 142 q 221 225 138 225 q 387 185 308 225 q 553 100 465 146 q 684 265 626 171 q 795 463 742 358 q 906 670 849 567 q 1033 863 963 774 q 1058 894 1046 878 q 1085 925 1071 910 q 924 994 1010 969 q 746 1018 838 1018 q 535 989 632 1018 q 366 910 438 960 q 254 799 294 861 q 214 672 214 738 q 238 576 214 614 q 300 519 263 538 q 374 501 338 501 q 457 520 422 501 q 514 567 492 539 q 547 621 536 594 q 560 664 558 647 q 572 674 560 674 q 588 650 592 674 q 546 553 581 594 q 463 490 511 513 q 363 467 414 467 q 251 490 301 467 q 172 559 201 513 q 142 674 142 606 q 190 835 142 764 q 324 957 239 907 q 518 1033 408 1007 q 750 1060 628 1060 q 940 1037 844 1060 q 1122 968 1036 1014 q 1197 1040 1158 1008 q 1275 1088 1235 1071 q 1304 1094 1293 1094 q 1313 1090 1313 1094 q 1281 1056 1313 1083 q 1238 1005 1263 1039 q 1186 931 1213 971 q 1334 799 1269 876 q 1436 624 1399 722 q 1474 407 1474 526 q 1433 203 1474 290 q 1324 60 1393 117 q 1164 -26 1254 3 q 974 -54 1074 -54 q 755 -22 856 -54 q 568 50 654 10 q 427 -32 500 -4 q 272 -60 354 -60 m 1092 782 q 1021 666 1063 736 q 928 514 979 596 q 821 350 876 432 q 709 197 765 268 q 600 76 653 125 q 763 14 674 40 q 964 -12 851 -12 q 1186 41 1092 -12 q 1333 187 1281 94 q 1386 396 1386 279 q 1322 672 1386 547 q 1151 879 1258 796 q 1118 824 1133 850 q 1092 782 1103 799 m 272 -17 q 410 9 343 -21 q 522 74 478 39 q 369 147 439 114 q 239 181 299 181 q 164 152 190 181 q 138 89 138 124 q 173 15 138 44 q 272 -17 208 -14 m 575 -168 q 585 -140 575 -156 q 622 -119 596 -125 l 896 -117 q 890 -142 896 -124 q 863 -168 883 -161 l 575 -168 z "},"Ɖ":{"ha":1433,"x_min":6,"x_max":1432,"o":"m 240 -54 q 175 -50 208 -54 q 47 2 88 -39 q 6 90 6 43 q 51 183 6 142 q 179 225 96 225 q 300 203 235 225 q 369 174 328 194 q 450 133 410 154 q 513 100 490 113 q 624 236 574 158 q 722 400 675 314 l 593 400 q 601 428 593 408 q 632 449 610 449 l 749 449 q 883 699 814 572 q 1042 925 951 825 q 883 994 969 969 q 704 1018 796 1018 q 634 1014 669 1018 q 563 1003 599 1010 q 344 915 433 975 q 210 783 256 854 q 165 647 165 711 q 190 564 165 600 q 267 513 215 528 q 332 501 304 501 q 412 520 378 501 q 469 567 446 539 q 505 621 493 594 q 518 664 517 647 q 531 674 518 674 q 546 650 550 674 q 504 553 539 594 q 421 490 469 513 q 321 467 372 467 q 251 478 288 467 q 144 555 188 500 q 100 685 100 610 q 149 833 100 758 q 307 967 199 907 q 590 1051 415 1026 q 708 1060 649 1060 q 902 1036 807 1060 q 1082 968 997 1013 l 1117 1008 q 1152 1036 1129 1019 q 1199 1068 1175 1053 q 1233 1088 1222 1083 q 1263 1094 1251 1094 q 1271 1090 1271 1094 q 1249 1067 1271 1081 q 1224 1045 1235 1057 q 1207 1026 1213 1033 q 1174 979 1186 997 q 1143 932 1163 961 q 1351 713 1271 847 q 1432 407 1432 579 q 1428 333 1432 371 q 1379 172 1419 244 q 1274 50 1339 100 q 1131 -27 1210 0 q 967 -54 1053 -54 q 903 -50 935 -54 q 678 -6 767 -33 q 524 50 590 21 q 240 -54 397 -54 m 943 -12 q 1140 35 1054 -12 q 1278 161 1225 83 q 1340 329 1331 239 q 1344 396 1344 363 q 1280 672 1344 547 q 1110 881 1215 796 q 978 668 1046 781 q 843 449 911 556 l 1010 449 q 1008 433 1010 446 q 999 410 1007 421 q 972 400 992 400 l 813 400 q 708 245 758 317 q 611 125 657 174 q 587 101 601 117 q 557 75 572 85 q 706 22 622 46 q 901 -11 789 -1 q 923 -12 914 -12 q 943 -12 932 -12 m 210 -11 q 353 8 286 -15 q 476 72 419 31 q 375 122 426 96 q 267 168 324 147 q 200 181 229 181 q 122 152 149 181 q 96 89 96 124 q 125 22 96 51 q 210 -11 154 -8 z "},"ǅ":{"ha":1935,"x_min":47,"x_max":2050,"o":"m 272 -60 q 164 -43 215 -60 q 80 7 113 -26 q 47 90 47 40 q 92 183 47 142 q 221 225 138 225 q 387 185 308 225 q 553 100 465 146 q 684 265 626 171 q 795 463 742 358 q 906 670 849 567 q 1033 863 963 774 q 1058 894 1046 878 q 1085 925 1071 910 q 924 994 1010 969 q 746 1018 838 1018 q 535 989 632 1018 q 366 910 438 960 q 254 799 294 861 q 214 672 214 738 q 238 576 214 614 q 300 519 263 538 q 374 501 338 501 q 457 520 422 501 q 514 567 492 539 q 547 621 536 594 q 560 664 558 647 q 572 674 560 674 q 588 650 592 674 q 546 553 581 594 q 463 490 511 513 q 363 467 414 467 q 251 490 301 467 q 172 559 201 513 q 142 674 142 606 q 190 835 142 764 q 324 957 239 907 q 518 1033 408 1007 q 750 1060 628 1060 q 940 1037 844 1060 q 1122 968 1036 1014 q 1197 1040 1158 1008 q 1275 1088 1235 1071 q 1304 1094 1293 1094 q 1313 1090 1313 1094 q 1281 1056 1313 1083 q 1238 1005 1263 1039 q 1186 931 1213 971 q 1334 799 1269 876 q 1436 624 1399 722 q 1474 407 1474 526 q 1433 203 1474 290 q 1324 60 1393 117 q 1164 -26 1254 3 q 974 -54 1074 -54 q 755 -22 856 -54 q 568 50 654 10 q 427 -32 500 -4 q 272 -60 354 -60 m 1092 782 q 1021 666 1063 736 q 928 514 979 596 q 821 350 876 432 q 709 197 765 268 q 600 76 653 125 q 763 14 674 40 q 964 -12 851 -12 q 1186 41 1092 -12 q 1333 187 1281 94 q 1386 396 1386 279 q 1322 672 1386 547 q 1151 879 1258 796 q 1118 824 1133 850 q 1092 782 1103 799 m 272 -17 q 410 9 343 -21 q 522 74 478 39 q 369 147 439 114 q 239 181 299 181 q 164 152 190 181 q 138 89 138 124 q 173 15 138 44 q 272 -17 208 -14 m 1540 268 q 1561 315 1550 290 q 1593 376 1572 339 q 1646 442 1618 421 q 1700 471 1674 464 q 1743 478 1726 478 q 1804 468 1778 478 q 1852 448 1831 458 q 1894 438 1874 438 q 1933 451 1921 438 q 1956 465 1946 465 q 1972 457 1965 465 q 1979 436 1979 449 q 1964 410 1979 418 q 1913 382 1949 401 q 1843 322 1874 361 q 1784 239 1813 283 q 1722 152 1756 194 q 1644 81 1689 110 q 1742 63 1697 72 q 1819 53 1786 53 q 1834 53 1828 53 q 1847 56 1840 54 q 1920 101 1889 67 q 1975 179 1951 135 q 2017 268 1999 224 q 2033 256 2033 268 q 1974 132 2008 193 q 1896 31 1939 71 q 1801 -10 1853 -10 q 1693 1 1740 -10 q 1614 13 1646 13 q 1563 -2 1588 13 q 1511 -17 1539 -17 q 1486 4 1486 -17 q 1493 28 1486 18 q 1522 47 1497 36 q 1574 67 1547 57 q 1611 83 1601 78 q 1666 131 1636 96 q 1728 212 1696 167 q 1790 300 1760 257 q 1849 372 1821 343 q 1792 385 1824 378 q 1732 392 1760 392 q 1663 384 1692 392 q 1609 347 1633 376 q 1557 256 1585 318 q 1540 268 1540 256 m 1847 569 q 1828 575 1833 569 l 1778 722 q 1777 724 1778 724 q 1776 725 1776 725 q 1785 729 1776 729 q 1806 722 1801 729 l 1868 642 l 2010 722 q 2035 731 2021 731 q 2046 728 2042 731 q 2046 722 2050 725 l 1879 575 q 1866 572 1874 574 q 1847 569 1858 569 z "},"Ð":{"ha":1433,"x_min":6,"x_max":1432,"o":"m 240 -54 q 175 -50 208 -54 q 47 2 88 -39 q 6 90 6 43 q 51 183 6 142 q 179 225 96 225 q 300 203 235 225 q 369 174 328 194 q 450 133 410 154 q 513 100 490 113 q 624 236 574 158 q 722 400 675 314 l 593 400 q 601 428 593 408 q 632 449 610 449 l 749 449 q 883 699 814 572 q 1042 925 951 825 q 883 994 969 969 q 704 1018 796 1018 q 634 1014 669 1018 q 563 1003 599 1010 q 344 915 433 975 q 210 783 256 854 q 165 647 165 711 q 190 564 165 600 q 267 513 215 528 q 332 501 304 501 q 412 520 378 501 q 469 567 446 539 q 505 621 493 594 q 518 664 517 647 q 531 674 518 674 q 546 650 550 674 q 504 553 539 594 q 421 490 469 513 q 321 467 372 467 q 251 478 288 467 q 144 555 188 500 q 100 685 100 610 q 149 833 100 758 q 307 967 199 907 q 590 1051 415 1026 q 708 1060 649 1060 q 902 1036 807 1060 q 1082 968 997 1013 l 1117 1008 q 1152 1036 1129 1019 q 1199 1068 1175 1053 q 1233 1088 1222 1083 q 1263 1094 1251 1094 q 1271 1090 1271 1094 q 1249 1067 1271 1081 q 1224 1045 1235 1057 q 1207 1026 1213 1033 q 1174 979 1186 997 q 1143 932 1163 961 q 1351 713 1271 847 q 1432 407 1432 579 q 1428 333 1432 371 q 1379 172 1419 244 q 1274 50 1339 100 q 1131 -27 1210 0 q 967 -54 1053 -54 q 903 -50 935 -54 q 678 -6 767 -33 q 524 50 590 21 q 240 -54 397 -54 m 943 -12 q 1140 35 1054 -12 q 1278 161 1225 83 q 1340 329 1331 239 q 1344 396 1344 363 q 1280 672 1344 547 q 1110 881 1215 796 q 978 668 1046 781 q 843 449 911 556 l 1010 449 q 1008 433 1010 446 q 999 410 1007 421 q 972 400 992 400 l 813 400 q 708 245 758 317 q 611 125 657 174 q 587 101 601 117 q 557 75 572 85 q 706 22 622 46 q 901 -11 789 -1 q 923 -12 914 -12 q 943 -12 932 -12 m 210 -11 q 353 8 286 -15 q 476 72 419 31 q 375 122 426 96 q 267 168 324 147 q 200 181 229 181 q 122 152 149 181 q 96 89 96 124 q 125 22 96 51 q 210 -11 154 -8 z "},"E":{"ha":1138,"x_min":31,"x_max":1199,"o":"m 453 -82 q 215 -42 308 -82 q 76 64 121 -1 q 31 203 31 129 q 74 354 31 286 q 187 472 117 422 q 342 551 257 522 q 508 585 426 581 q 391 658 436 611 q 346 760 346 704 q 381 869 346 817 q 476 965 417 921 q 612 1040 536 1008 q 769 1090 688 1072 q 928 1107 851 1107 q 1125 1065 1051 1107 q 1199 958 1199 1024 q 1134 840 1199 899 q 956 757 1069 782 q 926 753 933 753 q 911 765 911 753 q 916 772 911 769 q 938 779 921 774 q 1068 858 1019 807 q 1117 965 1117 908 q 1070 1044 1117 1014 q 931 1074 1024 1074 q 763 1050 847 1074 q 607 983 678 1026 q 493 885 536 940 q 450 764 450 829 q 478 688 450 717 q 549 641 506 658 q 638 613 592 624 q 724 590 685 603 q 742 579 738 586 q 746 565 746 572 q 726 535 746 547 q 669 522 706 522 q 620 523 647 522 q 563 524 593 524 q 472 519 519 524 q 367 497 424 515 q 241 428 294 475 q 158 324 188 381 q 129 211 129 267 q 163 81 129 139 q 268 -12 196 22 q 458 -46 340 -46 q 668 -18 567 -46 q 856 53 769 10 q 1003 144 942 97 q 1084 226 1053 185 q 1115 299 1115 268 q 1061 346 1115 338 q 1047 354 1047 347 q 1067 365 1047 365 q 1138 338 1107 365 q 1169 271 1169 311 q 1057 104 1169 192 q 891 8 989 50 q 680 -58 793 -33 q 453 -82 567 -82 z "},"É":{"ha":1138,"x_min":31,"x_max":1199,"o":"m 453 -82 q 215 -42 308 -82 q 76 64 121 -1 q 31 203 31 129 q 74 354 31 286 q 187 472 117 422 q 342 551 257 522 q 508 585 426 581 q 391 658 436 611 q 346 760 346 704 q 381 869 346 817 q 476 965 417 921 q 612 1040 536 1008 q 769 1090 688 1072 q 928 1107 851 1107 q 1125 1065 1051 1107 q 1199 958 1199 1024 q 1134 840 1199 899 q 956 757 1069 782 q 926 753 933 753 q 911 765 911 753 q 916 772 911 769 q 938 779 921 774 q 1068 858 1019 807 q 1117 965 1117 908 q 1070 1044 1117 1014 q 931 1074 1024 1074 q 763 1050 847 1074 q 607 983 678 1026 q 493 885 536 940 q 450 764 450 829 q 478 688 450 717 q 549 641 506 658 q 638 613 592 624 q 724 590 685 603 q 742 579 738 586 q 746 565 746 572 q 726 535 746 547 q 669 522 706 522 q 620 523 647 522 q 563 524 593 524 q 472 519 519 524 q 367 497 424 515 q 241 428 294 475 q 158 324 188 381 q 129 211 129 267 q 163 81 129 139 q 268 -12 196 22 q 458 -46 340 -46 q 668 -18 567 -46 q 856 53 769 10 q 1003 144 942 97 q 1084 226 1053 185 q 1115 299 1115 268 q 1061 346 1115 338 q 1047 354 1047 347 q 1067 365 1047 365 q 1138 338 1107 365 q 1169 271 1169 311 q 1057 104 1169 192 q 891 8 989 50 q 680 -58 793 -33 q 453 -82 567 -82 m 960 1186 q 942 1192 950 1189 q 935 1206 935 1196 q 1044 1285 989 1242 q 1150 1369 1100 1328 q 1172 1357 1161 1369 q 1179 1310 1182 1344 q 1135 1282 1165 1300 q 1071 1245 1106 1264 q 1006 1210 1036 1226 q 960 1186 976 1194 z "},"Ĕ":{"ha":1138,"x_min":31,"x_max":1199,"o":"m 453 -82 q 215 -42 308 -82 q 76 64 121 -1 q 31 203 31 129 q 74 354 31 286 q 187 472 117 422 q 342 551 257 522 q 508 585 426 581 q 391 658 436 611 q 346 760 346 704 q 381 869 346 817 q 476 965 417 921 q 612 1040 536 1008 q 769 1090 688 1072 q 928 1107 851 1107 q 1125 1065 1051 1107 q 1199 958 1199 1024 q 1134 840 1199 899 q 956 757 1069 782 q 926 753 933 753 q 911 765 911 753 q 916 772 911 769 q 938 779 921 774 q 1068 858 1019 807 q 1117 965 1117 908 q 1070 1044 1117 1014 q 931 1074 1024 1074 q 763 1050 847 1074 q 607 983 678 1026 q 493 885 536 940 q 450 764 450 829 q 478 688 450 717 q 549 641 506 658 q 638 613 592 624 q 724 590 685 603 q 742 579 738 586 q 746 565 746 572 q 726 535 746 547 q 669 522 706 522 q 620 523 647 522 q 563 524 593 524 q 472 519 519 524 q 367 497 424 515 q 241 428 294 475 q 158 324 188 381 q 129 211 129 267 q 163 81 129 139 q 268 -12 196 22 q 458 -46 340 -46 q 668 -18 567 -46 q 856 53 769 10 q 1003 144 942 97 q 1084 226 1053 185 q 1115 299 1115 268 q 1061 346 1115 338 q 1047 354 1047 347 q 1067 365 1047 365 q 1138 338 1107 365 q 1169 271 1169 311 q 1057 104 1169 192 q 891 8 989 50 q 680 -58 793 -33 q 453 -82 567 -82 m 994 1190 q 898 1221 931 1190 q 865 1300 865 1251 q 877 1328 865 1321 q 894 1335 889 1335 q 922 1272 894 1296 q 1003 1247 950 1247 q 1076 1265 1046 1247 q 1126 1303 1107 1282 q 1153 1338 1146 1325 q 1169 1324 1169 1338 q 1156 1292 1169 1315 q 1092 1219 1129 1249 q 994 1190 1056 1190 z "},"Ě":{"ha":1138,"x_min":31,"x_max":1253,"o":"m 453 -82 q 215 -42 308 -82 q 76 64 121 -1 q 31 203 31 129 q 74 354 31 286 q 187 472 117 422 q 342 551 257 522 q 508 585 426 581 q 391 658 436 611 q 346 760 346 704 q 381 869 346 817 q 476 965 417 921 q 612 1040 536 1008 q 769 1090 688 1072 q 928 1107 851 1107 q 1125 1065 1051 1107 q 1199 958 1199 1024 q 1134 840 1199 899 q 956 757 1069 782 q 926 753 933 753 q 911 765 911 753 q 916 772 911 769 q 938 779 921 774 q 1068 858 1019 807 q 1117 965 1117 908 q 1070 1044 1117 1014 q 931 1074 1024 1074 q 763 1050 847 1074 q 607 983 678 1026 q 493 885 536 940 q 450 764 450 829 q 478 688 450 717 q 549 641 506 658 q 638 613 592 624 q 724 590 685 603 q 742 579 738 586 q 746 565 746 572 q 726 535 746 547 q 669 522 706 522 q 620 523 647 522 q 563 524 593 524 q 472 519 519 524 q 367 497 424 515 q 241 428 294 475 q 158 324 188 381 q 129 211 129 267 q 163 81 129 139 q 268 -12 196 22 q 458 -46 340 -46 q 668 -18 567 -46 q 856 53 769 10 q 1003 144 942 97 q 1084 226 1053 185 q 1115 299 1115 268 q 1061 346 1115 338 q 1047 354 1047 347 q 1067 365 1047 365 q 1138 338 1107 365 q 1169 271 1169 311 q 1057 104 1169 192 q 891 8 989 50 q 680 -58 793 -33 q 453 -82 567 -82 m 1008 1203 q 976 1222 985 1203 l 926 1340 q 922 1349 925 1343 q 919 1357 919 1356 q 931 1363 919 1363 q 956 1353 946 1363 l 1032 1271 l 1196 1351 q 1238 1363 1218 1363 q 1253 1357 1253 1363 q 1248 1352 1253 1356 q 1240 1346 1243 1349 l 1056 1217 q 1008 1203 1035 1203 z "},"Ȩ":{"ha":1138,"x_min":31,"x_max":1199,"o":"m 453 -82 q 215 -42 308 -82 q 76 64 121 -1 q 31 203 31 129 q 74 354 31 286 q 187 472 117 422 q 342 551 257 522 q 508 585 426 581 q 391 658 436 611 q 346 760 346 704 q 381 869 346 817 q 476 965 417 921 q 612 1040 536 1008 q 769 1090 688 1072 q 928 1107 851 1107 q 1125 1065 1051 1107 q 1199 958 1199 1024 q 1134 840 1199 899 q 956 757 1069 782 q 926 753 933 753 q 911 765 911 753 q 916 772 911 769 q 938 779 921 774 q 1068 858 1019 807 q 1117 965 1117 908 q 1070 1044 1117 1014 q 931 1074 1024 1074 q 763 1050 847 1074 q 607 983 678 1026 q 493 885 536 940 q 450 764 450 829 q 478 688 450 717 q 549 641 506 658 q 638 613 592 624 q 724 590 685 603 q 742 579 738 586 q 746 565 746 572 q 726 535 746 547 q 669 522 706 522 q 620 523 647 522 q 563 524 593 524 q 472 519 519 524 q 367 497 424 515 q 241 428 294 475 q 158 324 188 381 q 129 211 129 267 q 163 81 129 139 q 268 -12 196 22 q 458 -46 340 -46 q 668 -18 567 -46 q 856 53 769 10 q 1003 144 942 97 q 1084 226 1053 185 q 1115 299 1115 268 q 1061 346 1115 338 q 1047 354 1047 347 q 1067 365 1047 365 q 1138 338 1107 365 q 1169 271 1169 311 q 1057 104 1169 192 q 891 8 989 50 q 680 -58 793 -33 q 453 -82 567 -82 m 356 -375 q 272 -351 301 -375 q 242 -310 242 -328 q 250 -294 242 -294 q 284 -326 264 -308 q 346 -344 304 -344 q 424 -315 386 -344 q 463 -233 463 -285 q 446 -192 463 -206 q 408 -179 429 -179 q 362 -194 376 -179 q 340 -215 347 -208 q 320 -207 333 -215 q 307 -192 307 -199 q 335 -157 318 -178 q 372 -115 353 -136 q 403 -78 390 -93 q 419 -64 417 -64 q 430 -67 424 -64 q 436 -74 436 -71 q 423 -92 433 -76 q 401 -126 413 -108 q 379 -158 389 -144 q 438 -147 397 -147 q 502 -168 471 -147 q 533 -232 533 -189 q 508 -299 533 -267 q 443 -353 483 -332 q 356 -375 403 -375 z "},"Ḝ":{"ha":1138,"x_min":31,"x_max":1199,"o":"m 453 -82 q 215 -42 308 -82 q 76 64 121 -1 q 31 203 31 129 q 74 354 31 286 q 187 472 117 422 q 342 551 257 522 q 508 585 426 581 q 391 658 436 611 q 346 760 346 704 q 381 869 346 817 q 476 965 417 921 q 612 1040 536 1008 q 769 1090 688 1072 q 928 1107 851 1107 q 1125 1065 1051 1107 q 1199 958 1199 1024 q 1134 840 1199 899 q 956 757 1069 782 q 926 753 933 753 q 911 765 911 753 q 916 772 911 769 q 938 779 921 774 q 1068 858 1019 807 q 1117 965 1117 908 q 1070 1044 1117 1014 q 931 1074 1024 1074 q 763 1050 847 1074 q 607 983 678 1026 q 493 885 536 940 q 450 764 450 829 q 478 688 450 717 q 549 641 506 658 q 638 613 592 624 q 724 590 685 603 q 742 579 738 586 q 746 565 746 572 q 726 535 746 547 q 669 522 706 522 q 620 523 647 522 q 563 524 593 524 q 472 519 519 524 q 367 497 424 515 q 241 428 294 475 q 158 324 188 381 q 129 211 129 267 q 163 81 129 139 q 268 -12 196 22 q 458 -46 340 -46 q 668 -18 567 -46 q 856 53 769 10 q 1003 144 942 97 q 1084 226 1053 185 q 1115 299 1115 268 q 1061 346 1115 338 q 1047 354 1047 347 q 1067 365 1047 365 q 1138 338 1107 365 q 1169 271 1169 311 q 1057 104 1169 192 q 891 8 989 50 q 680 -58 793 -33 q 453 -82 567 -82 m 356 -375 q 272 -351 301 -375 q 242 -310 242 -328 q 250 -294 242 -294 q 284 -326 264 -308 q 346 -344 304 -344 q 424 -315 386 -344 q 463 -233 463 -285 q 446 -192 463 -206 q 408 -179 429 -179 q 362 -194 376 -179 q 340 -215 347 -208 q 320 -207 333 -215 q 307 -192 307 -199 q 335 -157 318 -178 q 372 -115 353 -136 q 403 -78 390 -93 q 419 -64 417 -64 q 430 -67 424 -64 q 436 -74 436 -71 q 423 -92 433 -76 q 401 -126 413 -108 q 379 -158 389 -144 q 438 -147 397 -147 q 502 -168 471 -147 q 533 -232 533 -189 q 508 -299 533 -267 q 443 -353 483 -332 q 356 -375 403 -375 m 994 1190 q 898 1221 931 1190 q 865 1300 865 1251 q 877 1328 865 1321 q 894 1335 889 1335 q 922 1272 894 1296 q 1003 1247 950 1247 q 1076 1265 1046 1247 q 1126 1303 1107 1282 q 1153 1338 1146 1325 q 1169 1324 1169 1338 q 1156 1292 1169 1315 q 1092 1219 1129 1249 q 994 1190 1056 1190 z "},"Ê":{"ha":1138,"x_min":31,"x_max":1199,"o":"m 453 -82 q 215 -42 308 -82 q 76 64 121 -1 q 31 203 31 129 q 74 354 31 286 q 187 472 117 422 q 342 551 257 522 q 508 585 426 581 q 391 658 436 611 q 346 760 346 704 q 381 869 346 817 q 476 965 417 921 q 612 1040 536 1008 q 769 1090 688 1072 q 928 1107 851 1107 q 1125 1065 1051 1107 q 1199 958 1199 1024 q 1134 840 1199 899 q 956 757 1069 782 q 926 753 933 753 q 911 765 911 753 q 916 772 911 769 q 938 779 921 774 q 1068 858 1019 807 q 1117 965 1117 908 q 1070 1044 1117 1014 q 931 1074 1024 1074 q 763 1050 847 1074 q 607 983 678 1026 q 493 885 536 940 q 450 764 450 829 q 478 688 450 717 q 549 641 506 658 q 638 613 592 624 q 724 590 685 603 q 742 579 738 586 q 746 565 746 572 q 726 535 746 547 q 669 522 706 522 q 620 523 647 522 q 563 524 593 524 q 472 519 519 524 q 367 497 424 515 q 241 428 294 475 q 158 324 188 381 q 129 211 129 267 q 163 81 129 139 q 268 -12 196 22 q 458 -46 340 -46 q 668 -18 567 -46 q 856 53 769 10 q 1003 144 942 97 q 1084 226 1053 185 q 1115 299 1115 268 q 1061 346 1115 338 q 1047 354 1047 347 q 1067 365 1047 365 q 1138 338 1107 365 q 1169 271 1169 311 q 1057 104 1169 192 q 891 8 989 50 q 680 -58 793 -33 q 453 -82 567 -82 m 1083 1363 q 1108 1357 1103 1363 l 1169 1213 q 1170 1210 1169 1211 q 1171 1210 1171 1210 q 1160 1206 1171 1206 q 1147 1208 1154 1206 q 1136 1213 1139 1210 l 1058 1292 l 883 1213 q 853 1204 874 1204 q 840 1207 846 1204 q 839 1213 835 1210 l 1044 1357 q 1060 1361 1051 1360 q 1083 1363 1069 1363 z "},"Ế":{"ha":1138,"x_min":31,"x_max":1383,"o":"m 453 -82 q 215 -42 308 -82 q 76 64 121 -1 q 31 203 31 129 q 74 354 31 286 q 187 472 117 422 q 342 551 257 522 q 508 585 426 581 q 391 658 436 611 q 346 760 346 704 q 381 869 346 817 q 476 965 417 921 q 612 1040 536 1008 q 769 1090 688 1072 q 928 1107 851 1107 q 1125 1065 1051 1107 q 1199 958 1199 1024 q 1134 840 1199 899 q 956 757 1069 782 q 926 753 933 753 q 911 765 911 753 q 916 772 911 769 q 938 779 921 774 q 1068 858 1019 807 q 1117 965 1117 908 q 1070 1044 1117 1014 q 931 1074 1024 1074 q 763 1050 847 1074 q 607 983 678 1026 q 493 885 536 940 q 450 764 450 829 q 478 688 450 717 q 549 641 506 658 q 638 613 592 624 q 724 590 685 603 q 742 579 738 586 q 746 565 746 572 q 726 535 746 547 q 669 522 706 522 q 620 523 647 522 q 563 524 593 524 q 472 519 519 524 q 367 497 424 515 q 241 428 294 475 q 158 324 188 381 q 129 211 129 267 q 163 81 129 139 q 268 -12 196 22 q 458 -46 340 -46 q 668 -18 567 -46 q 856 53 769 10 q 1003 144 942 97 q 1084 226 1053 185 q 1115 299 1115 268 q 1061 346 1115 338 q 1047 354 1047 347 q 1067 365 1047 365 q 1138 338 1107 365 q 1169 271 1169 311 q 1057 104 1169 192 q 891 8 989 50 q 680 -58 793 -33 q 453 -82 567 -82 m 1203 1315 q 1185 1322 1193 1318 q 1179 1336 1178 1326 q 1242 1377 1217 1358 q 1293 1416 1268 1396 q 1353 1461 1318 1436 q 1374 1447 1364 1460 q 1378 1400 1383 1435 q 1325 1371 1358 1388 q 1258 1340 1292 1354 q 1203 1315 1225 1325 m 1083 1365 q 1108 1360 1103 1365 l 1169 1215 q 1170 1213 1169 1214 q 1171 1213 1171 1213 q 1160 1208 1171 1208 q 1147 1210 1154 1208 q 1136 1215 1139 1213 l 1058 1294 l 883 1215 q 853 1207 874 1207 q 840 1210 846 1207 q 839 1215 835 1213 l 1044 1360 q 1060 1364 1051 1363 q 1083 1365 1069 1365 z "},"Ḙ":{"ha":1138,"x_min":31,"x_max":1199,"o":"m 453 -82 q 215 -42 308 -82 q 76 64 121 -1 q 31 203 31 129 q 74 354 31 286 q 187 472 117 422 q 342 551 257 522 q 508 585 426 581 q 391 658 436 611 q 346 760 346 704 q 381 869 346 817 q 476 965 417 921 q 612 1040 536 1008 q 769 1090 688 1072 q 928 1107 851 1107 q 1125 1065 1051 1107 q 1199 958 1199 1024 q 1134 840 1199 899 q 956 757 1069 782 q 926 753 933 753 q 911 765 911 753 q 916 772 911 769 q 938 779 921 774 q 1068 858 1019 807 q 1117 965 1117 908 q 1070 1044 1117 1014 q 931 1074 1024 1074 q 763 1050 847 1074 q 607 983 678 1026 q 493 885 536 940 q 450 764 450 829 q 478 688 450 717 q 549 641 506 658 q 638 613 592 624 q 724 590 685 603 q 742 579 738 586 q 746 565 746 572 q 726 535 746 547 q 669 522 706 522 q 620 523 647 522 q 563 524 593 524 q 472 519 519 524 q 367 497 424 515 q 241 428 294 475 q 158 324 188 381 q 129 211 129 267 q 163 81 129 139 q 268 -12 196 22 q 458 -46 340 -46 q 668 -18 567 -46 q 856 53 769 10 q 1003 144 942 97 q 1084 226 1053 185 q 1115 299 1115 268 q 1061 346 1115 338 q 1047 354 1047 347 q 1067 365 1047 365 q 1138 338 1107 365 q 1169 271 1169 311 q 1057 104 1169 192 q 891 8 989 50 q 680 -58 793 -33 q 453 -82 567 -82 m 485 -296 q 465 -289 469 -296 l 399 -214 l 268 -286 q 257 -292 263 -289 q 246 -294 251 -294 q 232 -287 235 -294 l 386 -157 q 415 -150 397 -150 q 433 -157 429 -150 l 490 -289 q 491 -291 490 -290 q 492 -292 492 -292 q 485 -296 492 -296 z "},"Ệ":{"ha":1138,"x_min":31,"x_max":1199,"o":"m 453 -82 q 215 -42 308 -82 q 76 64 121 -1 q 31 203 31 129 q 74 354 31 286 q 187 472 117 422 q 342 551 257 522 q 508 585 426 581 q 391 658 436 611 q 346 760 346 704 q 381 869 346 817 q 476 965 417 921 q 612 1040 536 1008 q 769 1090 688 1072 q 928 1107 851 1107 q 1125 1065 1051 1107 q 1199 958 1199 1024 q 1134 840 1199 899 q 956 757 1069 782 q 926 753 933 753 q 911 765 911 753 q 916 772 911 769 q 938 779 921 774 q 1068 858 1019 807 q 1117 965 1117 908 q 1070 1044 1117 1014 q 931 1074 1024 1074 q 763 1050 847 1074 q 607 983 678 1026 q 493 885 536 940 q 450 764 450 829 q 478 688 450 717 q 549 641 506 658 q 638 613 592 624 q 724 590 685 603 q 742 579 738 586 q 746 565 746 572 q 726 535 746 547 q 669 522 706 522 q 620 523 647 522 q 563 524 593 524 q 472 519 519 524 q 367 497 424 515 q 241 428 294 475 q 158 324 188 381 q 129 211 129 267 q 163 81 129 139 q 268 -12 196 22 q 458 -46 340 -46 q 668 -18 567 -46 q 856 53 769 10 q 1003 144 942 97 q 1084 226 1053 185 q 1115 299 1115 268 q 1061 346 1115 338 q 1047 354 1047 347 q 1067 365 1047 365 q 1138 338 1107 365 q 1169 271 1169 311 q 1057 104 1169 192 q 891 8 989 50 q 680 -58 793 -33 q 453 -82 567 -82 m 379 -261 q 349 -248 361 -261 q 338 -217 338 -235 q 356 -176 338 -193 q 396 -160 374 -160 q 428 -172 415 -160 q 440 -201 440 -183 q 422 -242 440 -224 q 379 -261 404 -261 m 1083 1363 q 1108 1357 1103 1363 l 1169 1213 q 1170 1210 1169 1211 q 1171 1210 1171 1210 q 1160 1206 1171 1206 q 1147 1208 1154 1206 q 1136 1213 1139 1210 l 1058 1292 l 883 1213 q 853 1204 874 1204 q 840 1207 846 1204 q 839 1213 835 1210 l 1044 1357 q 1060 1361 1051 1360 q 1083 1363 1069 1363 z "},"Ề":{"ha":1138,"x_min":31,"x_max":1306,"o":"m 453 -82 q 215 -42 308 -82 q 76 64 121 -1 q 31 203 31 129 q 74 354 31 286 q 187 472 117 422 q 342 551 257 522 q 508 585 426 581 q 391 658 436 611 q 346 760 346 704 q 381 869 346 817 q 476 965 417 921 q 612 1040 536 1008 q 769 1090 688 1072 q 928 1107 851 1107 q 1125 1065 1051 1107 q 1199 958 1199 1024 q 1134 840 1199 899 q 956 757 1069 782 q 926 753 933 753 q 911 765 911 753 q 916 772 911 769 q 938 779 921 774 q 1068 858 1019 807 q 1117 965 1117 908 q 1070 1044 1117 1014 q 931 1074 1024 1074 q 763 1050 847 1074 q 607 983 678 1026 q 493 885 536 940 q 450 764 450 829 q 478 688 450 717 q 549 641 506 658 q 638 613 592 624 q 724 590 685 603 q 742 579 738 586 q 746 565 746 572 q 726 535 746 547 q 669 522 706 522 q 620 523 647 522 q 563 524 593 524 q 472 519 519 524 q 367 497 424 515 q 241 428 294 475 q 158 324 188 381 q 129 211 129 267 q 163 81 129 139 q 268 -12 196 22 q 458 -46 340 -46 q 668 -18 567 -46 q 856 53 769 10 q 1003 144 942 97 q 1084 226 1053 185 q 1115 299 1115 268 q 1061 346 1115 338 q 1047 354 1047 347 q 1067 365 1047 365 q 1138 338 1107 365 q 1169 271 1169 311 q 1057 104 1169 192 q 891 8 989 50 q 680 -58 793 -33 q 453 -82 567 -82 m 1274 1260 q 1232 1309 1258 1279 q 1181 1369 1206 1339 q 1143 1419 1156 1400 q 1169 1458 1154 1451 q 1193 1461 1183 1465 q 1246 1364 1221 1404 q 1306 1267 1271 1324 q 1274 1260 1299 1253 m 1083 1363 q 1108 1357 1103 1363 l 1169 1213 q 1170 1210 1169 1211 q 1171 1210 1171 1210 q 1160 1206 1171 1206 q 1147 1208 1154 1206 q 1136 1213 1139 1210 l 1058 1292 l 883 1213 q 853 1204 874 1204 q 840 1207 846 1204 q 839 1213 835 1210 l 1044 1357 q 1060 1361 1051 1360 q 1083 1363 1069 1363 z "},"Ể":{"ha":1138,"x_min":31,"x_max":1296,"o":"m 453 -82 q 215 -42 308 -82 q 76 64 121 -1 q 31 203 31 129 q 74 354 31 286 q 187 472 117 422 q 342 551 257 522 q 508 585 426 581 q 391 658 436 611 q 346 760 346 704 q 381 869 346 817 q 476 965 417 921 q 612 1040 536 1008 q 769 1090 688 1072 q 928 1107 851 1107 q 1125 1065 1051 1107 q 1199 958 1199 1024 q 1134 840 1199 899 q 956 757 1069 782 q 926 753 933 753 q 911 765 911 753 q 916 772 911 769 q 938 779 921 774 q 1068 858 1019 807 q 1117 965 1117 908 q 1070 1044 1117 1014 q 931 1074 1024 1074 q 763 1050 847 1074 q 607 983 678 1026 q 493 885 536 940 q 450 764 450 829 q 478 688 450 717 q 549 641 506 658 q 638 613 592 624 q 724 590 685 603 q 742 579 738 586 q 746 565 746 572 q 726 535 746 547 q 669 522 706 522 q 620 523 647 522 q 563 524 593 524 q 472 519 519 524 q 367 497 424 515 q 241 428 294 475 q 158 324 188 381 q 129 211 129 267 q 163 81 129 139 q 268 -12 196 22 q 458 -46 340 -46 q 668 -18 567 -46 q 856 53 769 10 q 1003 144 942 97 q 1084 226 1053 185 q 1115 299 1115 268 q 1061 346 1115 338 q 1047 354 1047 347 q 1067 365 1047 365 q 1138 338 1107 365 q 1169 271 1169 311 q 1057 104 1169 192 q 891 8 989 50 q 680 -58 793 -33 q 453 -82 567 -82 m 1083 1363 q 1108 1357 1103 1363 l 1169 1213 q 1170 1210 1169 1211 q 1171 1210 1171 1210 q 1160 1206 1171 1206 q 1147 1208 1154 1206 q 1136 1213 1139 1210 l 1058 1292 l 883 1213 q 853 1204 874 1204 q 840 1207 846 1204 q 839 1213 835 1210 l 1044 1357 q 1060 1361 1051 1360 q 1083 1363 1069 1363 m 1168 1313 q 1184 1353 1168 1335 q 1216 1390 1200 1371 q 1232 1433 1232 1410 q 1222 1455 1232 1444 q 1190 1465 1211 1465 q 1160 1460 1174 1465 q 1132 1446 1147 1454 q 1149 1486 1122 1468 q 1178 1503 1157 1493 q 1231 1514 1200 1514 q 1277 1501 1258 1514 q 1296 1460 1296 1488 q 1281 1411 1296 1433 q 1244 1372 1265 1389 q 1208 1340 1224 1354 q 1193 1313 1193 1325 q 1168 1313 1181 1307 z "},"Ễ":{"ha":1138,"x_min":31,"x_max":1272,"o":"m 453 -82 q 215 -42 308 -82 q 76 64 121 -1 q 31 203 31 129 q 74 354 31 286 q 187 472 117 422 q 342 551 257 522 q 508 585 426 581 q 391 658 436 611 q 346 760 346 704 q 381 869 346 817 q 476 965 417 921 q 612 1040 536 1008 q 769 1090 688 1072 q 928 1107 851 1107 q 1125 1065 1051 1107 q 1199 958 1199 1024 q 1134 840 1199 899 q 956 757 1069 782 q 926 753 933 753 q 911 765 911 753 q 916 772 911 769 q 938 779 921 774 q 1068 858 1019 807 q 1117 965 1117 908 q 1070 1044 1117 1014 q 931 1074 1024 1074 q 763 1050 847 1074 q 607 983 678 1026 q 493 885 536 940 q 450 764 450 829 q 478 688 450 717 q 549 641 506 658 q 638 613 592 624 q 724 590 685 603 q 742 579 738 586 q 746 565 746 572 q 726 535 746 547 q 669 522 706 522 q 620 523 647 522 q 563 524 593 524 q 472 519 519 524 q 367 497 424 515 q 241 428 294 475 q 158 324 188 381 q 129 211 129 267 q 163 81 129 139 q 268 -12 196 22 q 458 -46 340 -46 q 668 -18 567 -46 q 856 53 769 10 q 1003 144 942 97 q 1084 226 1053 185 q 1115 299 1115 268 q 1061 346 1115 338 q 1047 354 1047 347 q 1067 365 1047 365 q 1138 338 1107 365 q 1169 271 1169 311 q 1057 104 1169 192 q 891 8 989 50 q 680 -58 793 -33 q 453 -82 567 -82 m 1174 1390 q 1125 1401 1150 1390 q 1078 1422 1100 1411 q 1039 1432 1056 1432 q 1008 1422 1021 1432 q 988 1399 996 1413 q 979 1394 986 1394 q 965 1401 963 1394 q 1003 1456 979 1428 q 1060 1485 1026 1485 q 1108 1474 1086 1485 q 1153 1453 1131 1464 q 1199 1443 1175 1443 q 1229 1454 1218 1443 q 1249 1483 1240 1465 q 1257 1488 1251 1488 q 1269 1481 1272 1488 q 1233 1421 1257 1451 q 1174 1390 1208 1390 m 1083 1363 q 1108 1357 1103 1363 l 1169 1213 q 1170 1210 1169 1211 q 1171 1210 1171 1210 q 1160 1206 1171 1206 q 1147 1208 1154 1206 q 1136 1213 1139 1210 l 1058 1292 l 883 1213 q 853 1204 874 1204 q 840 1207 846 1204 q 839 1213 835 1210 l 1044 1357 q 1060 1361 1051 1360 q 1083 1363 1069 1363 z "},"Ȅ":{"ha":1138,"x_min":31,"x_max":1199,"o":"m 453 -82 q 215 -42 308 -82 q 76 64 121 -1 q 31 203 31 129 q 74 354 31 286 q 187 472 117 422 q 342 551 257 522 q 508 585 426 581 q 391 658 436 611 q 346 760 346 704 q 381 869 346 817 q 476 965 417 921 q 612 1040 536 1008 q 769 1090 688 1072 q 928 1107 851 1107 q 1125 1065 1051 1107 q 1199 958 1199 1024 q 1134 840 1199 899 q 956 757 1069 782 q 926 753 933 753 q 911 765 911 753 q 916 772 911 769 q 938 779 921 774 q 1068 858 1019 807 q 1117 965 1117 908 q 1070 1044 1117 1014 q 931 1074 1024 1074 q 763 1050 847 1074 q 607 983 678 1026 q 493 885 536 940 q 450 764 450 829 q 478 688 450 717 q 549 641 506 658 q 638 613 592 624 q 724 590 685 603 q 742 579 738 586 q 746 565 746 572 q 726 535 746 547 q 669 522 706 522 q 620 523 647 522 q 563 524 593 524 q 472 519 519 524 q 367 497 424 515 q 241 428 294 475 q 158 324 188 381 q 129 211 129 267 q 163 81 129 139 q 268 -12 196 22 q 458 -46 340 -46 q 668 -18 567 -46 q 856 53 769 10 q 1003 144 942 97 q 1084 226 1053 185 q 1115 299 1115 268 q 1061 346 1115 338 q 1047 354 1047 347 q 1067 365 1047 365 q 1138 338 1107 365 q 1169 271 1169 311 q 1057 104 1169 192 q 891 8 989 50 q 680 -58 793 -33 q 453 -82 567 -82 m 1058 1222 q 1019 1260 1042 1233 q 977 1317 997 1288 q 944 1361 957 1346 q 960 1407 947 1396 q 982 1417 972 1418 l 1083 1232 q 1075 1223 1082 1225 q 1058 1222 1068 1221 m 950 1217 q 902 1250 932 1226 q 844 1299 872 1274 q 803 1339 817 1325 q 814 1385 803 1374 q 835 1397 825 1397 l 974 1229 q 967 1219 974 1222 q 950 1217 960 1217 z "},"Ë":{"ha":1138,"x_min":31,"x_max":1199,"o":"m 453 -82 q 215 -42 308 -82 q 76 64 121 -1 q 31 203 31 129 q 74 354 31 286 q 187 472 117 422 q 342 551 257 522 q 508 585 426 581 q 391 658 436 611 q 346 760 346 704 q 381 869 346 817 q 476 965 417 921 q 612 1040 536 1008 q 769 1090 688 1072 q 928 1107 851 1107 q 1125 1065 1051 1107 q 1199 958 1199 1024 q 1134 840 1199 899 q 956 757 1069 782 q 926 753 933 753 q 911 765 911 753 q 916 772 911 769 q 938 779 921 774 q 1068 858 1019 807 q 1117 965 1117 908 q 1070 1044 1117 1014 q 931 1074 1024 1074 q 763 1050 847 1074 q 607 983 678 1026 q 493 885 536 940 q 450 764 450 829 q 478 688 450 717 q 549 641 506 658 q 638 613 592 624 q 724 590 685 603 q 742 579 738 586 q 746 565 746 572 q 726 535 746 547 q 669 522 706 522 q 620 523 647 522 q 563 524 593 524 q 472 519 519 524 q 367 497 424 515 q 241 428 294 475 q 158 324 188 381 q 129 211 129 267 q 163 81 129 139 q 268 -12 196 22 q 458 -46 340 -46 q 668 -18 567 -46 q 856 53 769 10 q 1003 144 942 97 q 1084 226 1053 185 q 1115 299 1115 268 q 1061 346 1115 338 q 1047 354 1047 347 q 1067 365 1047 365 q 1138 338 1107 365 q 1169 271 1169 311 q 1057 104 1169 192 q 891 8 989 50 q 680 -58 793 -33 q 453 -82 567 -82 m 1082 1194 q 1051 1208 1064 1194 q 1039 1240 1039 1222 q 1058 1282 1039 1264 q 1100 1300 1078 1300 q 1133 1288 1119 1300 q 1146 1257 1146 1275 q 1127 1214 1146 1233 q 1082 1194 1108 1194 m 919 1194 q 889 1208 901 1194 q 876 1240 876 1222 q 896 1282 876 1264 q 938 1300 915 1300 q 970 1288 957 1300 q 983 1257 983 1275 q 965 1214 983 1233 q 919 1194 946 1194 z "},"Ė":{"ha":1138,"x_min":31,"x_max":1199,"o":"m 453 -82 q 215 -42 308 -82 q 76 64 121 -1 q 31 203 31 129 q 74 354 31 286 q 187 472 117 422 q 342 551 257 522 q 508 585 426 581 q 391 658 436 611 q 346 760 346 704 q 381 869 346 817 q 476 965 417 921 q 612 1040 536 1008 q 769 1090 688 1072 q 928 1107 851 1107 q 1125 1065 1051 1107 q 1199 958 1199 1024 q 1134 840 1199 899 q 956 757 1069 782 q 926 753 933 753 q 911 765 911 753 q 916 772 911 769 q 938 779 921 774 q 1068 858 1019 807 q 1117 965 1117 908 q 1070 1044 1117 1014 q 931 1074 1024 1074 q 763 1050 847 1074 q 607 983 678 1026 q 493 885 536 940 q 450 764 450 829 q 478 688 450 717 q 549 641 506 658 q 638 613 592 624 q 724 590 685 603 q 742 579 738 586 q 746 565 746 572 q 726 535 746 547 q 669 522 706 522 q 620 523 647 522 q 563 524 593 524 q 472 519 519 524 q 367 497 424 515 q 241 428 294 475 q 158 324 188 381 q 129 211 129 267 q 163 81 129 139 q 268 -12 196 22 q 458 -46 340 -46 q 668 -18 567 -46 q 856 53 769 10 q 1003 144 942 97 q 1084 226 1053 185 q 1115 299 1115 268 q 1061 346 1115 338 q 1047 354 1047 347 q 1067 365 1047 365 q 1138 338 1107 365 q 1169 271 1169 311 q 1057 104 1169 192 q 891 8 989 50 q 680 -58 793 -33 q 453 -82 567 -82 m 1014 1196 q 983 1210 996 1196 q 969 1243 969 1224 q 989 1285 969 1267 q 1032 1304 1008 1304 q 1065 1292 1051 1304 q 1079 1260 1079 1279 q 1060 1215 1079 1235 q 1014 1196 1040 1196 z "},"Ẹ":{"ha":1138,"x_min":31,"x_max":1199,"o":"m 453 -82 q 215 -42 308 -82 q 76 64 121 -1 q 31 203 31 129 q 74 354 31 286 q 187 472 117 422 q 342 551 257 522 q 508 585 426 581 q 391 658 436 611 q 346 760 346 704 q 381 869 346 817 q 476 965 417 921 q 612 1040 536 1008 q 769 1090 688 1072 q 928 1107 851 1107 q 1125 1065 1051 1107 q 1199 958 1199 1024 q 1134 840 1199 899 q 956 757 1069 782 q 926 753 933 753 q 911 765 911 753 q 916 772 911 769 q 938 779 921 774 q 1068 858 1019 807 q 1117 965 1117 908 q 1070 1044 1117 1014 q 931 1074 1024 1074 q 763 1050 847 1074 q 607 983 678 1026 q 493 885 536 940 q 450 764 450 829 q 478 688 450 717 q 549 641 506 658 q 638 613 592 624 q 724 590 685 603 q 742 579 738 586 q 746 565 746 572 q 726 535 746 547 q 669 522 706 522 q 620 523 647 522 q 563 524 593 524 q 472 519 519 524 q 367 497 424 515 q 241 428 294 475 q 158 324 188 381 q 129 211 129 267 q 163 81 129 139 q 268 -12 196 22 q 458 -46 340 -46 q 668 -18 567 -46 q 856 53 769 10 q 1003 144 942 97 q 1084 226 1053 185 q 1115 299 1115 268 q 1061 346 1115 338 q 1047 354 1047 347 q 1067 365 1047 365 q 1138 338 1107 365 q 1169 271 1169 311 q 1057 104 1169 192 q 891 8 989 50 q 680 -58 793 -33 q 453 -82 567 -82 m 379 -261 q 349 -248 361 -261 q 338 -217 338 -235 q 356 -176 338 -193 q 396 -160 374 -160 q 428 -172 415 -160 q 440 -201 440 -183 q 422 -242 440 -224 q 379 -261 404 -261 z "},"È":{"ha":1138,"x_min":31,"x_max":1199,"o":"m 453 -82 q 215 -42 308 -82 q 76 64 121 -1 q 31 203 31 129 q 74 354 31 286 q 187 472 117 422 q 342 551 257 522 q 508 585 426 581 q 391 658 436 611 q 346 760 346 704 q 381 869 346 817 q 476 965 417 921 q 612 1040 536 1008 q 769 1090 688 1072 q 928 1107 851 1107 q 1125 1065 1051 1107 q 1199 958 1199 1024 q 1134 840 1199 899 q 956 757 1069 782 q 926 753 933 753 q 911 765 911 753 q 916 772 911 769 q 938 779 921 774 q 1068 858 1019 807 q 1117 965 1117 908 q 1070 1044 1117 1014 q 931 1074 1024 1074 q 763 1050 847 1074 q 607 983 678 1026 q 493 885 536 940 q 450 764 450 829 q 478 688 450 717 q 549 641 506 658 q 638 613 592 624 q 724 590 685 603 q 742 579 738 586 q 746 565 746 572 q 726 535 746 547 q 669 522 706 522 q 620 523 647 522 q 563 524 593 524 q 472 519 519 524 q 367 497 424 515 q 241 428 294 475 q 158 324 188 381 q 129 211 129 267 q 163 81 129 139 q 268 -12 196 22 q 458 -46 340 -46 q 668 -18 567 -46 q 856 53 769 10 q 1003 144 942 97 q 1084 226 1053 185 q 1115 299 1115 268 q 1061 346 1115 338 q 1047 354 1047 347 q 1067 365 1047 365 q 1138 338 1107 365 q 1169 271 1169 311 q 1057 104 1169 192 q 891 8 989 50 q 680 -58 793 -33 q 453 -82 567 -82 m 1010 1169 q 968 1216 996 1185 q 915 1279 940 1247 q 882 1329 890 1311 q 906 1367 893 1361 q 928 1369 918 1374 l 1033 1172 q 1025 1167 1032 1167 q 1010 1169 1018 1168 z "},"Ẻ":{"ha":1138,"x_min":31,"x_max":1199,"o":"m 453 -82 q 215 -42 308 -82 q 76 64 121 -1 q 31 203 31 129 q 74 354 31 286 q 187 472 117 422 q 342 551 257 522 q 508 585 426 581 q 391 658 436 611 q 346 760 346 704 q 381 869 346 817 q 476 965 417 921 q 612 1040 536 1008 q 769 1090 688 1072 q 928 1107 851 1107 q 1125 1065 1051 1107 q 1199 958 1199 1024 q 1134 840 1199 899 q 956 757 1069 782 q 926 753 933 753 q 911 765 911 753 q 916 772 911 769 q 938 779 921 774 q 1068 858 1019 807 q 1117 965 1117 908 q 1070 1044 1117 1014 q 931 1074 1024 1074 q 763 1050 847 1074 q 607 983 678 1026 q 493 885 536 940 q 450 764 450 829 q 478 688 450 717 q 549 641 506 658 q 638 613 592 624 q 724 590 685 603 q 742 579 738 586 q 746 565 746 572 q 726 535 746 547 q 669 522 706 522 q 620 523 647 522 q 563 524 593 524 q 472 519 519 524 q 367 497 424 515 q 241 428 294 475 q 158 324 188 381 q 129 211 129 267 q 163 81 129 139 q 268 -12 196 22 q 458 -46 340 -46 q 668 -18 567 -46 q 856 53 769 10 q 1003 144 942 97 q 1084 226 1053 185 q 1115 299 1115 268 q 1061 346 1115 338 q 1047 354 1047 347 q 1067 365 1047 365 q 1138 338 1107 365 q 1169 271 1169 311 q 1057 104 1169 192 q 891 8 989 50 q 680 -58 793 -33 q 453 -82 567 -82 m 985 1201 q 1001 1242 985 1224 q 1033 1279 1017 1260 q 1049 1322 1049 1299 q 1038 1344 1049 1333 q 1007 1354 1028 1354 q 977 1349 990 1354 q 949 1335 964 1343 q 965 1375 939 1357 q 995 1392 974 1382 q 1047 1403 1017 1403 q 1094 1390 1075 1403 q 1113 1349 1113 1376 q 1097 1300 1113 1322 q 1061 1260 1082 1278 q 1025 1228 1040 1243 q 1010 1201 1010 1214 q 985 1201 997 1196 z "},"Ȇ":{"ha":1138,"x_min":31,"x_max":1199,"o":"m 453 -82 q 215 -42 308 -82 q 76 64 121 -1 q 31 203 31 129 q 74 354 31 286 q 187 472 117 422 q 342 551 257 522 q 508 585 426 581 q 391 658 436 611 q 346 760 346 704 q 381 869 346 817 q 476 965 417 921 q 612 1040 536 1008 q 769 1090 688 1072 q 928 1107 851 1107 q 1125 1065 1051 1107 q 1199 958 1199 1024 q 1134 840 1199 899 q 956 757 1069 782 q 926 753 933 753 q 911 765 911 753 q 916 772 911 769 q 938 779 921 774 q 1068 858 1019 807 q 1117 965 1117 908 q 1070 1044 1117 1014 q 931 1074 1024 1074 q 763 1050 847 1074 q 607 983 678 1026 q 493 885 536 940 q 450 764 450 829 q 478 688 450 717 q 549 641 506 658 q 638 613 592 624 q 724 590 685 603 q 742 579 738 586 q 746 565 746 572 q 726 535 746 547 q 669 522 706 522 q 620 523 647 522 q 563 524 593 524 q 472 519 519 524 q 367 497 424 515 q 241 428 294 475 q 158 324 188 381 q 129 211 129 267 q 163 81 129 139 q 268 -12 196 22 q 458 -46 340 -46 q 668 -18 567 -46 q 856 53 769 10 q 1003 144 942 97 q 1084 226 1053 185 q 1115 299 1115 268 q 1061 346 1115 338 q 1047 354 1047 347 q 1067 365 1047 365 q 1138 338 1107 365 q 1169 271 1169 311 q 1057 104 1169 192 q 891 8 989 50 q 680 -58 793 -33 q 453 -82 567 -82 m 865 1194 q 849 1210 849 1197 q 863 1240 849 1218 q 934 1312 890 1285 q 1035 1336 978 1339 q 1120 1304 1088 1335 q 1153 1222 1153 1274 q 1142 1195 1153 1201 q 1124 1189 1131 1189 q 1096 1254 1124 1229 q 1015 1281 1068 1279 q 942 1265 974 1282 q 892 1228 911 1249 q 865 1194 872 1207 z "},"Ē":{"ha":1138,"x_min":31,"x_max":1199,"o":"m 453 -82 q 215 -42 308 -82 q 76 64 121 -1 q 31 203 31 129 q 74 354 31 286 q 187 472 117 422 q 342 551 257 522 q 508 585 426 581 q 391 658 436 611 q 346 760 346 704 q 381 869 346 817 q 476 965 417 921 q 612 1040 536 1008 q 769 1090 688 1072 q 928 1107 851 1107 q 1125 1065 1051 1107 q 1199 958 1199 1024 q 1134 840 1199 899 q 956 757 1069 782 q 926 753 933 753 q 911 765 911 753 q 916 772 911 769 q 938 779 921 774 q 1068 858 1019 807 q 1117 965 1117 908 q 1070 1044 1117 1014 q 931 1074 1024 1074 q 763 1050 847 1074 q 607 983 678 1026 q 493 885 536 940 q 450 764 450 829 q 478 688 450 717 q 549 641 506 658 q 638 613 592 624 q 724 590 685 603 q 742 579 738 586 q 746 565 746 572 q 726 535 746 547 q 669 522 706 522 q 620 523 647 522 q 563 524 593 524 q 472 519 519 524 q 367 497 424 515 q 241 428 294 475 q 158 324 188 381 q 129 211 129 267 q 163 81 129 139 q 268 -12 196 22 q 458 -46 340 -46 q 668 -18 567 -46 q 856 53 769 10 q 1003 144 942 97 q 1084 226 1053 185 q 1115 299 1115 268 q 1061 346 1115 338 q 1047 354 1047 347 q 1067 365 1047 365 q 1138 338 1107 365 q 1169 271 1169 311 q 1057 104 1169 192 q 891 8 989 50 q 680 -58 793 -33 q 453 -82 567 -82 m 842 1217 q 852 1240 842 1228 q 881 1260 863 1253 l 1172 1265 q 1164 1241 1172 1258 q 1135 1217 1156 1224 l 842 1217 z "},"Ḗ":{"ha":1138,"x_min":31,"x_max":1214,"o":"m 453 -82 q 215 -42 308 -82 q 76 64 121 -1 q 31 203 31 129 q 74 354 31 286 q 187 472 117 422 q 342 551 257 522 q 508 585 426 581 q 391 658 436 611 q 346 760 346 704 q 381 869 346 817 q 476 965 417 921 q 612 1040 536 1008 q 769 1090 688 1072 q 928 1107 851 1107 q 1125 1065 1051 1107 q 1199 958 1199 1024 q 1134 840 1199 899 q 956 757 1069 782 q 926 753 933 753 q 911 765 911 753 q 916 772 911 769 q 938 779 921 774 q 1068 858 1019 807 q 1117 965 1117 908 q 1070 1044 1117 1014 q 931 1074 1024 1074 q 763 1050 847 1074 q 607 983 678 1026 q 493 885 536 940 q 450 764 450 829 q 478 688 450 717 q 549 641 506 658 q 638 613 592 624 q 724 590 685 603 q 742 579 738 586 q 746 565 746 572 q 726 535 746 547 q 669 522 706 522 q 620 523 647 522 q 563 524 593 524 q 472 519 519 524 q 367 497 424 515 q 241 428 294 475 q 158 324 188 381 q 129 211 129 267 q 163 81 129 139 q 268 -12 196 22 q 458 -46 340 -46 q 668 -18 567 -46 q 856 53 769 10 q 1003 144 942 97 q 1084 226 1053 185 q 1115 299 1115 268 q 1061 346 1115 338 q 1047 354 1047 347 q 1067 365 1047 365 q 1138 338 1107 365 q 1169 271 1169 311 q 1057 104 1169 192 q 891 8 989 50 q 680 -58 793 -33 q 453 -82 567 -82 m 842 1217 q 852 1240 842 1228 q 881 1260 863 1253 l 1172 1265 q 1164 1241 1172 1258 q 1135 1217 1156 1224 l 842 1217 m 992 1318 q 974 1324 982 1321 q 967 1338 967 1328 q 1076 1417 1021 1374 q 1182 1501 1132 1460 q 1203 1489 1193 1501 q 1211 1442 1214 1476 q 1167 1414 1197 1432 q 1103 1377 1138 1396 q 1038 1342 1068 1358 q 992 1318 1008 1326 z "},"Ḕ":{"ha":1138,"x_min":31,"x_max":1199,"o":"m 453 -82 q 215 -42 308 -82 q 76 64 121 -1 q 31 203 31 129 q 74 354 31 286 q 187 472 117 422 q 342 551 257 522 q 508 585 426 581 q 391 658 436 611 q 346 760 346 704 q 381 869 346 817 q 476 965 417 921 q 612 1040 536 1008 q 769 1090 688 1072 q 928 1107 851 1107 q 1125 1065 1051 1107 q 1199 958 1199 1024 q 1134 840 1199 899 q 956 757 1069 782 q 926 753 933 753 q 911 765 911 753 q 916 772 911 769 q 938 779 921 774 q 1068 858 1019 807 q 1117 965 1117 908 q 1070 1044 1117 1014 q 931 1074 1024 1074 q 763 1050 847 1074 q 607 983 678 1026 q 493 885 536 940 q 450 764 450 829 q 478 688 450 717 q 549 641 506 658 q 638 613 592 624 q 724 590 685 603 q 742 579 738 586 q 746 565 746 572 q 726 535 746 547 q 669 522 706 522 q 620 523 647 522 q 563 524 593 524 q 472 519 519 524 q 367 497 424 515 q 241 428 294 475 q 158 324 188 381 q 129 211 129 267 q 163 81 129 139 q 268 -12 196 22 q 458 -46 340 -46 q 668 -18 567 -46 q 856 53 769 10 q 1003 144 942 97 q 1084 226 1053 185 q 1115 299 1115 268 q 1061 346 1115 338 q 1047 354 1047 347 q 1067 365 1047 365 q 1138 338 1107 365 q 1169 271 1169 311 q 1057 104 1169 192 q 891 8 989 50 q 680 -58 793 -33 q 453 -82 567 -82 m 842 1217 q 852 1240 842 1228 q 881 1260 863 1253 l 1172 1265 q 1164 1241 1172 1258 q 1135 1217 1156 1224 l 842 1217 m 1042 1301 q 1000 1348 1028 1317 q 947 1411 972 1379 q 914 1461 922 1443 q 938 1499 925 1493 q 960 1501 950 1506 l 1065 1304 q 1057 1299 1064 1299 q 1042 1301 1050 1300 z "},"Ę":{"ha":1138,"x_min":31,"x_max":1199,"o":"m 453 -82 q 215 -42 308 -82 q 76 64 121 -1 q 31 203 31 129 q 74 354 31 286 q 187 472 117 422 q 342 551 257 522 q 508 585 426 581 q 391 658 436 611 q 346 760 346 704 q 381 869 346 817 q 476 965 417 921 q 612 1040 536 1008 q 769 1090 688 1072 q 928 1107 851 1107 q 1125 1065 1051 1107 q 1199 958 1199 1024 q 1134 840 1199 899 q 956 757 1069 782 q 926 753 933 753 q 911 765 911 753 q 916 772 911 769 q 938 779 921 774 q 1068 858 1019 807 q 1117 965 1117 908 q 1070 1044 1117 1014 q 931 1074 1024 1074 q 763 1050 847 1074 q 607 983 678 1026 q 493 885 536 940 q 450 764 450 829 q 478 688 450 717 q 549 641 506 658 q 638 613 592 624 q 724 590 685 603 q 742 579 738 586 q 746 565 746 572 q 726 535 746 547 q 669 522 706 522 q 620 523 647 522 q 563 524 593 524 q 472 519 519 524 q 367 497 424 515 q 241 428 294 475 q 158 324 188 381 q 129 211 129 267 q 163 81 129 139 q 268 -12 196 22 q 458 -46 340 -46 q 668 -18 567 -46 q 856 53 769 10 q 1003 144 942 97 q 1084 226 1053 185 q 1115 299 1115 268 q 1061 346 1115 338 q 1047 354 1047 347 q 1067 365 1047 365 q 1138 338 1107 365 q 1169 271 1169 311 q 1057 104 1169 192 q 891 8 989 50 q 680 -58 793 -33 q 453 -82 567 -82 m 747 -251 q 701 -237 721 -251 q 681 -189 681 -222 q 712 -99 681 -139 q 785 -29 743 -58 q 863 15 828 0 q 871 0 871 15 q 783 -85 815 -43 q 751 -164 751 -128 q 759 -197 751 -182 q 792 -211 767 -211 q 830 -197 811 -211 q 863 -168 849 -182 q 871 -167 865 -167 q 876 -175 876 -168 q 831 -226 863 -201 q 747 -251 800 -251 z "},"Ɛ":{"ha":881,"x_min":14,"x_max":908,"o":"m 419 -42 q 197 -8 283 -42 q 67 83 110 26 q 19 208 24 140 q 42 344 14 276 q 127 470 71 413 q 261 564 183 528 q 433 603 339 600 q 328 683 361 635 q 296 786 296 731 q 326 898 296 843 q 408 997 356 953 q 528 1068 460 1042 q 676 1094 597 1094 q 742 1090 703 1094 q 819 1068 781 1085 q 883 1015 857 1051 q 908 915 908 978 q 892 872 908 889 q 865 854 876 854 q 841 869 853 854 q 829 915 829 885 q 790 1024 829 982 q 678 1067 751 1067 q 523 1026 592 1067 q 415 925 454 986 q 376 801 376 864 q 428 686 376 735 q 599 631 479 638 q 629 622 619 629 q 639 608 639 615 q 610 572 639 592 q 544 553 582 553 q 505 554 526 553 q 458 556 483 556 q 320 525 382 556 q 215 444 258 494 q 149 333 171 393 q 129 212 126 272 q 164 101 132 151 q 260 19 196 50 q 426 -11 325 -11 q 584 20 508 -11 q 719 106 660 51 q 815 230 779 160 q 850 379 850 300 q 867 393 850 393 q 890 383 878 393 q 903 351 903 372 q 866 206 903 276 q 763 81 829 136 q 610 -8 697 25 q 419 -42 522 -42 z "},"Ǝ":{"ha":1088,"x_min":17,"x_max":1254,"o":"m 17 165 q 58 282 17 233 q 146 351 99 331 q 178 363 168 361 q 196 365 189 365 q 208 360 208 365 q 191 348 208 356 q 150 329 174 340 q 110 289 132 319 q 89 210 89 258 q 136 67 89 124 q 261 -15 183 11 q 432 -42 339 -42 q 673 -4 563 -42 q 865 94 783 33 q 992 223 947 154 q 1038 354 1038 292 q 972 474 1038 425 q 760 522 907 522 l 676 522 q 644 537 651 522 q 654 570 638 551 q 717 600 671 589 q 863 638 786 617 q 1008 692 940 660 q 1117 774 1075 725 q 1158 899 1158 824 q 1122 990 1158 951 q 1022 1051 1085 1029 q 879 1074 960 1074 q 764 1058 821 1074 q 660 1014 707 1043 q 585 945 613 985 q 557 856 557 906 q 572 806 557 826 q 615 783 586 786 q 644 774 639 782 q 647 761 650 765 q 619 753 639 753 q 588 757 608 753 q 503 802 531 772 q 475 868 475 832 q 518 967 475 922 q 628 1042 561 1011 q 771 1090 696 1074 q 910 1107 846 1107 q 1076 1082 997 1107 q 1204 1010 1154 1057 q 1254 897 1254 964 q 1221 788 1254 838 q 1133 699 1188 738 q 1013 631 1078 660 q 886 586 949 603 q 1006 563 950 585 q 1098 501 1063 542 q 1133 400 1133 460 q 1089 236 1133 311 q 968 103 1044 161 q 796 4 892 44 q 597 -58 700 -36 q 397 -79 494 -79 q 207 -53 293 -79 q 69 26 121 -28 q 17 165 17 81 z "},"Ʃ":{"ha":250,"x_min":-131,"x_max":663,"o":"m 288 731 q 317 806 299 761 q 358 899 335 851 q 411 988 382 946 q 475 1055 440 1029 q 549 1081 510 1081 q 624 1042 593 1081 q 661 939 654 1003 q 663 909 663 925 q 660 876 663 893 q 650 860 658 860 q 640 879 643 860 q 565 1006 628 1006 q 490 965 524 1006 q 429 861 457 924 q 376 731 401 799 l 232 343 q 206 272 222 315 q 167 181 189 229 q 117 90 144 132 q 56 20 89 47 q -17 -7 22 -7 q -92 32 -61 -7 q -129 135 -122 71 q -130 165 -131 150 q -128 197 -129 181 q -118 214 -125 214 q -108 194 -111 214 q -80 99 -101 131 q -33 68 -58 68 q 39 109 10 68 q 92 213 68 150 q 143 343 117 276 q 190 466 164 396 q 242 606 215 536 q 288 731 268 676 z "},"Ɇ":{"ha":1138,"x_min":31,"x_max":1199,"o":"m 181 -243 l 283 -62 q 92 42 154 -32 q 31 203 31 117 q 74 354 31 286 q 187 472 117 422 q 342 551 257 522 q 508 585 426 581 q 391 658 436 611 q 346 760 346 704 q 381 869 346 817 q 476 965 417 921 q 612 1040 536 1008 q 769 1090 688 1072 q 928 1107 850 1107 q 950 1107 939 1107 l 1035 1256 q 1051 1273 1042 1268 q 1067 1278 1060 1278 q 1085 1273 1075 1278 q 1096 1267 1094 1268 l 1003 1103 q 1146 1052 1093 1090 q 1199 958 1199 1014 q 1134 840 1199 899 q 956 757 1069 782 q 926 753 933 753 q 911 765 911 753 q 916 772 911 769 q 938 779 921 774 q 1068 858 1019 807 q 1117 965 1117 908 q 1083 1035 1117 1007 q 985 1071 1050 1063 l 714 593 q 724 590 718 592 q 742 579 738 586 q 746 565 746 572 q 726 535 746 547 q 674 522 706 522 l 356 -37 q 458 -46 403 -46 q 668 -18 567 -46 q 856 53 769 10 q 1003 144 942 97 q 1084 226 1053 185 q 1115 299 1115 268 q 1061 346 1115 338 q 1047 354 1047 347 q 1067 365 1047 365 q 1138 338 1107 365 q 1169 271 1169 311 q 1057 104 1169 192 q 891 8 989 50 q 680 -58 793 -33 q 453 -82 567 -82 q 335 -74 390 -82 l 244 -232 q 225 -249 236 -246 q 207 -253 214 -253 q 181 -243 189 -250 m 450 764 q 483 681 450 711 q 566 635 517 651 q 665 606 615 618 l 932 1074 l 931 1074 q 763 1050 847 1074 q 607 983 678 1026 q 493 885 536 940 q 450 764 450 829 m 129 211 q 171 67 129 131 q 304 -25 213 4 l 618 524 q 590 524 604 524 q 563 524 576 524 q 472 519 519 524 q 367 497 424 515 q 241 428 294 475 q 158 324 188 381 q 129 211 129 267 z "},"Ẽ":{"ha":1138,"x_min":31,"x_max":1204,"o":"m 453 -82 q 215 -42 308 -82 q 76 64 121 -1 q 31 203 31 129 q 74 354 31 286 q 187 472 117 422 q 342 551 257 522 q 508 585 426 581 q 391 658 436 611 q 346 760 346 704 q 381 869 346 817 q 476 965 417 921 q 612 1040 536 1008 q 769 1090 688 1072 q 928 1107 851 1107 q 1125 1065 1051 1107 q 1199 958 1199 1024 q 1134 840 1199 899 q 956 757 1069 782 q 926 753 933 753 q 911 765 911 753 q 916 772 911 769 q 938 779 921 774 q 1068 858 1019 807 q 1117 965 1117 908 q 1070 1044 1117 1014 q 931 1074 1024 1074 q 763 1050 847 1074 q 607 983 678 1026 q 493 885 536 940 q 450 764 450 829 q 478 688 450 717 q 549 641 506 658 q 638 613 592 624 q 724 590 685 603 q 742 579 738 586 q 746 565 746 572 q 726 535 746 547 q 669 522 706 522 q 620 523 647 522 q 563 524 593 524 q 472 519 519 524 q 367 497 424 515 q 241 428 294 475 q 158 324 188 381 q 129 211 129 267 q 163 81 129 139 q 268 -12 196 22 q 458 -46 340 -46 q 668 -18 567 -46 q 856 53 769 10 q 1003 144 942 97 q 1084 226 1053 185 q 1115 299 1115 268 q 1061 346 1115 338 q 1047 354 1047 347 q 1067 365 1047 365 q 1138 338 1107 365 q 1169 271 1169 311 q 1057 104 1169 192 q 891 8 989 50 q 680 -58 793 -33 q 453 -82 567 -82 m 1203 1306 q 1158 1239 1188 1272 q 1086 1206 1128 1206 q 1030 1218 1057 1206 q 976 1242 1003 1231 q 921 1254 949 1254 q 885 1242 900 1254 q 861 1214 869 1231 q 849 1210 860 1210 q 832 1217 829 1210 q 878 1278 849 1247 q 949 1310 907 1310 q 1006 1299 979 1310 q 1060 1276 1033 1288 q 1115 1264 1088 1264 q 1152 1276 1138 1264 q 1176 1308 1167 1289 q 1188 1313 1179 1313 q 1199 1310 1194 1313 q 1203 1306 1204 1308 z "},"Ḛ":{"ha":1138,"x_min":31,"x_max":1199,"o":"m 453 -82 q 215 -42 308 -82 q 76 64 121 -1 q 31 203 31 129 q 74 354 31 286 q 187 472 117 422 q 342 551 257 522 q 508 585 426 581 q 391 658 436 611 q 346 760 346 704 q 381 869 346 817 q 476 965 417 921 q 612 1040 536 1008 q 769 1090 688 1072 q 928 1107 851 1107 q 1125 1065 1051 1107 q 1199 958 1199 1024 q 1134 840 1199 899 q 956 757 1069 782 q 926 753 933 753 q 911 765 911 753 q 916 772 911 769 q 938 779 921 774 q 1068 858 1019 807 q 1117 965 1117 908 q 1070 1044 1117 1014 q 931 1074 1024 1074 q 763 1050 847 1074 q 607 983 678 1026 q 493 885 536 940 q 450 764 450 829 q 478 688 450 717 q 549 641 506 658 q 638 613 592 624 q 724 590 685 603 q 742 579 738 586 q 746 565 746 572 q 726 535 746 547 q 669 522 706 522 q 620 523 647 522 q 563 524 593 524 q 472 519 519 524 q 367 497 424 515 q 241 428 294 475 q 158 324 188 381 q 129 211 129 267 q 163 81 129 139 q 268 -12 196 22 q 458 -46 340 -46 q 668 -18 567 -46 q 856 53 769 10 q 1003 144 942 97 q 1084 226 1053 185 q 1115 299 1115 268 q 1061 346 1115 338 q 1047 354 1047 347 q 1067 365 1047 365 q 1138 338 1107 365 q 1169 271 1169 311 q 1057 104 1169 192 q 891 8 989 50 q 680 -58 793 -33 q 453 -82 567 -82 m 614 -194 q 569 -261 599 -228 q 497 -294 539 -294 q 441 -282 468 -294 q 387 -258 414 -269 q 332 -246 360 -246 q 296 -258 311 -246 q 272 -286 281 -269 q 260 -290 271 -290 q 243 -283 240 -290 q 289 -222 260 -253 q 360 -190 318 -190 q 417 -201 390 -190 q 472 -224 444 -212 q 526 -236 499 -236 q 563 -224 549 -236 q 588 -192 578 -211 q 599 -187 590 -187 q 610 -190 606 -187 q 614 -194 615 -192 z "},"Ə":{"ha":1063,"x_min":72,"x_max":1065,"o":"m 679 1111 q 881 1069 794 1111 q 1017 933 968 1026 q 1065 683 1065 839 q 1030 444 1065 558 q 931 232 994 329 q 785 63 868 135 q 607 -49 703 -8 q 411 -89 511 -89 q 221 -49 296 -89 q 109 56 146 -8 q 72 196 72 121 q 103 337 72 267 q 196 465 135 407 q 347 559 257 524 q 553 594 436 594 q 751 567 651 594 q 936 483 851 540 q 949 519 943 503 q 962 560 956 536 q 973 626 968 585 q 979 736 978 668 q 905 985 986 907 q 675 1064 824 1064 q 472 1018 560 1064 q 319 892 385 972 q 204 710 254 813 q 183 697 199 697 q 175 706 175 697 q 179 722 175 713 q 390 1010 267 908 q 679 1111 513 1111 m 160 192 q 185 78 160 131 q 263 -5 211 26 q 390 -36 314 -36 q 553 4 474 -36 q 702 113 632 44 q 828 266 772 181 q 922 440 885 351 q 772 520 858 489 q 599 551 685 551 q 405 519 488 551 q 268 433 322 486 q 187 317 214 381 q 160 192 160 254 z "},"Ʒ":{"ha":931,"x_min":26,"x_max":1188,"o":"m 281 -61 q 152 -46 210 -61 q 60 1 94 -31 q 26 81 26 33 q 66 187 26 139 q 174 274 106 235 q 324 346 242 313 q 415 374 379 368 q 467 379 450 379 q 496 364 496 379 q 481 342 496 353 q 415 333 467 332 q 298 310 354 333 q 197 249 242 286 q 126 173 151 213 q 100 100 100 133 q 152 11 100 40 q 281 -18 204 -18 q 410 -2 340 -18 q 549 45 481 14 q 674 122 617 76 q 765 224 731 167 q 799 351 799 282 q 766 447 799 407 q 684 510 733 488 q 585 532 635 532 q 551 530 563 532 q 533 528 540 528 q 527 535 529 528 q 525 551 525 542 q 556 579 528 556 q 624 636 585 603 q 702 702 664 669 q 763 754 740 735 q 795 783 771 763 q 850 832 819 804 q 910 885 881 860 q 958 926 939 910 q 847 954 906 940 q 730 978 788 968 q 624 989 672 989 q 523 978 575 989 q 426 948 471 968 q 354 896 382 928 q 326 819 326 864 q 338 774 326 797 q 379 731 350 751 q 397 710 397 717 q 392 704 397 706 q 382 703 388 703 q 342 719 365 703 q 303 768 319 736 q 286 846 286 800 q 331 969 286 921 q 443 1039 375 1017 q 581 1061 511 1061 q 720 1043 649 1061 q 860 999 792 1025 q 988 953 929 974 q 1044 992 1010 971 q 1114 1014 1079 1014 q 1170 997 1153 1014 q 1188 958 1188 979 q 1165 917 1188 936 q 1106 897 1142 897 q 1060 902 1088 897 q 1001 915 1033 907 q 898 831 960 883 q 764 716 836 779 q 617 586 692 653 q 720 571 668 586 q 816 526 772 556 q 887 456 860 497 q 914 361 914 414 q 873 211 914 278 q 764 93 832 144 q 613 8 696 42 q 443 -44 529 -26 q 281 -61 357 -61 m 1101 919 q 1138 929 1125 919 q 1151 953 1151 939 q 1140 973 1151 964 q 1114 982 1129 982 q 1063 965 1089 982 q 1021 936 1036 949 q 1066 923 1046 926 q 1101 919 1086 919 z "},"Ǯ":{"ha":931,"x_min":26,"x_max":1188,"o":"m 281 -61 q 152 -46 210 -61 q 60 1 94 -31 q 26 81 26 33 q 66 187 26 139 q 174 274 106 235 q 324 346 242 313 q 415 374 379 368 q 467 379 450 379 q 496 364 496 379 q 481 342 496 353 q 415 333 467 332 q 298 310 354 333 q 197 249 242 286 q 126 173 151 213 q 100 100 100 133 q 152 11 100 40 q 281 -18 204 -18 q 410 -2 340 -18 q 549 45 481 14 q 674 122 617 76 q 765 224 731 167 q 799 351 799 282 q 766 447 799 407 q 684 510 733 488 q 585 532 635 532 q 551 530 563 532 q 533 528 540 528 q 527 535 529 528 q 525 551 525 542 q 556 579 528 556 q 624 636 585 603 q 702 702 664 669 q 763 754 740 735 q 795 783 771 763 q 850 832 819 804 q 910 885 881 860 q 958 926 939 910 q 847 954 906 940 q 730 978 788 968 q 624 989 672 989 q 523 978 575 989 q 426 948 471 968 q 354 896 382 928 q 326 819 326 864 q 338 774 326 797 q 379 731 350 751 q 397 710 397 717 q 392 704 397 706 q 382 703 388 703 q 342 719 365 703 q 303 768 319 736 q 286 846 286 800 q 331 969 286 921 q 443 1039 375 1017 q 581 1061 511 1061 q 720 1043 649 1061 q 860 999 792 1025 q 988 953 929 974 q 1044 992 1010 971 q 1114 1014 1079 1014 q 1170 997 1153 1014 q 1188 958 1188 979 q 1165 917 1188 936 q 1106 897 1142 897 q 1060 902 1088 897 q 1001 915 1033 907 q 898 831 960 883 q 764 716 836 779 q 617 586 692 653 q 720 571 668 586 q 816 526 772 556 q 887 456 860 497 q 914 361 914 414 q 873 211 914 278 q 764 93 832 144 q 613 8 696 42 q 443 -44 529 -26 q 281 -61 357 -61 m 1101 919 q 1138 929 1125 919 q 1151 953 1151 939 q 1140 973 1151 964 q 1114 982 1129 982 q 1063 965 1089 982 q 1021 936 1036 949 q 1066 923 1046 926 q 1101 919 1086 919 m 981 1124 q 961 1129 967 1124 l 911 1276 q 910 1278 911 1278 q 910 1279 910 1279 q 918 1283 910 1283 q 939 1276 935 1283 l 1001 1196 l 1143 1276 q 1168 1285 1154 1285 q 1179 1282 1175 1285 q 1179 1276 1183 1279 l 1013 1129 q 999 1126 1007 1128 q 981 1124 992 1124 z "},"Ƹ":{"ha":944,"x_min":78,"x_max":1003,"o":"m 390 1046 q 433 1033 415 1046 q 475 1021 451 1021 q 526 1023 486 1021 q 620 1028 565 1025 q 734 1033 675 1031 q 844 1038 793 1036 q 924 1040 894 1040 q 987 1008 971 1040 q 1003 922 1003 975 q 1000 866 1003 896 q 994 804 997 836 q 981 789 994 789 q 972 797 972 789 q 974 842 972 821 q 975 882 975 864 q 967 935 975 914 q 926 965 958 956 q 878 970 911 969 q 826 971 844 971 q 785 969 818 971 q 705 966 751 968 q 612 961 658 964 q 530 955 565 958 q 483 947 494 951 q 506 912 486 944 q 556 832 526 879 q 619 733 586 785 q 683 636 653 681 q 735 568 714 592 q 761 547 751 561 q 776 519 771 532 q 781 507 781 507 q 618 497 701 508 q 458 462 535 486 q 319 399 381 438 q 222 309 258 361 q 186 190 186 257 q 221 97 186 140 q 319 28 256 54 q 469 3 382 3 q 605 18 535 3 q 735 63 675 33 q 833 135 796 93 q 871 228 871 176 q 844 294 871 265 q 790 324 818 324 q 764 331 772 324 q 756 343 756 338 q 774 353 756 353 q 831 335 796 353 q 893 286 865 318 q 921 210 921 254 q 878 105 921 150 q 766 29 835 60 q 619 -17 697 -1 q 471 -32 542 -32 q 170 30 263 -31 q 78 188 78 90 q 113 310 78 253 q 208 416 149 368 q 339 499 267 464 q 485 553 411 535 q 624 572 560 572 l 665 572 q 644 609 654 590 q 628 639 635 628 q 551 765 589 704 q 480 874 513 826 q 424 944 447 922 q 403 965 418 951 q 374 997 388 979 q 361 1028 361 1014 q 390 1046 367 1046 z "},"F":{"ha":1463,"x_min":36,"x_max":1968,"o":"m 539 -140 q 273 -93 386 -140 q 98 37 160 -46 q 36 225 36 119 q 67 382 36 311 q 148 500 97 453 q 260 563 199 547 q 269 556 269 564 q 263 544 269 549 q 152 421 190 501 q 114 242 114 340 q 169 58 114 135 q 322 -60 225 -19 q 539 -101 418 -101 q 737 -65 643 -101 q 910 36 831 -28 q 1052 181 989 100 q 1158 351 1115 263 q 1178 392 1168 372 q 1197 431 1188 411 q 1137 433 1164 432 q 1100 435 1110 435 q 1020 430 1063 435 q 941 411 978 425 q 881 368 904 397 q 869 353 871 358 q 863 347 867 347 q 853 356 857 347 q 854 376 849 365 q 944 473 886 447 q 1075 499 1003 499 q 1133 494 1090 499 q 1222 483 1175 489 q 1334 707 1283 607 q 1429 874 1385 807 q 1217 933 1329 907 q 975 958 1104 958 q 801 932 879 958 q 669 861 724 906 q 585 763 614 817 q 556 654 556 708 q 579 557 556 593 q 641 505 603 521 q 719 489 679 489 q 822 518 779 489 q 889 584 864 547 q 919 644 914 621 q 936 667 925 667 q 950 647 953 667 q 907 542 942 586 q 822 474 872 497 q 717 451 772 451 q 607 479 660 451 q 521 560 554 507 q 488 688 488 613 q 515 809 488 749 q 597 920 542 869 q 736 1001 651 971 q 936 1032 821 1032 q 1104 1013 1018 1032 q 1278 966 1190 994 q 1453 907 1367 938 q 1508 965 1482 944 q 1561 985 1535 985 q 1576 980 1572 985 q 1581 971 1581 975 q 1576 958 1581 965 q 1561 951 1572 951 q 1475 900 1515 951 q 1667 841 1575 867 q 1839 815 1760 815 q 1919 828 1900 815 q 1939 865 1939 842 q 1949 881 1939 881 q 1962 872 1956 881 q 1968 850 1968 863 q 1931 796 1968 817 q 1829 775 1894 775 q 1650 803 1743 775 q 1453 867 1557 832 q 1379 703 1415 804 q 1294 476 1343 603 q 1421 467 1354 471 q 1529 464 1488 464 q 1543 456 1543 464 q 1511 436 1543 444 q 1441 428 1490 431 q 1339 425 1392 425 q 1311 426 1328 425 q 1275 426 1294 426 q 1249 362 1263 394 q 1221 294 1236 329 q 1078 72 1163 157 q 899 -60 994 -14 q 710 -124 804 -107 q 539 -140 617 -140 z "},"Ḟ":{"ha":1463,"x_min":36,"x_max":1968,"o":"m 539 -140 q 273 -93 386 -140 q 98 37 160 -46 q 36 225 36 119 q 67 382 36 311 q 148 500 97 453 q 260 563 199 547 q 269 556 269 564 q 263 544 269 549 q 152 421 190 501 q 114 242 114 340 q 169 58 114 135 q 322 -60 225 -19 q 539 -101 418 -101 q 737 -65 643 -101 q 910 36 831 -28 q 1052 181 989 100 q 1158 351 1115 263 q 1178 392 1168 372 q 1197 431 1188 411 q 1137 433 1164 432 q 1100 435 1110 435 q 1020 430 1063 435 q 941 411 978 425 q 881 368 904 397 q 869 353 871 358 q 863 347 867 347 q 853 356 857 347 q 854 376 849 365 q 944 473 886 447 q 1075 499 1003 499 q 1133 494 1090 499 q 1222 483 1175 489 q 1334 707 1283 607 q 1429 874 1385 807 q 1217 933 1329 907 q 975 958 1104 958 q 801 932 879 958 q 669 861 724 906 q 585 763 614 817 q 556 654 556 708 q 579 557 556 593 q 641 505 603 521 q 719 489 679 489 q 822 518 779 489 q 889 584 864 547 q 919 644 914 621 q 936 667 925 667 q 950 647 953 667 q 907 542 942 586 q 822 474 872 497 q 717 451 772 451 q 607 479 660 451 q 521 560 554 507 q 488 688 488 613 q 515 809 488 749 q 597 920 542 869 q 736 1001 651 971 q 936 1032 821 1032 q 1104 1013 1018 1032 q 1278 966 1190 994 q 1453 907 1367 938 q 1508 965 1482 944 q 1561 985 1535 985 q 1576 980 1572 985 q 1581 971 1581 975 q 1576 958 1581 965 q 1561 951 1572 951 q 1475 900 1515 951 q 1667 841 1575 867 q 1839 815 1760 815 q 1919 828 1900 815 q 1939 865 1939 842 q 1949 881 1939 881 q 1962 872 1956 881 q 1968 850 1968 863 q 1931 796 1968 817 q 1829 775 1894 775 q 1650 803 1743 775 q 1453 867 1557 832 q 1379 703 1415 804 q 1294 476 1343 603 q 1421 467 1354 471 q 1529 464 1488 464 q 1543 456 1543 464 q 1511 436 1543 444 q 1441 428 1490 431 q 1339 425 1392 425 q 1311 426 1328 425 q 1275 426 1294 426 q 1249 362 1263 394 q 1221 294 1236 329 q 1078 72 1163 157 q 899 -60 994 -14 q 710 -124 804 -107 q 539 -140 617 -140 m 1483 1060 q 1452 1074 1465 1060 q 1439 1107 1439 1088 q 1458 1149 1439 1131 q 1501 1168 1478 1168 q 1535 1156 1521 1168 q 1549 1124 1549 1143 q 1529 1079 1549 1099 q 1483 1060 1510 1060 z "},"Ƒ":{"ha":1051,"x_min":-299,"x_max":1546,"o":"m -75 -528 q -244 -496 -189 -528 q -299 -410 -299 -464 q -267 -326 -299 -364 q -185 -259 -236 -289 q -74 -208 -133 -229 q 44 -172 -14 -186 q 149 -153 103 -158 q 218 -150 196 -147 q 240 -161 240 -153 q 221 -175 240 -174 q 129 -192 182 -178 q 21 -229 76 -206 q -82 -283 -35 -253 q -159 -348 -129 -312 q -189 -421 -189 -383 q -159 -471 -189 -450 q -68 -492 -129 -492 q 199 -412 74 -492 q 436 -182 324 -332 q 651 175 549 -32 q 717 309 686 244 q 778 433 749 374 q 727 436 750 435 q 689 438 704 438 q 627 432 665 438 q 553 411 589 426 q 496 367 517 396 q 488 356 492 361 q 481 350 483 350 q 470 358 475 350 q 471 376 465 365 q 561 472 503 447 q 692 496 619 496 q 747 494 719 496 q 804 488 774 492 q 924 735 874 633 q 997 874 974 838 q 771 932 886 906 q 543 958 656 958 q 336 918 429 958 q 188 810 243 878 q 133 658 133 742 q 157 558 133 596 q 219 505 181 521 q 297 489 257 489 q 385 510 347 489 q 448 560 422 531 q 487 617 474 590 q 500 657 500 644 l 500 658 q 514 667 507 667 q 528 647 528 667 q 485 543 521 588 q 400 475 450 499 q 294 451 350 451 q 185 479 238 451 q 99 560 132 507 q 65 688 65 613 q 92 809 65 749 q 173 920 119 869 q 308 1001 226 971 q 500 1032 390 1032 q 768 993 635 1032 q 1025 911 901 954 q 1074 964 1050 943 q 1126 985 1097 985 q 1154 968 1154 985 q 1135 951 1154 951 q 1094 942 1113 951 q 1053 901 1075 933 q 1237 843 1149 868 q 1400 818 1325 818 q 1490 828 1463 818 q 1517 860 1517 838 q 1520 874 1517 868 q 1533 881 1524 881 q 1543 869 1540 881 q 1546 850 1546 857 q 1510 796 1546 817 q 1422 775 1475 775 q 1241 803 1342 775 q 1028 864 1140 831 l 1025 860 q 983 773 1008 831 q 928 640 958 715 q 864 481 897 564 q 980 469 915 474 q 1132 464 1044 464 q 1160 454 1160 464 q 1128 436 1160 444 q 1058 426 1107 431 q 956 422 1008 422 q 909 424 939 422 q 843 429 879 426 q 753 208 800 318 q 664 14 707 99 q 465 -274 579 -153 q 215 -462 351 -396 q -75 -528 79 -528 z "},"G":{"ha":975,"x_min":-64,"x_max":1110,"o":"m 114 -522 q -16 -492 32 -522 q -64 -414 -64 -461 q -31 -331 -64 -369 q 56 -260 3 -292 q 173 -205 110 -229 q 297 -165 236 -181 q 403 -143 357 -149 q 498 -132 446 -136 q 603 -124 550 -128 q 700 -121 657 -121 q 784 44 751 -33 q 842 224 817 122 l 847 246 q 773 185 821 221 q 662 115 725 150 q 527 56 599 79 q 381 32 456 32 q 210 79 282 32 q 101 210 139 126 q 63 404 63 294 q 79 544 63 469 q 133 696 96 618 q 66 794 90 740 q 42 906 42 849 q 63 1005 42 956 q 128 1100 83 1054 q 151 1114 140 1114 q 157 1108 157 1114 q 147 1089 157 1100 q 100 1007 115 1050 q 85 921 85 964 q 103 825 85 872 q 157 738 122 778 q 256 886 193 814 q 404 1016 319 958 q 589 1108 489 1074 q 797 1142 689 1142 q 1026 1079 942 1142 q 1110 890 1110 1017 q 1077 771 1110 831 q 978 661 1044 711 q 815 581 913 611 q 588 547 717 550 q 388 573 486 546 q 221 644 289 600 q 170 501 186 571 q 154 369 154 431 q 223 156 154 229 q 407 82 292 82 q 533 101 469 82 q 650 150 596 119 q 742 215 704 181 q 793 278 781 249 q 856 378 825 350 q 913 407 888 407 q 948 388 933 407 q 958 338 963 369 q 895 114 944 222 q 768 -121 846 6 q 938 -131 863 -122 q 1075 -156 1014 -140 q 1098 -166 1092 -160 q 1104 -176 1104 -172 q 1088 -186 1104 -186 q 1064 -182 1079 -186 q 979 -167 1032 -174 q 866 -158 926 -161 q 750 -156 806 -156 q 612 -306 692 -239 q 442 -422 532 -374 q 267 -497 353 -471 q 114 -522 182 -522 m 550 589 q 733 614 644 589 q 893 683 822 639 q 1006 787 964 728 q 1049 913 1049 846 q 1015 1017 1049 974 q 928 1085 981 1061 q 815 1108 875 1108 q 635 1072 721 1108 q 475 976 549 1036 q 341 839 401 915 q 239 682 281 763 q 377 614 296 639 q 550 589 458 589 m 111 -486 q 239 -465 165 -486 q 393 -401 313 -443 q 548 -299 474 -360 q 678 -158 622 -237 q 547 -165 611 -160 q 418 -181 482 -169 q 333 -201 383 -186 q 228 -240 282 -217 q 126 -293 174 -264 q 48 -356 78 -322 q 18 -424 18 -389 q 40 -467 18 -449 q 111 -486 61 -486 z "},"Ǵ":{"ha":975,"x_min":-64,"x_max":1110,"o":"m 114 -522 q -16 -492 32 -522 q -64 -414 -64 -461 q -31 -331 -64 -369 q 56 -260 3 -292 q 173 -205 110 -229 q 297 -165 236 -181 q 403 -143 357 -149 q 498 -132 446 -136 q 603 -124 550 -128 q 700 -121 657 -121 q 784 44 751 -33 q 842 224 817 122 l 847 246 q 773 185 821 221 q 662 115 725 150 q 527 56 599 79 q 381 32 456 32 q 210 79 282 32 q 101 210 139 126 q 63 404 63 294 q 79 544 63 469 q 133 696 96 618 q 66 794 90 740 q 42 906 42 849 q 63 1005 42 956 q 128 1100 83 1054 q 151 1114 140 1114 q 157 1108 157 1114 q 147 1089 157 1100 q 100 1007 115 1050 q 85 921 85 964 q 103 825 85 872 q 157 738 122 778 q 256 886 193 814 q 404 1016 319 958 q 589 1108 489 1074 q 797 1142 689 1142 q 1026 1079 942 1142 q 1110 890 1110 1017 q 1077 771 1110 831 q 978 661 1044 711 q 815 581 913 611 q 588 547 717 550 q 388 573 486 546 q 221 644 289 600 q 170 501 186 571 q 154 369 154 431 q 223 156 154 229 q 407 82 292 82 q 533 101 469 82 q 650 150 596 119 q 742 215 704 181 q 793 278 781 249 q 856 378 825 350 q 913 407 888 407 q 948 388 933 407 q 958 338 963 369 q 895 114 944 222 q 768 -121 846 6 q 938 -131 863 -122 q 1075 -156 1014 -140 q 1098 -166 1092 -160 q 1104 -176 1104 -172 q 1088 -186 1104 -186 q 1064 -182 1079 -186 q 979 -167 1032 -174 q 866 -158 926 -161 q 750 -156 806 -156 q 612 -306 692 -239 q 442 -422 532 -374 q 267 -497 353 -471 q 114 -522 182 -522 m 550 589 q 733 614 644 589 q 893 683 822 639 q 1006 787 964 728 q 1049 913 1049 846 q 1015 1017 1049 974 q 928 1085 981 1061 q 815 1108 875 1108 q 635 1072 721 1108 q 475 976 549 1036 q 341 839 401 915 q 239 682 281 763 q 377 614 296 639 q 550 589 458 589 m 111 -486 q 239 -465 165 -486 q 393 -401 313 -443 q 548 -299 474 -360 q 678 -158 622 -237 q 547 -165 611 -160 q 418 -181 482 -169 q 333 -201 383 -186 q 228 -240 282 -217 q 126 -293 174 -264 q 48 -356 78 -322 q 18 -424 18 -389 q 40 -467 18 -449 q 111 -486 61 -486 m 808 1211 q 791 1217 799 1214 q 783 1231 783 1221 q 893 1310 838 1267 q 999 1394 949 1353 q 1020 1382 1010 1394 q 1028 1335 1031 1369 q 984 1307 1014 1325 q 919 1270 954 1289 q 855 1235 885 1251 q 808 1211 825 1219 z "},"Ğ":{"ha":975,"x_min":-64,"x_max":1110,"o":"m 114 -522 q -16 -492 32 -522 q -64 -414 -64 -461 q -31 -331 -64 -369 q 56 -260 3 -292 q 173 -205 110 -229 q 297 -165 236 -181 q 403 -143 357 -149 q 498 -132 446 -136 q 603 -124 550 -128 q 700 -121 657 -121 q 784 44 751 -33 q 842 224 817 122 l 847 246 q 773 185 821 221 q 662 115 725 150 q 527 56 599 79 q 381 32 456 32 q 210 79 282 32 q 101 210 139 126 q 63 404 63 294 q 79 544 63 469 q 133 696 96 618 q 66 794 90 740 q 42 906 42 849 q 63 1005 42 956 q 128 1100 83 1054 q 151 1114 140 1114 q 157 1108 157 1114 q 147 1089 157 1100 q 100 1007 115 1050 q 85 921 85 964 q 103 825 85 872 q 157 738 122 778 q 256 886 193 814 q 404 1016 319 958 q 589 1108 489 1074 q 797 1142 689 1142 q 1026 1079 942 1142 q 1110 890 1110 1017 q 1077 771 1110 831 q 978 661 1044 711 q 815 581 913 611 q 588 547 717 550 q 388 573 486 546 q 221 644 289 600 q 170 501 186 571 q 154 369 154 431 q 223 156 154 229 q 407 82 292 82 q 533 101 469 82 q 650 150 596 119 q 742 215 704 181 q 793 278 781 249 q 856 378 825 350 q 913 407 888 407 q 948 388 933 407 q 958 338 963 369 q 895 114 944 222 q 768 -121 846 6 q 938 -131 863 -122 q 1075 -156 1014 -140 q 1098 -166 1092 -160 q 1104 -176 1104 -172 q 1088 -186 1104 -186 q 1064 -182 1079 -186 q 979 -167 1032 -174 q 866 -158 926 -161 q 750 -156 806 -156 q 612 -306 692 -239 q 442 -422 532 -374 q 267 -497 353 -471 q 114 -522 182 -522 m 550 589 q 733 614 644 589 q 893 683 822 639 q 1006 787 964 728 q 1049 913 1049 846 q 1015 1017 1049 974 q 928 1085 981 1061 q 815 1108 875 1108 q 635 1072 721 1108 q 475 976 549 1036 q 341 839 401 915 q 239 682 281 763 q 377 614 296 639 q 550 589 458 589 m 111 -486 q 239 -465 165 -486 q 393 -401 313 -443 q 548 -299 474 -360 q 678 -158 622 -237 q 547 -165 611 -160 q 418 -181 482 -169 q 333 -201 383 -186 q 228 -240 282 -217 q 126 -293 174 -264 q 48 -356 78 -322 q 18 -424 18 -389 q 40 -467 18 -449 q 111 -486 61 -486 m 843 1215 q 747 1246 779 1215 q 714 1325 714 1276 q 726 1353 714 1346 q 743 1360 738 1360 q 771 1297 743 1321 q 851 1272 799 1272 q 925 1290 894 1272 q 975 1328 956 1307 q 1001 1363 994 1350 q 1018 1349 1018 1363 q 1004 1317 1018 1340 q 941 1244 978 1274 q 843 1215 904 1215 z "},"Ǧ":{"ha":975,"x_min":-64,"x_max":1110,"o":"m 114 -522 q -16 -492 32 -522 q -64 -414 -64 -461 q -31 -331 -64 -369 q 56 -260 3 -292 q 173 -205 110 -229 q 297 -165 236 -181 q 403 -143 357 -149 q 498 -132 446 -136 q 603 -124 550 -128 q 700 -121 657 -121 q 784 44 751 -33 q 842 224 817 122 l 847 246 q 773 185 821 221 q 662 115 725 150 q 527 56 599 79 q 381 32 456 32 q 210 79 282 32 q 101 210 139 126 q 63 404 63 294 q 79 544 63 469 q 133 696 96 618 q 66 794 90 740 q 42 906 42 849 q 63 1005 42 956 q 128 1100 83 1054 q 151 1114 140 1114 q 157 1108 157 1114 q 147 1089 157 1100 q 100 1007 115 1050 q 85 921 85 964 q 103 825 85 872 q 157 738 122 778 q 256 886 193 814 q 404 1016 319 958 q 589 1108 489 1074 q 797 1142 689 1142 q 1026 1079 942 1142 q 1110 890 1110 1017 q 1077 771 1110 831 q 978 661 1044 711 q 815 581 913 611 q 588 547 717 550 q 388 573 486 546 q 221 644 289 600 q 170 501 186 571 q 154 369 154 431 q 223 156 154 229 q 407 82 292 82 q 533 101 469 82 q 650 150 596 119 q 742 215 704 181 q 793 278 781 249 q 856 378 825 350 q 913 407 888 407 q 948 388 933 407 q 958 338 963 369 q 895 114 944 222 q 768 -121 846 6 q 938 -131 863 -122 q 1075 -156 1014 -140 q 1098 -166 1092 -160 q 1104 -176 1104 -172 q 1088 -186 1104 -186 q 1064 -182 1079 -186 q 979 -167 1032 -174 q 866 -158 926 -161 q 750 -156 806 -156 q 612 -306 692 -239 q 442 -422 532 -374 q 267 -497 353 -471 q 114 -522 182 -522 m 550 589 q 733 614 644 589 q 893 683 822 639 q 1006 787 964 728 q 1049 913 1049 846 q 1015 1017 1049 974 q 928 1085 981 1061 q 815 1108 875 1108 q 635 1072 721 1108 q 475 976 549 1036 q 341 839 401 915 q 239 682 281 763 q 377 614 296 639 q 550 589 458 589 m 111 -486 q 239 -465 165 -486 q 393 -401 313 -443 q 548 -299 474 -360 q 678 -158 622 -237 q 547 -165 611 -160 q 418 -181 482 -169 q 333 -201 383 -186 q 228 -240 282 -217 q 126 -293 174 -264 q 48 -356 78 -322 q 18 -424 18 -389 q 40 -467 18 -449 q 111 -486 61 -486 m 857 1228 q 825 1247 833 1228 l 775 1365 q 771 1374 774 1368 q 768 1382 768 1381 q 779 1388 768 1388 q 804 1378 794 1388 l 881 1296 l 1044 1376 q 1086 1388 1067 1388 q 1101 1382 1101 1388 q 1097 1377 1101 1381 q 1089 1371 1092 1374 l 904 1242 q 857 1228 883 1228 z "},"Ĝ":{"ha":975,"x_min":-64,"x_max":1110,"o":"m 114 -522 q -16 -492 32 -522 q -64 -414 -64 -461 q -31 -331 -64 -369 q 56 -260 3 -292 q 173 -205 110 -229 q 297 -165 236 -181 q 403 -143 357 -149 q 498 -132 446 -136 q 603 -124 550 -128 q 700 -121 657 -121 q 784 44 751 -33 q 842 224 817 122 l 847 246 q 773 185 821 221 q 662 115 725 150 q 527 56 599 79 q 381 32 456 32 q 210 79 282 32 q 101 210 139 126 q 63 404 63 294 q 79 544 63 469 q 133 696 96 618 q 66 794 90 740 q 42 906 42 849 q 63 1005 42 956 q 128 1100 83 1054 q 151 1114 140 1114 q 157 1108 157 1114 q 147 1089 157 1100 q 100 1007 115 1050 q 85 921 85 964 q 103 825 85 872 q 157 738 122 778 q 256 886 193 814 q 404 1016 319 958 q 589 1108 489 1074 q 797 1142 689 1142 q 1026 1079 942 1142 q 1110 890 1110 1017 q 1077 771 1110 831 q 978 661 1044 711 q 815 581 913 611 q 588 547 717 550 q 388 573 486 546 q 221 644 289 600 q 170 501 186 571 q 154 369 154 431 q 223 156 154 229 q 407 82 292 82 q 533 101 469 82 q 650 150 596 119 q 742 215 704 181 q 793 278 781 249 q 856 378 825 350 q 913 407 888 407 q 948 388 933 407 q 958 338 963 369 q 895 114 944 222 q 768 -121 846 6 q 938 -131 863 -122 q 1075 -156 1014 -140 q 1098 -166 1092 -160 q 1104 -176 1104 -172 q 1088 -186 1104 -186 q 1064 -182 1079 -186 q 979 -167 1032 -174 q 866 -158 926 -161 q 750 -156 806 -156 q 612 -306 692 -239 q 442 -422 532 -374 q 267 -497 353 -471 q 114 -522 182 -522 m 550 589 q 733 614 644 589 q 893 683 822 639 q 1006 787 964 728 q 1049 913 1049 846 q 1015 1017 1049 974 q 928 1085 981 1061 q 815 1108 875 1108 q 635 1072 721 1108 q 475 976 549 1036 q 341 839 401 915 q 239 682 281 763 q 377 614 296 639 q 550 589 458 589 m 111 -486 q 239 -465 165 -486 q 393 -401 313 -443 q 548 -299 474 -360 q 678 -158 622 -237 q 547 -165 611 -160 q 418 -181 482 -169 q 333 -201 383 -186 q 228 -240 282 -217 q 126 -293 174 -264 q 48 -356 78 -322 q 18 -424 18 -389 q 40 -467 18 -449 q 111 -486 61 -486 m 932 1388 q 957 1382 951 1388 l 1018 1238 q 1019 1235 1018 1236 q 1019 1235 1019 1235 q 1008 1231 1019 1231 q 995 1233 1003 1231 q 985 1238 988 1235 l 907 1317 l 732 1238 q 701 1229 722 1229 q 689 1232 694 1229 q 688 1238 683 1235 l 893 1382 q 909 1386 900 1385 q 932 1388 918 1388 z "},"Ģ":{"ha":975,"x_min":-64,"x_max":1110,"o":"m 114 -522 q -16 -492 32 -522 q -64 -414 -64 -461 q -31 -331 -64 -369 q 56 -260 3 -292 q 173 -205 110 -229 q 297 -165 236 -181 q 403 -143 357 -149 q 498 -132 446 -136 q 603 -124 550 -128 q 700 -121 657 -121 q 784 44 751 -33 q 842 224 817 122 l 847 246 q 773 185 821 221 q 662 115 725 150 q 527 56 599 79 q 381 32 456 32 q 210 79 282 32 q 101 210 139 126 q 63 404 63 294 q 79 544 63 469 q 133 696 96 618 q 66 794 90 740 q 42 906 42 849 q 63 1005 42 956 q 128 1100 83 1054 q 151 1114 140 1114 q 157 1108 157 1114 q 147 1089 157 1100 q 100 1007 115 1050 q 85 921 85 964 q 103 825 85 872 q 157 738 122 778 q 256 886 193 814 q 404 1016 319 958 q 589 1108 489 1074 q 797 1142 689 1142 q 1026 1079 942 1142 q 1110 890 1110 1017 q 1077 771 1110 831 q 978 661 1044 711 q 815 581 913 611 q 588 547 717 550 q 388 573 486 546 q 221 644 289 600 q 170 501 186 571 q 154 369 154 431 q 223 156 154 229 q 407 82 292 82 q 533 101 469 82 q 650 150 596 119 q 742 215 704 181 q 793 278 781 249 q 856 378 825 350 q 913 407 888 407 q 948 388 933 407 q 958 338 963 369 q 895 114 944 222 q 768 -121 846 6 q 938 -131 863 -122 q 1075 -156 1014 -140 q 1098 -166 1092 -160 q 1104 -176 1104 -172 q 1088 -186 1104 -186 q 1064 -182 1079 -186 q 979 -167 1032 -174 q 866 -158 926 -161 q 750 -156 806 -156 q 612 -306 692 -239 q 442 -422 532 -374 q 267 -497 353 -471 q 114 -522 182 -522 m 550 589 q 733 614 644 589 q 893 683 822 639 q 1006 787 964 728 q 1049 913 1049 846 q 1015 1017 1049 974 q 928 1085 981 1061 q 815 1108 875 1108 q 635 1072 721 1108 q 475 976 549 1036 q 341 839 401 915 q 239 682 281 763 q 377 614 296 639 q 550 589 458 589 m 111 -486 q 239 -465 165 -486 q 393 -401 313 -443 q 548 -299 474 -360 q 678 -158 622 -237 q 547 -165 611 -160 q 418 -181 482 -169 q 333 -201 383 -186 q 228 -240 282 -217 q 126 -293 174 -264 q 48 -356 78 -322 q 18 -424 18 -389 q 40 -467 18 -449 q 111 -486 61 -486 m 33 -772 q 25 -761 25 -772 q 91 -723 65 -749 q 121 -660 117 -697 q 106 -669 114 -665 q 89 -672 99 -672 q 63 -660 72 -672 q 53 -632 53 -649 q 70 -592 53 -604 q 106 -579 88 -579 q 142 -594 129 -579 q 156 -632 156 -610 q 137 -699 156 -669 q 90 -747 118 -728 q 33 -772 61 -765 z "}}}
